<?xml version="1.0" encoding="utf-8" ?>
<svg baseProfile="full" height="200mm" version="1.1" viewBox="0,0,200,200" width="200mm" xmlns="http://www.w3.org/2000/svg" xmlns:ev="http://www.w3.org/2001/xml-events" xmlns:xlink="http://www.w3.org/1999/xlink"><defs /><rect fill="#1a1a1a" height="200" width="200" x="0" y="0" /><text alignment-baseline="middle" fill="#e1ed5e" style="dominant-baseline: central; font-size:9.0px; font-family:Arial;" text-anchor="middle" x="100.0" y="100.0">2015</text><line stroke="#e1ed5e" stroke-width="0.3" x1="100.0" x2="100.0" y1="15.0" y2="10.0" /><path d="M 100.0 14.0 a86.0,86.0 0 0,1 42.46469731375804,11.215312516191453" fill="none" id="id13" stroke="none" /><text fill="#e1ed5e" style="font-size:6.75px; font-family:Arial;" text-anchor="middle"><textPath startOffset="22.20632615414155" xlink:href="#id13">January</textPath></text><line stroke="#e1ed5e" stroke-width="0.3" x1="143.23703022742887" x2="145.7803849466894" y1="26.81831364943548" y2="22.513508569990506" /><path d="M 143.74570117128098 25.957352633546492 a86.0,86.0 0 0,1 28.547481713284135,27.462654790039103" fill="none" id="id14" stroke="none" /><text fill="#e1ed5e" style="font-size:6.75px; font-family:Arial;" text-anchor="middle"><textPath startOffset="19.985693538727396" xlink:href="#id14">February</textPath></text><path d="M 111.2981086023043 82.29822771554956 l 6.913237766542752 -10.831597128270069 a33.84976080578551,33.84976080578551 0 0,0 0.48845684254608973,0.31770591770299833 l -7.098661634873121 10.710992286407542" fill="#ff810b" stroke="none" /><path d="M 111.90073688211348 82.69761687909136 l 5.584537480896088 -8.119312947147371 a30.854455926597275,30.854455926597275 0 0,0 0.4350020764263868,0.30474675368801873 l -5.723470696906126 8.021981350695416" fill="#ff5507" stroke="none" /><path d="M 113.34407831869373 83.78471172551755 l 7.644392893840468 -9.289216647011 a33.03022396427036,33.03022396427036 0 0,0 0.4359084582976131,0.3650607977680992 l -7.803158889097198 9.15625469184908" fill="#ff750a" stroke="none" /><path d="M 114.16331599549186 84.49514656593476 l 6.763292390733103 -7.403905786146643 a31.027958159699512,31.027958159699512 0 0,0 0.3912361286967516,0.3636113431699994 l -6.889736403224702 7.2863898569020025" fill="#ff5808" stroke="none" /><path d="M 114.94478906791727 85.2469230424477 l 8.771681866753502 -8.659158522698048 a33.32572225440548,33.32572225440548 0 0,0 0.39948929663516414,0.411708836283102 l -8.919435427091775 8.506885490864832" fill="#ff790b" stroke="none" /><path d="M 116.82858285166822 87.43820079747576 l 11.428588329504173 -8.530940069580014 a35.26147151159532,35.26147151159532 0 0,0 0.3588902285625511,0.4895258684303686 l -11.57374117058035 8.33295175747815" fill="#ff940d" stroke="none" /><path d="M 117.2510076193507 88.02491185347247 l 8.950493476789097 -6.213141325103843 a31.895616485713752,31.895616485713752 0 0,0 0.3091984366144921,0.45371055264863924 l -9.056116379072321 6.0581527491847975" fill="#ff6509" stroke="none" /><line stroke="#e1ed5e" stroke-width="0.3" x1="172.23445277983987" x2="176.4835382374775" y1="55.19839476539836" y2="52.563006222186495" /><path d="M 173.08426987136738 54.67131705675599 a86.0,86.0 0 0,1 12.851231095245387,41.99856678651699" fill="none" id="id15" stroke="none" /><text fill="#e1ed5e" style="font-size:6.75px; font-family:Arial;" text-anchor="middle"><textPath startOffset="22.20632615414155" xlink:href="#id15">March</textPath></text><path d="M 117.84615892207809 88.93136811851018 l 10.417207121806339 -6.461011098688675 a33.258175583503075,33.258175583503075 0 0,0 0.29755646523633683,0.4891045916439585 l -10.5268793853289 6.2807387338376355" fill="#ff780b" stroke="none" /><path d="M 119.85752413597 93.16781622104841 l 8.455302086991539 -2.9091329497738116 a29.941766486648103,29.941766486648103 0 0,0 0.1634859035529901,0.48880204274486744 l -8.504125284316299 2.7631578041066303" fill="#ff4806" stroke="none" /><path d="M 120.08093135843002 93.85539295169968 l 11.415628407512557 -3.493092502611047 a32.93810148935773,32.93810148935773 0 0,0 0.16123059968772524,0.5435894301224641 l -11.474064904311984 3.296073685742053" fill="#ff740a" stroke="none" /><path d="M 120.28053869075195 94.5502522615342 l 11.374760398349798 -3.0566039542512127 a32.778285183039635,32.778285183039635 0 0,0 0.1417327871248241,0.5461542452345106 l -11.425689517344924 2.8603532834678513" fill="#ff710a" stroke="none" /><path d="M 120.37134235888165 94.90015583598534 l 9.212271773471052 -2.306237341338973 a30.496561583166706,30.496561583166706 0 0,0 0.12310038700373871,0.5103305773301515 l -9.250604960735611 2.147321532349415" fill="#ff5007" stroke="none" /><path d="M 120.45610955862082 95.25157060432595 l 10.110699638793221 -2.3469733205180217 a31.3795246014987,31.3795246014987 0 0,0 0.1176068913974094,0.5272086337406053 l -10.149600917192668 2.1725865172274523" fill="#ff5d08" stroke="none" /><path d="M 120.67395015179393 96.31383870115 l 16.393405546966925 -2.9229410267461007 a37.65194672322613,37.65194672322613 0 0,0 0.10827290346454117,0.6390328052253673 l -16.44129031195169 2.6403224332048953" fill="#ffb510" stroke="none" /><path d="M 120.78858239683441 97.02765380044208 l 7.645523386962023 -1.0931549804150273 a28.72327752134995,28.72327752134995 0 0,0 0.06576810016183922,0.4900487376993342 l -7.663207486181698 0.9613879006510289" fill="#ff3605" stroke="none" /><path d="M 120.87857604477298 97.74499172005257 l 22.05412496976133 -2.381974436722075 a43.18238558854858,43.18238558854858 0 0,0 0.07345709205339336,0.7397028923217663 l -22.09185918749695 2.001996013695874" fill="#fffe18" stroke="none" /><path d="M 120.94382443527127 98.46500227214037 l 9.45618780738695 -0.6930552174658225 a30.481551211855063,30.481551211855063 0 0,0 0.033848179025195345,0.5236163479611249 l -9.46671657741656 0.5301798052516624" fill="#ff5007" stroke="none" /><path d="M 120.98425023603335 99.18683210126433 l 9.701926712827529 -0.3759626991680748 a30.70920851008166,30.70920851008166 0 0,0 0.01592244025157495,0.5283882754115604 l -9.706960847534749 0.2089042763315153" fill="#ff5307" stroke="none" /><line stroke="#e1ed5e" stroke-width="0.3" x1="184.98032266829074" x2="189.97916517819016" y1="98.17113171792111" y2="98.06355123074" /><path d="M 185.9800911702706 98.14961562048488 a86.0,86.0 0 0,1 -9.607161424134198,41.387399972396054" fill="none" id="id16" stroke="none" /><text fill="#e1ed5e" style="font-size:6.75px; font-family:Arial;" text-anchor="middle"><textPath startOffset="21.466115282336823" xlink:href="#id16">April</textPath></text><path d="M 120.9764740272857 100.99374915477107 l 11.85710942525377 0.5617241703275255 a32.87040765795227,32.87040765795227 0 0,0 -0.03163956602770081,0.5649457056828414 l -11.845683508338539 -0.7657415923457903" fill="#ff730a" stroke="none" /><path d="M 120.92983693683757 101.71520430193887 l 9.49357972768969 0.778000747873642 a30.525405041765552,30.525405041765552 0 0,0 -0.04742398396635243,0.5233197112918523 l -9.478781147446263 -0.9413018477140649" fill="#ff5107" stroke="none" /><path d="M 120.32669344350535 105.2749913415812 l 9.260310584267325 2.4031482684642227 a30.567051464130213,30.567051464130213 0 0,0 -0.13655018563856905,0.5081540386770234 l -9.21757232228698 -2.562193240316794" fill="#ff5107" stroke="none" /><path d="M 119.79798401119884 107.00284435728193 l 9.319394212510929 3.296409732296582 a30.88521247173584,30.88521247173584 0 0,0 -0.1815987825694367,0.49968185605742693 l -9.261271168936265 -3.45633938536014" fill="#ff5608" stroke="none" /><path d="M 118.97047184881838 109.00673069616215 l 11.048235763353745 5.245440650145601 a33.23021508792256,33.23021508792256 0 0,0 -0.24977529683910293,0.5146110924877024 l -10.956307209899927 -5.434840698598579" fill="#ff780b" stroke="none" /><path d="M 118.64920377521936 109.65438752849418 l 13.089998208874219 6.776477804574795 a35.74003746753125,35.74003746753125 0 0,0 -0.28753284219465475,0.5439037778515223 l -12.971412858454672 -7.000796597512452" fill="#ff9b0e" stroke="none" /><line stroke="#e1ed5e" stroke-width="0.3" x1="174.80103733775053" x2="179.2010983576182" y1="140.37084112569926" y2="142.7455964860345" /><path d="M 175.68104954172406 140.8457921977663 a86.0,86.0 0 0,1 -30.038265399797805,32.042727171017184" fill="none" id="id17" stroke="none" /><text fill="#e1ed5e" style="font-size:6.75px; font-family:Arial;" text-anchor="middle"><textPath startOffset="22.206326154141568" xlink:href="#id17">May</textPath></text><path d="M 118.48025628344425 109.97397251340804 l 12.957426530282463 6.993248041333711 a35.72414413320128,35.72414413320128 0 0,0 -0.2967206423326075,0.5386341541703626 l -12.835129478498345 -7.2152527139018785" fill="#ff9b0e" stroke="none" /><path d="M 118.30583269289576 110.29060199501025 l 11.717034545365653 6.586716982010731 a34.441493188571,34.441493188571 0 0,0 -0.2949635142617101,0.5142937496638993 l -11.601919034951564 -6.7874305775329455" fill="#ff890c" stroke="none" /><path d="M 118.12598468904814 110.60418214915192 l 16.862089072672738 9.864769666824424 a40.535703941098426,40.535703941098426 0 0,0 -0.35752321842505574,0.5992294787774949 l -16.689784978549454 -10.153561239488024" fill="#ffdc14" stroke="none" /><line stroke="#e1ed5e" stroke-width="0.3" x1="143.8653032363475" x2="146.44561519142675" y1="172.8068346515853" y2="177.08958963109032" /><path d="M 144.38136562736335 173.6633856474863 a86.0,86.0 0 0,1 -40.68145358897372,12.25698825130547" fill="none" id="id18" stroke="none" /><text fill="#e1ed5e" style="font-size:6.75px; font-family:Arial;" text-anchor="middle"><textPath startOffset="21.466115282336833" xlink:href="#id18">June</textPath></text><path d="M 106.2309692047433 120.05430185196036 l 3.4325464218270367 11.047610701042085 a32.56858146618578,32.56858146618578 0 0,0 -0.5368000520204043,0.1617334522357758 l -3.241871395366387 -11.105059522383588" fill="#ff6e0a" stroke="none" /><path d="M 105.88484417918355 120.15858648285463 l 3.5154089337252294 12.042064811804677 a33.54469708295181,33.54469708295181 0 0,0 -0.5556740281205373,0.15703903082470727 l -3.307603737500086 -12.100792635967903" fill="#ff7c0b" stroke="none" /><path d="M 105.53697534728816 120.25689768951611 l 3.437859186462346 12.57732921733859 a34.03871489170856,34.03871489170856 0 0,0 -0.5665169604317498,0.14962227824255334 l -3.2208517832190986 -12.634642844884729" fill="#ff830c" stroke="none" /><path d="M 103.7750983002368 120.6578951692458 l 2.1296170201682076 11.653578702974908 a32.84656765645731,32.84656765645731 0 0,0 -0.5570637549742937,0.09685267428541806 l -1.9287042937218641 -11.688509955781331" fill="#ff720a" stroke="none" /><path d="M 101.98527174616119 120.90594882070398 l 1.3912493022584995 14.650582100962804 a35.7164917870424,35.7164917870424 0 0,0 -0.6125474984495657,0.052853175631681897 l -1.1388574860673921 -14.67235952887315" fill="#ff9b0e" stroke="none" /><path d="M 101.62511606390274 120.93702456842531 l 1.254709982550134 16.164933886514692 a37.2135555846243,37.2135555846243 0 0,0 -0.6390759022685109,0.04407441589642133 l -0.9762713195026927 -16.1841366469274" fill="#ffaf10" stroke="none" /><line stroke="#e1ed5e" stroke-width="0.3" x1="102.19456741930631" x2="102.32365962044197" y1="184.97166512339345" y2="189.96999836594603" /><path d="M 102.22038585953345 185.97133177190398 a86.0,86.0 0 0,1 -42.740103519485714,-10.115201625700543" fill="none" id="id19" stroke="none" /><text fill="#e1ed5e" style="font-size:6.75px; font-family:Arial;" text-anchor="middle"><textPath startOffset="22.20632615414155" xlink:href="#id19">July</textPath></text><path d="M 96.93821686468263 120.77559828337769 l -1.3058694169978833 8.86092097939671 a29.95662969745669,29.95662969745669 0 0,0 -0.5094968464329318,-0.07957292908095681 l 1.4582021270393322 -8.837129742968648" fill="#ff4806" stroke="none" /><path d="M 96.58105272829116 120.7198165907248 l -2.0501752166814438 12.424659139963035 a33.592671406947844,33.592671406947844 0 0,0 -0.5697173558374254,-0.09905266499023628 l 2.263741543990919 -12.387527896451793" fill="#ff7d0b" stroke="none" /><path d="M 93.42475214034765 119.94407469862007 l -2.4299161264082545 7.37043374955451 a28.760656289126008,28.760656289126008 0 0,0 -0.46884014992176964,-0.15905603410803842 l 2.5564260092672497 -7.327514728548349" fill="#ff3705" stroke="none" /><path d="M 93.08242187328487 119.8279376855182 l -4.963643143069455 14.22735025627616 a36.0683525498477,36.0683525498477 0 0,0 -0.5844454691916235,-0.20956135167831555 l 5.207808172890805 -14.139801363557888" fill="#ffa00e" stroke="none" /><path d="M 92.7421414339146 119.70592522655815 l -4.27762082134677 11.6142351473918 a33.37693410946873,33.37693410946873 0 0,0 -0.5374159696253925,-0.2032047348557704 l 4.476907011732445 -11.538882162429397" fill="#ff7a0b" stroke="none" /><path d="M 92.40401165467489 119.57807347666478 l -4.542113730588308 11.70694744569408 a33.55720572571151,33.55720572571151 0 0,0 -0.5367218166759038,-0.21357268753124545 l 4.742956623306069 -11.627027913756768" fill="#ff7c0b" stroke="none" /><path d="M 92.06813273071674 119.44442032107085 l -12.9419405988599 31.726266241127206 a55.26441004989442,55.26441004989442 0 0,0 -0.8777265726511936,-0.36688977855393295 l 13.486138631008556 -31.4987914195533" fill="#70ff27" stroke="none" /><path d="M 91.40352486487194 119.15986991738527 l -3.9962693703921817 8.906906620210309 a30.76233345168464,30.76233345168464 0 0,0 -0.48125766970251965,-0.22092179196231748 l 4.148995035862121 -8.836797757913917" fill="#ff5407" stroke="none" /><path d="M 91.07499286063937 119.00905698771935 l -8.213556665555622 17.493763790825817 a40.32600022424458,40.32600022424458 0 0,0 -0.625796791585748,-0.3004204895695597 l 8.513466125141612 -17.349789024756692" fill="#ffd914" stroke="none" /><line stroke="#e1ed5e" stroke-width="0.3" x1="58.666819895761336" x2="56.23545636021788" y1="174.27360380694188" y2="178.64263932499728" /><path d="M 58.180547188652646 175.14741091055294 a86.0,86.0 0 0,1 -31.652253787137756,-30.449443065178592" fill="none" id="id20" stroke="none" /><text fill="#e1ed5e" style="font-size:6.75px; font-family:Arial;" text-anchor="middle"><textPath startOffset="22.20632615414155" xlink:href="#id20">August</textPath></text><path d="M 88.54995079064634 117.60387380957326 l -8.094635750102029 12.44509466062811 a35.84599302973109,35.84599302973109 0 0,0 -0.5143478404118548,-0.3408817020944812 l 8.307658289253846 -12.303914937442311" fill="#ff9c0e" stroke="none" /><path d="M 87.95078237400918 117.19931262002967 l -6.975984306318858 9.957670169222515 a33.158106441425446,33.158106441425446 0 0,0 -0.4646440279042524,-0.3315111768455918 l 7.146355662071997 -9.836114730532703" fill="#ff770a" stroke="none" /><path d="M 87.07902340077011 116.55440617244103 l -7.453260343974417 9.549146544422504 a33.113516808999684,33.113516808999684 0 0,0 -0.44631108678881803,-0.3545765199221464 l 7.616528923480593 -9.419436110495226" fill="#ff760a" stroke="none" /><path d="M 86.51685102203217 116.09983520530335 l -9.291664201876344 11.094905402118624 a35.47176387046138,35.47176387046138 0 0,0 -0.4647384213081226,-0.39606016492351953 l 9.481268099761522 -10.933320846972153" fill="#ff970e" stroke="none" /><path d="M 85.70375840098266 115.38237550388516 l -21.41721281706916 23.044351028694475 a52.460119503672004,52.460119503672004 0 0,0 -0.6561615960566685,-0.620441744613399 l 21.810710247516646 -22.672274647335147" fill="#8fff24" stroke="none" /><path d="M 84.19399662182784 113.82643327865904 l -9.169500796502597 8.021097296267644 a33.182682245435686,33.182682245435686 0 0,0 -0.3723689344604595,-0.4331491959390483 l 9.306212240533835 -7.862071001167066" fill="#ff770b" stroke="none" /><path d="M 83.72743513129214 113.27417163493432 l -11.68956770263378 9.535640464481196 a36.085570328705174,36.085570328705174 0 0,0 -0.38849052783832494,-0.4847016666277115 l 11.851976142526967 -9.333010964275225" fill="#ffa00e" stroke="none" /><path d="M 82.85270091963577 112.12312394758628 l -9.873964223868663 6.980883203761659 a33.09247285706277,33.09247285706277 0 0,0 -0.3248405873579347,-0.46795709384494794 l 9.99266571838873 -6.809884847729698" fill="#ff760a" stroke="none" /><line stroke="#e1ed5e" stroke-width="0.3" x1="26.63291911575756" x2="22.317208475507996" y1="142.92168965132927" y2="145.44649492493687" /><path d="M 25.769776987707644 143.4266507060508 a86.0,86.0 0 0,1 -11.730757126820373,-40.83630448921669" fill="none" id="id21" stroke="none" /><text fill="#e1ed5e" style="font-size:6.75px; font-family:Arial;" text-anchor="middle"><textPath startOffset="21.46611528233685" xlink:href="#id21">September</textPath></text><path d="M 81.87401531095188 110.60418214915194 l -12.725668777145106 7.444854003664552 a35.74342215910153,35.74342215910153 0 0,0 -0.30611348219034745,-0.5337346585810793 l 12.851934255487832 -7.224699499225165" fill="#ff9b0e" stroke="none" /><path d="M 81.69416730710424 110.29060199501025 l -19.262251132905657 10.828251479300032 a43.09717965727954,43.09717965727954 0 0,0 -0.35796022944455985,-0.6498017930190633 l 19.445787771801736 -10.495079167883146" fill="#fffd17" stroke="none" /><path d="M 81.18737489456691 109.33194174019688 l -13.187698361591291 6.541715050820744 a35.72105376263711,35.72105376263711 0 0,0 -0.268497714605848,-0.5531848184841623 l 13.298349332811858 -6.313741276371297" fill="#ff9b0e" stroke="none" /><path d="M 80.32549172779594 107.34259656027581 l -6.899938619989942 2.5750816679280972 a28.364794535907166,28.364794535907166 0 0,0 -0.16677923651219573,-0.45890483004968147 l 6.943242117507362 -2.4559290408722987" fill="#ff3104" stroke="none" /><path d="M 80.20201598880116 107.00284435728193 l -10.246713684864744 3.6244165601987226 a31.86883327415768,31.86883327415768 0 0,0 -0.17847938096107033,-0.5187446254191996 l 10.307583896769042 -3.4474992316902258" fill="#ff6409" stroke="none" /><path d="M 80.0844068197444 106.66101706037122 l -13.985025922303043 4.6774653114800575 a35.746512529665694,35.746512529665694 0 0,0 -0.1901505927956378,-0.5852233490312524 l 14.06346876611493 -4.436043062471002" fill="#ff9b0e" stroke="none" /><path d="M 79.76711848015287 105.62410040840567 l -21.2661619579379 5.911319652395386 a43.07245669276624,43.07245669276624 0 0,0 -0.19241476281114253,-0.7160469124689826 l 21.364764797090817 -5.544381806750865" fill="#fffd17" stroke="none" /><path d="M 79.67330655649465 105.27499134158121 l -10.006707770306006 2.59684621076249 a31.338172500140153,31.338172500140153 0 0,0 -0.1310065226753354,-0.5233059361886374 l 10.0499256072764 -2.424212435176461" fill="#ff5d08" stroke="none" /><path d="M 79.50377843672027 104.57218783832718 l -30.506337097523957 6.805191046485206 a52.256155046437314,52.256155046437314 0 0,0 -0.1882862954358736,-0.8796108885410421 l 30.618957431684272 -6.279066338528" fill="#92ff23" stroke="none" /><path d="M 79.07016306316243 101.71520430193888 l -62.78951081051271 5.145612905816642 a84.0,84.0 0 0,0 -0.10569376534265862,-1.4421074540129575 l 62.86878113451971 -4.064032315306924" fill="#4dd2ff" stroke="none" /><line stroke="#e1ed5e" stroke-width="0.3" x1="15.007084014347285" x2="10.007500721073583" y1="101.09737516637583" y2="101.16192664675087" /><path d="M 14.007167355692545 101.11028546245083 a86.0,86.0 0 0,1 10.666146001902534,-42.60595125391555" fill="none" id="id22" stroke="none" /><text fill="#e1ed5e" style="font-size:6.75px; font-family:Arial;" text-anchor="middle"><textPath startOffset="22.20632615414155" xlink:href="#id22">October</textPath></text><path d="M 79.12142395522702 97.74499172005258 l -8.945369391858666 -0.9661521936444336 a29.99739315680302,29.99739315680302 0 0,0 0.059865721810198676,-0.5128929450895746 l 8.927413317044879 1.11998887705887" fill="#ff4906" stroke="none" /><path d="M 80.95270993114464 91.15688171328213 l -12.98300280131059 -6.027641153872475 a35.314007811186066,35.314007811186066 0 0,0 0.2607213120825135,-0.5491455754701094 l 12.877323295386326 6.250229144983116" fill="#ff950d" stroke="none" /><line stroke="#e1ed5e" stroke-width="0.3" x1="26.266209847984243" x2="21.928928074336255" y1="57.711370442889674" y2="55.22380399835377" /><path d="M 25.398753493254645 57.213857153982495 a86.0,86.0 0 0,1 29.58750427330803,-30.492523968695096" fill="none" id="id23" stroke="none" /><text fill="#e1ed5e" style="font-size:6.75px; font-family:Arial;" text-anchor="middle"><textPath startOffset="21.46611528233685" xlink:href="#id23">November</textPath></text><path d="M 82.95767976084542 87.72973835380427 l -9.686324825068985 -6.974035127011176 a32.93574692130884,32.93574692130884 0 0,0 0.3352190715177473,-0.4572384368234416 l 9.564843141037603 7.1397360075061185" fill="#ff740a" stroke="none" /><path d="M 86.37877921826538 84.01681056812374 l -2.6931011375917584 -3.160094556212675 a25.15198643320315,25.15198643320315 0 0,0 0.33193730811756955,-0.27798794954252304 l 2.6383062925150784 3.20598366314901" fill="#ff0000" stroke="none" /><path d="M 86.65592168130627 83.78471172551755 l -7.047047583122874 -8.56334212938869 a32.0901626707529,32.0901626707529 0 0,0 0.4295445555362368,-0.3473284910887723 l 6.8985996290221365 8.683376717741597" fill="#ff6709" stroke="none" /><path d="M 88.39885842347998 82.49532879139004 l -7.327918212100532 -11.05691177892534 a34.26475342440155,34.26475342440155 0 0,0 0.49444524480783014,-0.3216009411122763 l 7.136505941508415 11.181411644197151" fill="#ff860c" stroke="none" /><line stroke="#e1ed5e" stroke-width="0.3" x1="56.762969772571076" x2="54.21961505331055" y1="26.818313649435495" y2="22.513508569990535" /><path d="M 56.25429882871897 25.957352633546506 a86.0,86.0 0 0,1 42.265352541879196,-11.944610805530505" fill="none" id="id24" stroke="none" /><text fill="#e1ed5e" style="font-size:6.75px; font-family:Arial;" text-anchor="middle"><textPath startOffset="22.20632615414155" xlink:href="#id24">December</textPath></text><path d="M 90.58718382345135 81.22770947309562 l -3.0947229870905137 -6.171908377292245 a27.904329321847026,27.904329321847026 0 0,0 0.4312265066544207,-0.211600974019167 l 2.988025213425667 6.224264511446242" fill="#ff2a04" stroke="none" /><path d="M 90.91171255644093 81.06846463323043 l -10.724206356721899 -22.33926833670972 a45.7800627884813,45.7800627884813 0 0,0 0.7133444777363375,-0.3349247972023746 l 10.338083667685952 22.520558116552102" fill="#dfff1b" stroke="none" /><path d="M 95.33964822691252 79.52364482259891 l -1.695672907253249 -7.450339031083703 a28.640867639638966,28.640867639638966 0 0,0 0.48165384730926064,-0.10527087545728474 l 1.5671763357904673 7.478423404636857" fill="#ff3505" stroke="none" /></svg>