<?xml version="1.0" encoding="utf-8" ?>
<svg baseProfile="full" height="200mm" version="1.1" viewBox="0,0,200,200" width="200mm" xmlns="http://www.w3.org/2000/svg" xmlns:ev="http://www.w3.org/2001/xml-events" xmlns:xlink="http://www.w3.org/1999/xlink"><defs /><rect fill="#1a1a1a" height="200" width="200" x="0" y="0" /><text alignment-baseline="middle" fill="#e1ed5e" style="dominant-baseline: central; font-size:9.0px; font-family:Arial;" text-anchor="middle" x="100.0" y="100.0">2019</text><line stroke="#e1ed5e" stroke-width="0.3" x1="100.0" x2="100.0" y1="15.0" y2="10.0" /><path d="M 100.0 14.0 a86.0,86.0 0 0,1 42.46469731375804,11.215312516191453" fill="none" id="id61" stroke="none" /><text fill="#e1ed5e" style="font-size:6.75px; font-family:Arial;" text-anchor="middle"><textPath startOffset="22.20632615414155" xlink:href="#id61">January</textPath></text><line stroke="#e1ed5e" stroke-width="0.3" x1="143.23703022742887" x2="145.7803849466894" y1="26.81831364943548" y2="22.513508569990506" /><path d="M 143.74570117128098 25.957352633546492 a86.0,86.0 0 0,1 28.547481713284135,27.462654790039103" fill="none" id="id62" stroke="none" /><text fill="#e1ed5e" style="font-size:6.75px; font-family:Arial;" text-anchor="middle"><textPath startOffset="19.985693538727396" xlink:href="#id62">February</textPath></text><line stroke="#e1ed5e" stroke-width="0.3" x1="172.23445277983987" x2="176.4835382374775" y1="55.19839476539836" y2="52.563006222186495" /><path d="M 173.08426987136738 54.67131705675599 a86.0,86.0 0 0,1 12.851231095245387,41.99856678651699" fill="none" id="id63" stroke="none" /><text fill="#e1ed5e" style="font-size:6.75px; font-family:Arial;" text-anchor="middle"><textPath startOffset="22.20632615414155" xlink:href="#id63">March</textPath></text><path d="M 120.83666639777658 97.38593545837742 l 17.709258165738618 -2.221715458017661 a38.84807676914167,38.84807676914167 0 0,0 0.07752900875639074,0.6642212008570068 l -17.7448775274986 1.9165505188358016" fill="#ffb310" stroke="none" /><path d="M 120.87857604477298 97.74499172005257 l 17.87788963986753 -1.9309166046302555 a38.981862442731554,38.981862442731554 0 0,0 0.06631162727211189,0.667749037112587 l -17.90847839282187 1.6228920368132336" fill="#ffb510" stroke="none" /><path d="M 120.91429891909075 98.10471618934814 l 23.66644209792759 -2.144686978868233 a44.76342070939885,44.76342070939885 0 0,0 0.06293633821191046,0.7679827380842834 l -23.699852919958992 1.7369903235761806" fill="#fbff18" stroke="none" /><path d="M 120.98425023603335 99.18683210126433 l 35.966987316985566 -1.393769096890744 a56.993982399224016,56.993982399224016 0 0,0 0.02955085212153993,0.980648917046372 l -35.985649863562756 0.7744500324193728" fill="#66ff29" stroke="none" /><line stroke="#e1ed5e" stroke-width="0.3" x1="184.98032266829074" x2="189.97916517819016" y1="98.17113171792111" y2="98.06355123074" /><path d="M 185.9800911702706 98.14961562048488 a86.0,86.0 0 0,1 -9.607161424134198,41.387399972396054" fill="none" id="id64" stroke="none" /><text fill="#e1ed5e" style="font-size:6.75px; font-family:Arial;" text-anchor="middle"><textPath startOffset="21.466115282336823" xlink:href="#id64">April</textPath></text><path d="M 120.99980553446 99.90962569577887 l 20.755572309251438 -0.08932322744998161 a41.755764513106406,41.755764513106406 0 0,0 -0.0030933121919958823,0.7187768143736619 l -20.75403469976994 -0.267963065127365" fill="#ffdb14" stroke="none" /><path d="M 120.89721153311464 102.0752229133903 l 29.563310552104493 2.935820377574387 a50.70872552112517,50.70872552112517 0 0,0 -0.09373314374023584,0.867852498325092 l -29.508395106863205 -3.4442691977842705" fill="#b0ff20" stroke="none" /><path d="M 120.8583938346157 102.4346265915055 l 5.858955933100097 0.6838671292854739 a26.89873197191786,26.89873197191786 0 0,0 -0.05763820675761222,0.4594332185956642 l -5.846316217095636 -0.784618102168533" fill="#ff0000" stroke="none" /><path d="M 120.76222939487914 103.15116336523771 l 31.817163131594185 4.829013153606713 a53.18153566534983,53.18153566534983 0 0,0 -0.14515582498621055,0.9038854607511884 l -31.72932555224669 -5.375977844051106" fill="#92ff23" stroke="none" /><line stroke="#e1ed5e" stroke-width="0.3" x1="174.80103733775053" x2="179.2010983576182" y1="140.37084112569926" y2="142.7455964860345" /><path d="M 175.68104954172406 140.8457921977663 a86.0,86.0 0 0,1 -30.038265399797805,32.042727171017184" fill="none" id="id65" stroke="none" /><text fill="#e1ed5e" style="font-size:6.75px; font-family:Arial;" text-anchor="middle"><textPath startOffset="22.206326154141568" xlink:href="#id65">May</textPath></text><path d="M 111.45004920935366 117.60387380957326 l 16.226703271941975 24.947738784502615 a50.760637922185545,50.760637922185545 0 0,0 -0.7365566721236487,0.47010531712209924 l -15.794864797771394 -25.223358530448525" fill="#afff20" stroke="none" /><line stroke="#e1ed5e" stroke-width="0.3" x1="143.8653032363475" x2="146.44561519142675" y1="172.8068346515853" y2="177.08958963109032" /><path d="M 144.38136562736335 173.6633856474863 a86.0,86.0 0 0,1 -40.68145358897372,12.25698825130547" fill="none" id="id66" stroke="none" /><text fill="#e1ed5e" style="font-size:6.75px; font-family:Arial;" text-anchor="middle"><textPath startOffset="21.466115282336833" xlink:href="#id66">June</textPath></text><path d="M 110.8373102113329 117.98757091392108 l 15.339363308914368 25.459996983842025 a50.723854278005625,50.723854278005625 0 0,0 -0.7517568169804666,0.4441511782573084 l -14.89883862090552 -25.720266734393082" fill="#afff20" stroke="none" /><path d="M 110.5260780823613 118.17145234162733 l 18.056706652469988 31.171779442899382 a57.02394327069315,57.02394327069315 0 0,0 -0.8535974705789516,0.4846949213202585 l -17.517460414969836 -31.477977530014268" fill="#65ff29" stroke="none" /><line stroke="#e1ed5e" stroke-width="0.3" x1="102.19456741930631" x2="102.32365962044197" y1="184.97166512339345" y2="189.96999836594603" /><path d="M 102.22038585953345 185.97133177190398 a86.0,86.0 0 0,1 -42.740103519485714,-10.115201625700543" fill="none" id="id67" stroke="none" /><text fill="#e1ed5e" style="font-size:6.75px; font-family:Arial;" text-anchor="middle"><textPath startOffset="22.20632615414155" xlink:href="#id67">July</textPath></text><line stroke="#e1ed5e" stroke-width="0.3" x1="58.666819895761336" x2="56.23545636021788" y1="174.27360380694188" y2="178.64263932499728" /><path d="M 58.180547188652646 175.14741091055294 a86.0,86.0 0 0,1 -31.652253787137756,-30.449443065178592" fill="none" id="id68" stroke="none" /><text fill="#e1ed5e" style="font-size:6.75px; font-family:Arial;" text-anchor="middle"><textPath startOffset="22.20632615414155" xlink:href="#id68">August</textPath></text><line stroke="#e1ed5e" stroke-width="0.3" x1="26.63291911575756" x2="22.317208475507996" y1="142.92168965132927" y2="145.44649492493687" /><path d="M 25.769776987707644 143.4266507060508 a86.0,86.0 0 0,1 -11.730757126820373,-40.83630448921669" fill="none" id="id69" stroke="none" /><text fill="#e1ed5e" style="font-size:6.75px; font-family:Arial;" text-anchor="middle"><textPath startOffset="21.46611528233685" xlink:href="#id69">September</textPath></text><path d="M 80.87730276802145 108.67885076344099 l -18.08506150446888 8.207918994944906 a40.860498076533716,40.860498076533716 0 0,0 -0.2851652512112574,-0.6429723600536937 l 18.223667840411416 -7.895398298398516" fill="#ffcf13" stroke="none" /><path d="M 79.97269907076064 106.31721596034903 l -28.325574410695463 8.934742199437034 a50.701309463830825,50.701309463830825 0 0,0 -0.2553733876264221,-0.8345750065684719 l 28.475174570828017 -8.445840220316514" fill="#b0ff20" stroke="none" /><path d="M 79.76711848015287 105.62410040840567 l -23.63959510120581 6.5710589138190585 a45.53587723717729,45.53587723717729 0 0,0 -0.20341943995639933,-0.7569994099668658 l 23.749202617503983 -6.163168570676653" fill="#f1ff19" stroke="none" /><path d="M 79.67330655649465 105.27499134158121 l -30.851107752688034 8.006187859620413 a52.87302768190529,52.87302768190529 0 0,0 -0.22103112425883115,-0.8829094692769162 l 30.984350191241923 -7.473950550946105" fill="#95ff23" stroke="none" /><path d="M 79.58551787078972 104.9243191809786 l -30.444518987120727 7.343734112629449 a52.31771331170512,52.31771331170512 0 0,0 -0.20363906085267797,-0.8772717444239568 l 30.566418613903963 -6.818593710856918" fill="#9cff22" stroke="none" /><path d="M 79.50377843672027 104.57218783832718 l -23.33782280874985 5.206077095222722 a44.91144521299387,44.91144521299387 0 0,0 -0.16182227020551404,-0.7559797729924485 l 23.423979117679806 -4.80358350281411" fill="#f9ff18" stroke="none" /><path d="M 79.35854240842038 103.8639653848113 l -61.92437277473888 11.591896154433886 a84.0,84.0 0 0,0 -0.25381423064324515,-1.4235249970671453 l 62.11473344772131 -10.524252406633527" fill="#4dd2ff" stroke="none" /><line stroke="#e1ed5e" stroke-width="0.3" x1="15.007084014347285" x2="10.007500721073583" y1="101.09737516637583" y2="101.16192664675087" /><path d="M 14.007167355692545 101.11028546245083 a86.0,86.0 0 0,1 10.666146001902534,-42.60595125391555" fill="none" id="id70" stroke="none" /><text fill="#e1ed5e" style="font-size:6.75px; font-family:Arial;" text-anchor="middle"><textPath startOffset="22.20632615414155" xlink:href="#id70">October</textPath></text><line stroke="#e1ed5e" stroke-width="0.3" x1="26.266209847984243" x2="21.928928074336255" y1="57.711370442889674" y2="55.22380399835377" /><path d="M 25.398753493254645 57.213857153982495 a86.0,86.0 0 0,1 29.58750427330803,-30.492523968695096" fill="none" id="id71" stroke="none" /><text fill="#e1ed5e" style="font-size:6.75px; font-family:Arial;" text-anchor="middle"><textPath startOffset="21.46611528233685" xlink:href="#id71">November</textPath></text><line stroke="#e1ed5e" stroke-width="0.3" x1="56.762969772571076" x2="54.21961505331055" y1="26.818313649435495" y2="22.513508569990535" /><path d="M 56.25429882871897 25.957352633546506 a86.0,86.0 0 0,1 42.265352541879196,-11.944610805530505" fill="none" id="id72" stroke="none" /><text fill="#e1ed5e" style="font-size:6.75px; font-family:Arial;" text-anchor="middle"><textPath startOffset="22.20632615414155" xlink:href="#id72">December</textPath></text></svg>