<?xml version="1.0" encoding="utf-8" ?>
<svg baseProfile="full" height="200mm" version="1.1" viewBox="0,0,200,200" width="200mm" xmlns="http://www.w3.org/2000/svg" xmlns:ev="http://www.w3.org/2001/xml-events" xmlns:xlink="http://www.w3.org/1999/xlink"><defs /><rect fill="#1a1a1a" height="200" width="200" x="0" y="0" /><text alignment-baseline="middle" fill="#e1ed5e" style="dominant-baseline: central; font-size:9.0px; font-family:Arial;" text-anchor="middle" x="100.0" y="100.0">2018</text><line stroke="#e1ed5e" stroke-width="0.3" x1="100.0" x2="100.0" y1="15.0" y2="10.0" /><path d="M 100.0 14.0 a86.0,86.0 0 0,1 42.46469731375804,11.215312516191453" fill="none" id="id49" stroke="none" /><text fill="#e1ed5e" style="font-size:6.75px; font-family:Arial;" text-anchor="middle"><textPath startOffset="22.20632615414155" xlink:href="#id49">January</textPath></text><path d="M 101.80526077348638 79.07773832637324 l 1.6438492219746532 -19.05156533574955 a40.12235294117647,40.12235294117647 0 0,0 0.6875726983593452,0.06529331259688304 l -1.9715470474242425 19.02044647863749" fill="#ff4f07" stroke="none" /><line stroke="#e1ed5e" stroke-width="0.3" x1="143.23703022742887" x2="145.7803849466894" y1="26.81831364943548" y2="22.513508569990506" /><path d="M 143.74570117128098 25.957352633546492 a86.0,86.0 0 0,1 28.547481713284135,27.462654790039103" fill="none" id="id50" stroke="none" /><text fill="#e1ed5e" style="font-size:6.75px; font-family:Arial;" text-anchor="middle"><textPath startOffset="19.985693538727396" xlink:href="#id50">February</textPath></text><line stroke="#e1ed5e" stroke-width="0.3" x1="172.23445277983987" x2="176.4835382374775" y1="55.19839476539836" y2="52.563006222186495" /><path d="M 173.08426987136738 54.67131705675599 a86.0,86.0 0 0,1 12.851231095245387,41.99856678651699" fill="none" id="id51" stroke="none" /><text fill="#e1ed5e" style="font-size:6.75px; font-family:Arial;" text-anchor="middle"><textPath startOffset="22.20632615414155" xlink:href="#id51">March</textPath></text><path d="M 120.83666639777658 97.38593545837742 l 17.67047365432149 -2.2168497460979038 a38.808988235294116,38.808988235294116 0 0,0 0.07745099986804987,0.6635528683409274 l -17.70601500719313 1.9123531394321234" fill="#ff3705" stroke="none" /><path d="M 120.87857604477298 97.74499172005257 l 20.84222275942444 -2.2510819125894033 a41.963435294117645,41.963435294117645 0 0,0 0.07138354880731876,0.7188225948092978 l -20.877883433913986 1.8919837870756704" fill="#ff6f0a" stroke="none" /><path d="M 120.96714384426684 98.82574320788733 l 23.766380883616737 -1.3310269812526045 a44.803623529411766,44.803623529411766 0 0,0 0.036496587459669196,0.770385278072144 l -23.785771079309903 0.9217305965574608" fill="#ffa00e" stroke="none" /><line stroke="#e1ed5e" stroke-width="0.3" x1="184.98032266829074" x2="189.97916517819016" y1="98.17113171792111" y2="98.06355123074" /><path d="M 185.9800911702706 98.14961562048488 a86.0,86.0 0 0,1 -9.607161424134198,41.387399972396054" fill="none" id="id52" stroke="none" /><text fill="#e1ed5e" style="font-size:6.75px; font-family:Arial;" text-anchor="middle"><textPath startOffset="21.466115282336823" xlink:href="#id52">April</textPath></text><path d="M 120.99980553446 99.90962569577887 l 26.776975565257786 -0.11523680692591717 a47.77722352941176,47.77722352941176 0 0,0 -0.003539388387844109,0.822429212553631 l -26.774991879580437 -0.3457018838313985" fill="#ffd113" stroke="none" /><path d="M 119.41010516605496 108.01547362559984 l 17.737639163276295 7.324822698142268 a40.19054117647059,40.19054117647059 0 0,0 -0.26956182333599943,0.6371645230909552 l -17.60892635874799 -7.629061746899387" fill="#ff5007" stroke="none" /><line stroke="#e1ed5e" stroke-width="0.3" x1="174.80103733775053" x2="179.2010983576182" y1="140.37084112569926" y2="142.7455964860345" /><path d="M 175.68104954172406 140.8457921977663 a86.0,86.0 0 0,1 -30.038265399797805,32.042727171017184" fill="none" id="id53" stroke="none" /><text fill="#e1ed5e" style="font-size:6.75px; font-family:Arial;" text-anchor="middle"><textPath startOffset="22.206326154141568" xlink:href="#id53">May</textPath></text><path d="M 118.30583269289576 110.29060199501025 l 20.814377860035172 11.70077766604412 a44.87774117647059,44.87774117647059 0 0,0 -0.38434153179896635,0.6701318569356327 l -20.609884332083823 -12.057329368838069" fill="#ffa10e" stroke="none" /><path d="M 117.94076556474637 110.91462005526583 l 17.853805618714887 10.861716249821475 a41.89821176470588,41.89821176470588 0 0,0 -0.3801471845645824,0.612918303016781 l -17.66419379448234 -11.167430884203528" fill="#ff6e0a" stroke="none" /><path d="M 117.75023020441432 111.22182372390056 l 30.419300393136783 19.231301390742892 a56.988564705882354,56.988564705882354 0 0,0 -0.5313373244063894,0.82464732693315 l -30.083758205353348 -19.752070317597497" fill="#a0ff22" stroke="none" /><path d="M 117.35343817320211 111.8261652097733 l 19.876015609297223 13.545272237208101 a45.05265882352941,45.05265882352941 0 0,0 -0.4422435342769587,0.6370847952073395 l -19.639911167858127 -13.88539829460246" fill="#ffa40f" stroke="none" /><path d="M 116.93607887273984 112.41649034213515 l 19.333430649172847 14.17408106915361 a44.97261176470588,44.97261176470588 0 0,0 -0.46308669530540003,0.6203803049077691 l -19.086582687172356 -14.504774253570694" fill="#ffa30f" stroke="none" /><path d="M 116.27256486870786 113.27417163493432 l 28.05466760141087 22.885296565527238 a57.20498823529412,57.20498823529412 0 0,0 -0.6289933623605811,0.7576630245041074 l -27.656578239156744 -23.36482084714512" fill="#9dff22" stroke="none" /><path d="M 115.80600337817218 113.82643327865902 l 22.432623806225635 19.62312476475659 a50.80418823529412,50.80418823529412 0 0,0 -0.5814446211025213,0.6532591956607904 l -22.091520335474776 -20.006358130158247" fill="#fcff18" stroke="none" /><path d="M 115.07121518719521 114.62390073753431 l 23.468541672672433 22.77199413670638 a53.70070588235294,53.70070588235294 0 0,0 -0.6494189380932798,0.6578579556277968 l -23.073082109523618 -23.17259258631484" fill="#d0ff1d" stroke="none" /><path d="M 113.20401910651253 116.32954008644616 l 11.389631539876454 14.085669166332147 a39.11435294117647,39.11435294117647 0 0,0 -0.5271916441528115,0.4188329262906877 l -11.145482403006291 -14.27963600662796" fill="#ff3d05" stroke="none" /><path d="M 112.92097659922987 116.55440617244103 l 18.43838561859044 23.623332365793033 a50.96724705882353,50.96724705882353 0 0,0 -0.6962399509024261,0.5338471051574186 l -18.029016939194523 -23.937218812777825" fill="#faff18" stroke="none" /><line stroke="#e1ed5e" stroke-width="0.3" x1="143.8653032363475" x2="146.44561519142675" y1="172.8068346515853" y2="177.08958963109032" /><path d="M 144.38136562736335 173.6633856474863 a86.0,86.0 0 0,1 -40.68145358897372,12.25698825130547" fill="none" id="id54" stroke="none" /><text fill="#e1ed5e" style="font-size:6.75px; font-family:Arial;" text-anchor="middle"><textPath startOffset="21.466115282336833" xlink:href="#id54">June</textPath></text><line stroke="#e1ed5e" stroke-width="0.3" x1="102.19456741930631" x2="102.32365962044197" y1="184.97166512339345" y2="189.96999836594603" /><path d="M 102.22038585953345 185.97133177190398 a86.0,86.0 0 0,1 -42.740103519485714,-10.115201625700543" fill="none" id="id55" stroke="none" /><text fill="#e1ed5e" style="font-size:6.75px; font-family:Arial;" text-anchor="middle"><textPath startOffset="22.20632615414155" xlink:href="#id55">July</textPath></text><path d="M 99.09653310690486 120.98055641714683 l -0.6382515293714918 14.821652373374505 a35.83538823529412,35.83538823529412 0 0,0 -0.6160477488560031,-0.03184263186771929 l 0.8932873466409837 -14.808469934744583" fill="#ff0000" stroke="none" /><path d="M 98.73552117531835 120.96189622390904 l -1.4347223031481988 23.78410728727862 a44.82734117647059,44.82734117647059 0 0,0 -0.7698289792144449,-0.053091913618672416 l 1.8439140431415737 -23.755887029143665" fill="#ffa10e" stroke="none" /><path d="M 98.01472825383883 120.90594882070398 l -2.8117053398807887 29.608726386254443 a50.7419294117647,50.7419294117647 0 0,0 -0.8688163715147861,-0.09005636928331807 l 3.320954308001168 -29.555940648515364" fill="#fdff18" stroke="none" /><path d="M 97.65516085044442 120.86867818915974 l -2.6314060799742114 23.41907617773611 a44.56644705882353,44.56644705882353 0 0,0 -0.7616036048306586,-0.09221959016813903 l 3.034137107856259 -23.37031105884262" fill="#ff9c0e" stroke="none" /><path d="M 96.93821686468263 120.77559828337769 l -5.410927240645094 36.7156149615984 a58.11218823529412,58.11218823529412 0 0,0 -0.988361405946577,-0.15436172492991965 l 6.042124510200188 -36.61703492932137" fill="#90ff24" stroke="none" /><path d="M 95.86986931433489 120.58985236759428 l -11.68778394270451 58.266859864719144 a80.42752941176471,80.42752941176471 0 0,0 -1.3550450781914993,-0.2839628709915504 l 12.689020482325397 -58.05704101300105" fill="#47fdff" stroke="none" /><path d="M 93.08242187328487 119.8279376855182 l -10.127334377510943 29.02810077159863 a51.744,51.744 0 0,0 -0.8384510026083536,-0.30063869887754396 l 10.625504940749025 -28.84947453168113" fill="#eeff19" stroke="none" /><path d="M 92.40401165467489 119.57807347666478 l -10.743050999077695 27.689384483185098 a50.700423529411765,50.700423529411765 0 0,0 -0.8109144618705182,-0.3226795997454664 l 11.218086536990072 -27.500358039033564" fill="#feff18" stroke="none" /><path d="M 91.7346041902142 119.30500536409082 l -11.718969898966412 27.371317958338466 a50.77454117647059,50.77454117647059 0 0,0 -0.8004952779651675,-0.35091360547220424 l 12.188385851589324 -27.16553979957181" fill="#fdff18" stroke="none" /><path d="M 91.07499286063937 119.00905698771935 l -18.961755168033623 40.38597156821484 a65.61585882352941,65.61585882352941 0 0,0 -1.0182560556606084,-0.48882478603569673 l 19.65412389169447 -40.05359250567958" fill="#30ff32" stroke="none" /><line stroke="#e1ed5e" stroke-width="0.3" x1="58.666819895761336" x2="56.23545636021788" y1="174.27360380694188" y2="178.64263932499728" /><path d="M 58.180547188652646 175.14741091055294 a86.0,86.0 0 0,1 -31.652253787137756,-30.449443065178592" fill="none" id="id56" stroke="none" /><text fill="#e1ed5e" style="font-size:6.75px; font-family:Arial;" text-anchor="middle"><textPath startOffset="22.20632615414155" xlink:href="#id56">August</textPath></text><path d="M 87.36589467227662 116.77436683061367 l -14.352938198426816 19.056470101545624 a44.85698823529412,44.85698823529412 0 0,0 -0.6127705357624538,-0.4698463169465409 l 14.678837462682758 -18.806584442771715" fill="#ffa10e" stroke="none" /><path d="M 85.70375840098266 115.38237550388516 l -22.316264944988426 24.011707192441165 a53.78075294117647,53.78075294117647 0 0,0 -0.6726798379584695,-0.6360607733482272 l 22.72628061733771 -23.624011782347008" fill="#cfff1d" stroke="none" /><path d="M 85.18274418774928 114.88116024355367 l -25.15447074950329 25.262957919350512 a56.650588235294116,56.650588235294116 0 0,0 -0.6850927608796026,-0.6939953497674602 l 25.585604135438427 -24.826222075602388" fill="#a5ff21" stroke="none" /><path d="M 82.24976979558568 111.22182372390057 l -25.099243161517244 15.867922788506547 a50.694494117647054,50.694494117647054 0 0,0 -0.4599568430265034,-0.7415968844058671 l 25.3686646442117 -15.433529572735416" fill="#feff18" stroke="none" /><line stroke="#e1ed5e" stroke-width="0.3" x1="26.63291911575756" x2="22.317208475507996" y1="142.92168965132927" y2="145.44649492493687" /><path d="M 25.769776987707644 143.4266507060508 a86.0,86.0 0 0,1 -11.730757126820373,-40.83630448921669" fill="none" id="id57" stroke="none" /><text fill="#e1ed5e" style="font-size:6.75px; font-family:Arial;" text-anchor="middle"><textPath startOffset="21.46611528233685" xlink:href="#id57">September</textPath></text><path d="M 80.58989483394504 108.01547362559985 l -58.23031549816486 24.046420876799544 a84.0,84.0 0 0,0 -0.5403895429704488,-1.3412025286287785 l 58.6356076553927 -23.04051898032796" fill="#4dd2ff" stroke="none" /><line stroke="#e1ed5e" stroke-width="0.3" x1="15.007084014347285" x2="10.007500721073583" y1="101.09737516637583" y2="101.16192664675087" /><path d="M 14.007167355692545 101.11028546245083 a86.0,86.0 0 0,1 10.666146001902534,-42.60595125391555" fill="none" id="id58" stroke="none" /><text fill="#e1ed5e" style="font-size:6.75px; font-family:Arial;" text-anchor="middle"><textPath startOffset="22.20632615414155" xlink:href="#id58">October</textPath></text><line stroke="#e1ed5e" stroke-width="0.3" x1="26.266209847984257" x2="21.92892807433627" y1="57.711370442889674" y2="55.22380399835377" /><path d="M 25.39875349325466 57.213857153982495 a86.0,86.0 0 0,1 29.58750427330802,-30.492523968695096" fill="none" id="id59" stroke="none" /><text fill="#e1ed5e" style="font-size:6.75px; font-family:Arial;" text-anchor="middle"><textPath startOffset="21.46611528233685" xlink:href="#id59">November</textPath></text><line stroke="#e1ed5e" stroke-width="0.3" x1="56.762969772571076" x2="54.21961505331055" y1="26.818313649435495" y2="22.513508569990535" /><path d="M 56.25429882871897 25.957352633546506 a86.0,86.0 0 0,1 42.265352541879196,-11.944610805530505" fill="none" id="id60" stroke="none" /><text fill="#e1ed5e" style="font-size:6.75px; font-family:Arial;" text-anchor="middle"><textPath startOffset="22.20632615414155" xlink:href="#id60">December</textPath></text></svg>