<?xml version="1.0" encoding="utf-8" ?>
<svg baseProfile="full" height="200mm" version="1.1" viewBox="0,0,200,200" width="200mm" xmlns="http://www.w3.org/2000/svg" xmlns:ev="http://www.w3.org/2001/xml-events" xmlns:xlink="http://www.w3.org/1999/xlink"><defs /><rect fill="#1a1a1a" height="200" width="200" x="0" y="0" /><text alignment-baseline="middle" fill="#e1ed5e" style="dominant-baseline: central; font-size:9.0px; font-family:Arial;" text-anchor="middle" x="100.0" y="100.0">2017</text><line stroke="#e1ed5e" stroke-width="0.3" x1="100.0" x2="100.0" y1="15.0" y2="10.0" /><path d="M 100.0 14.0 a86.0,86.0 0 0,1 42.46469731375804,11.215312516191453" fill="none" id="id37" stroke="none" /><text fill="#e1ed5e" style="font-size:6.75px; font-family:Arial;" text-anchor="middle"><textPath startOffset="22.20632615414155" xlink:href="#id37">January</textPath></text><line stroke="#e1ed5e" stroke-width="0.3" x1="143.23703022742887" x2="145.7803849466894" y1="26.81831364943548" y2="22.513508569990506" /><path d="M 143.74570117128098 25.957352633546492 a86.0,86.0 0 0,1 28.547481713284135,27.462654790039103" fill="none" id="id38" stroke="none" /><text fill="#e1ed5e" style="font-size:6.75px; font-family:Arial;" text-anchor="middle"><textPath startOffset="19.985693538727396" xlink:href="#id38">February</textPath></text><path d="M 113.89432698308785 84.25364557470405 l 12.074449140526463 -13.683898175734878 a39.249421671139075,39.249421671139075 0 0,0 0.5027458653689642,0.4513702018481903 l -12.308205993491416 13.474028965117393" fill="#ff4006" stroke="none" /><path d="M 115.19652480421416 85.50635884689758 l 12.708299520503886 -12.120503555210798 a38.56153419080226,38.56153419080226 0 0,0 0.4539843508056953,0.4842788522960528 l -12.915051193280044 11.89995528603669" fill="#ff3404" stroke="none" /><line stroke="#e1ed5e" stroke-width="0.3" x1="172.23445277983987" x2="176.4835382374775" y1="55.19839476539836" y2="52.563006222186495" /><path d="M 173.08426987136738 54.67131705675599 a86.0,86.0 0 0,1 12.851231095245387,41.99856678651699" fill="none" id="id39" stroke="none" /><text fill="#e1ed5e" style="font-size:6.75px; font-family:Arial;" text-anchor="middle"><textPath startOffset="22.20632615414155" xlink:href="#id39">March</textPath></text><path d="M 118.3937258080291 89.86733742301442 l 15.371790009735802 -8.467950593508405 a38.54987508096604,38.54987508096604 0 0,0 0.3151762536924665,0.583973731114925 l -15.515274362646732 8.20209587906102" fill="#ff3404" stroke="none" /><path d="M 119.04729006885535 91.15688171328212 l 21.197534714363222 -9.841416085348012 a44.37068566669751,44.37068566669751 0 0,0 0.3156608396834399,0.6955168178125603 l -21.36379787101001 9.47507725869339" fill="#ff9a0e" stroke="none" /><path d="M 119.196687751892 91.48605970444005 l 26.684763741352608 -11.83498363005915 a50.191496252428976,50.191496252428976 0 0,0 0.34347544277953895,0.7927886781623339 l -26.88452989397483 11.373895807310214" fill="#fff917" stroke="none" /><line stroke="#e1ed5e" stroke-width="0.3" x1="184.98032266829074" x2="189.97916517819016" y1="98.17113171792111" y2="98.06355123074" /><path d="M 185.9800911702706 98.14961562048488 a86.0,86.0 0 0,1 -9.607161424134198,41.387399972396054" fill="none" id="id40" stroke="none" /><text fill="#e1ed5e" style="font-size:6.75px; font-family:Arial;" text-anchor="middle"><textPath startOffset="21.466115282336823" xlink:href="#id40">April</textPath></text><path d="M 118.64920377521936 109.65438752849418 l 15.771666318461865 8.164733489097124 a38.759739058017956,38.759739058017956 0 0,0 -0.31182669979570377,0.5898586010534304 l -15.628787110441268 -8.435007105236688" fill="#ff3805" stroke="none" /><line stroke="#e1ed5e" stroke-width="0.3" x1="174.80103733775053" x2="179.2010983576182" y1="140.37084112569926" y2="142.7455964860345" /><path d="M 175.68104954172406 140.8457921977663 a86.0,86.0 0 0,1 -30.038265399797805,32.042727171017184" fill="none" id="id41" stroke="none" /><text fill="#e1ed5e" style="font-size:6.75px; font-family:Arial;" text-anchor="middle"><textPath startOffset="22.206326154141568" xlink:href="#id41">May</textPath></text><path d="M 117.14729908036423 112.12312394758627 l 12.040555109775518 8.512660875012347 a35.74585916535579,35.74585916535579 0 0,0 -0.35953560926756717,0.49936351539962215 l -11.892239708132347 -8.7186579958631" fill="#ff0000" stroke="none" /><path d="M 116.93607887273984 112.41649034213515 l 14.120712379274762 10.35243696010074 a38.50906819653928,38.50906819653928 0 0,0 -0.39653105369390335,0.531218146601661 l -13.940420058885765 -10.593967986211716" fill="#ff3304" stroke="none" /><line stroke="#e1ed5e" stroke-width="0.3" x1="143.8653032363475" x2="146.44561519142675" y1="172.8068346515853" y2="177.08958963109032" /><path d="M 144.38136562736335 173.6633856474863 a86.0,86.0 0 0,1 -40.68145358897372,12.25698825130547" fill="none" id="id42" stroke="none" /><text fill="#e1ed5e" style="font-size:6.75px; font-family:Arial;" text-anchor="middle"><textPath startOffset="21.466115282336833" xlink:href="#id42">June</textPath></text><path d="M 107.59598834532513 119.57807347666477 l 6.371225720014771 16.4213423733902 a38.61400018506524,38.61400018506524 0 0,0 -0.6217401599113722,0.23508892828778424 l -6.087615339343125 -16.528579551784613" fill="#ff3505" stroke="none" /><path d="M 107.2578585660854 119.70592522655815 l 6.222604658468059 16.895091161901963 a39.004580364578516,39.004580364578516 0 0,0 -0.6320236068529331,0.22662117909460539 l -5.930861490985391 -16.99969988203653" fill="#ff3c05" stroke="none" /><path d="M 106.91757812671514 119.82793768551818 l 5.886694479720159 16.873103444514477 a38.87050060146201,38.87050060146201 0 0,0 -0.6336451834172462,0.21496684941088143 l -5.595379563365686 -16.97193328082348" fill="#ff3a05" stroke="none" /><path d="M 106.57524785965236 119.94407469862006 l 7.3193515084313825 22.20109360825385 a44.37651522161562,44.37651522161562 0 0,0 -0.7275184271452017,0.23292842609718525 l -6.936111736195241 -22.32379488101074" fill="#ff9a0e" stroke="none" /><line stroke="#e1ed5e" stroke-width="0.3" x1="102.19456741930631" x2="102.32365962044197" y1="184.97166512339345" y2="189.96999836594603" /><path d="M 102.22038585953345 185.97133177190398 a86.0,86.0 0 0,1 -42.740103519485714,-10.115201625700543" fill="none" id="id43" stroke="none" /><text fill="#e1ed5e" style="font-size:6.75px; font-family:Arial;" text-anchor="middle"><textPath startOffset="22.20632615414155" xlink:href="#id43">July</textPath></text><path d="M 92.06813273071674 119.44442032107085 l -6.634232279730859 16.263358497470108 a38.56444896826132,38.56444896826132 0 0,0 -0.6124925895080378,-0.25602195208898054 l 6.913196328736358 -16.146751502361152" fill="#ff3404" stroke="none" /><path d="M 90.42595943632237 118.69057910512821 l -7.037677268238651 13.739054354690342 a36.43666142315166,36.43666142315166 0 0,0 -0.5557616254951125,-0.2907482155424832 l 7.2731297962602595 -13.615876720203142" fill="#ff0d01" stroke="none" /><line stroke="#e1ed5e" stroke-width="0.3" x1="58.666819895761336" x2="56.23545636021788" y1="174.27360380694188" y2="178.64263932499728" /><path d="M 58.180547188652646 175.14741091055294 a86.0,86.0 0 0,1 -31.652253787137756,-30.449443065178592" fill="none" id="id44" stroke="none" /><text fill="#e1ed5e" style="font-size:6.75px; font-family:Arial;" text-anchor="middle"><textPath startOffset="22.20632615414155" xlink:href="#id44">August</textPath></text><path d="M 87.36589467227662 116.77436683061367 l -10.565441556333855 14.027791267851489 a38.56153419080226,38.56153419080226 0 0,0 -0.52677125450273,-0.403905735274065 l 10.805341539330072 -13.843846190750057" fill="#ff3404" stroke="none" /><path d="M 83.95833913139862 113.55231037782056 l -13.533063952904495 11.432998400535771 a38.71601739613214,38.71601739613214 0 0,0 -0.4256992040456353,-0.5127821146724737 l 13.727859156843666 -11.198355028749537" fill="#ff3705" stroke="none" /><path d="M 83.72743513129214 113.27417163493432 l -18.134416118838068 14.792956980228697 a44.40274821874711,44.40274821874711 0 0,0 -0.4780317156093643,-0.5964180659590985 l 18.386365746502292 -14.478611080691339" fill="#ff9b0e" stroke="none" /><path d="M 83.50135304334701 112.99209946851258 l -12.038501024954861 9.47989269537855 a36.322985102248545,36.322985102248545 0 0,0 -0.38259031823366857,-0.49454956001092115 l 12.199898160406597 -9.271265141254377" fill="#ff0b01" stroke="none" /><path d="M 82.24976979558568 111.22182372390057 l -12.754641681537835 8.063576582580719 a36.089802905524195,36.089802905524195 0 0,0 -0.32744683813888115,-0.5279485644229324 l 12.891553159344673 -7.842831686792522" fill="#ff0601" stroke="none" /><line stroke="#e1ed5e" stroke-width="0.3" x1="26.63291911575756" x2="22.317208475507996" y1="142.92168965132927" y2="145.44649492493687" /><path d="M 25.769776987707644 143.4266507060508 a86.0,86.0 0 0,1 -11.730757126820373,-40.83630448921669" fill="none" id="id45" stroke="none" /><text fill="#e1ed5e" style="font-size:6.75px; font-family:Arial;" text-anchor="middle"><textPath startOffset="21.46611528233685" xlink:href="#id45">September</textPath></text><path d="M 81.69416730710424 110.29060199501025 l -35.78758954558666 20.117950740221985 a62.05464051078005,62.05464051078005 0 0,0 -0.515418724194547,-0.9356346979017984 l 36.12858467923273 -19.498945523922362" fill="#5aff2a" stroke="none" /><path d="M 79.18660465613746 102.79330883721812 l -62.440186031587636 8.379926511654372 a84.0,84.0 0 0,0 -0.1799939630126075,-1.4347289828503655 l 62.5751815038471 -7.303879774516597" fill="#4dd2ff" stroke="none" /><line stroke="#e1ed5e" stroke-width="0.3" x1="15.007084014347285" x2="10.007500721073583" y1="101.09737516637583" y2="101.16192664675087" /><path d="M 14.007167355692545 101.11028546245083 a86.0,86.0 0 0,1 10.666146001902534,-42.60595125391555" fill="none" id="id46" stroke="none" /><text fill="#e1ed5e" style="font-size:6.75px; font-family:Arial;" text-anchor="middle"><textPath startOffset="22.20632615414155" xlink:href="#id46">October</textPath></text><line stroke="#e1ed5e" stroke-width="0.3" x1="26.266209847984257" x2="21.92892807433627" y1="57.711370442889674" y2="55.22380399835377" /><path d="M 25.39875349325466 57.213857153982495 a86.0,86.0 0 0,1 29.58750427330802,-30.492523968695096" fill="none" id="id47" stroke="none" /><text fill="#e1ed5e" style="font-size:6.75px; font-family:Arial;" text-anchor="middle"><textPath startOffset="21.46611528233685" xlink:href="#id47">November</textPath></text><line stroke="#e1ed5e" stroke-width="0.3" x1="56.762969772571076" x2="54.21961505331055" y1="26.818313649435495" y2="22.513508569990535" /><path d="M 56.25429882871897 25.957352633546506 a86.0,86.0 0 0,1 42.265352541879196,-11.944610805530505" fill="none" id="id48" stroke="none" /><text fill="#e1ed5e" style="font-size:6.75px; font-family:Arial;" text-anchor="middle"><textPath startOffset="22.20632615414155" xlink:href="#id48">December</textPath></text></svg>