<?xml version="1.0" encoding="utf-8" ?>
<svg baseProfile="full" height="200mm" version="1.1" viewBox="0,0,200,200" width="200mm" xmlns="http://www.w3.org/2000/svg" xmlns:ev="http://www.w3.org/2001/xml-events" xmlns:xlink="http://www.w3.org/1999/xlink"><defs /><rect fill="#1a1a1a" height="200" width="200" x="0" y="0" /><text alignment-baseline="middle" fill="#e1ed5e" style="dominant-baseline: central; font-size:9.0px; font-family:Arial;" text-anchor="middle" x="100.0" y="100.0">2014</text><line stroke="#e1ed5e" stroke-width="0.3" x1="100.0" x2="100.0" y1="15.0" y2="10.0" /><path d="M 100.0 14.0 a86.0,86.0 0 0,1 42.46469731375804,11.215312516191453" fill="none" id="id1" stroke="none" /><text fill="#e1ed5e" style="font-size:6.75px; font-family:Arial;" text-anchor="middle"><textPath startOffset="22.20632615414155" xlink:href="#id1">January</textPath></text><path d="M 103.59715602781102 79.31037775812273 l 2.080194661849915 -11.964574627983117 a33.14406257641018,33.14406257641018 0 0,0 0.5612471599353437,0.10256433107661983 l -2.2858369428881593 11.926994815555759" fill="#ff910d" stroke="none" /><path d="M 103.95276090670814 79.375362276772 l 2.32439470663713 -12.128180753058517 a33.34891003818158,33.34891003818158 0 0,0 0.5628559011995488,0.1129035987072279 l -2.532817017303804 12.086373198274082" fill="#ff930d" stroke="none" /><path d="M 104.66035177308747 79.52364482259891 l 2.737333220717028 -12.02711940973668 a33.33469069159441,33.33469069159441 0 0,0 0.5583978375111318,0.13215472702833186 l -2.943954745190683 11.978218770567478" fill="#ff930d" stroke="none" /><path d="M 105.01212808612495 79.60689891045804 l 2.9794832830517324 -12.122775544000648 a33.48354947617884,33.48354947617884 0 0,0 0.5585233217514587,0.14238003075496403 l -3.187715493488216 12.069692517076815" fill="#ff950d" stroke="none" /><path d="M 108.09893153111575 80.62456947434976 l 4.403042842507128 -10.533593273223483 a32.41680224575394,32.41680224575394 0 0,0 0.5129823765125437,0.21963228216489206 l -4.583708976809987 10.4562414630958" fill="#ff870c" stroke="none" /><path d="M 108.76106565485865 80.91482961587045 l 2.4712641605867405 -5.3834201713617675 a26.92354279910471,26.92354279910471 0 0,0 0.4195223729940415,0.19697137930157504 l -2.56356474488038 5.3400838094201895" fill="#ff3a05" stroke="none" /><line stroke="#e1ed5e" stroke-width="0.3" x1="143.23703022742887" x2="145.7803849466894" y1="26.81831364943548" y2="22.513508569990506" /><path d="M 143.74570117128098 25.957352633546492 a86.0,86.0 0 0,1 28.547481713284135,27.462654790039103" fill="none" id="id2" stroke="none" /><text fill="#e1ed5e" style="font-size:6.75px; font-family:Arial;" text-anchor="middle"><textPath startOffset="19.985693538727396" xlink:href="#id2">February</textPath></text><path d="M 116.82858285166822 87.43820079747576 l 6.000446815461539 -4.47907044138193 a28.487819041886887,28.487819041886887 0 0,0 0.2899481912951176,0.3954890070762092 l -6.076657619270284 4.375118990634228" fill="#ff5007" stroke="none" /><path d="M 117.2510076193507 88.02491185347247 l 6.508550759164674 -4.518024150642582 a28.922990294731697,28.922990294731697 0 0,0 0.2803815811289545,0.41142537303681437 l -6.585356805962362 4.405320754335361" fill="#ff5608" stroke="none" /><path d="M 117.45458315368197 88.32363383020206 l 6.929822759918775 -4.635753677081809 a29.337425000470216,29.337425000470216 0 0,0 0.27717351571561055,0.4221542802167561 l -7.00859291099231 4.515781332887378" fill="#ff5c08" stroke="none" /><path d="M 117.65298651832404 88.62581576622439 l 5.0378347060999475 -3.2459810710788304 a26.993010231910773,26.993010231910773 0 0,0 0.24830022243122463,0.3927513224588018 l -5.092962524777128 3.1587821009058223" fill="#ff3b05" stroke="none" /><line stroke="#e1ed5e" stroke-width="0.3" x1="172.23445277983987" x2="176.4835382374775" y1="55.19839476539836" y2="52.563006222186495" /><path d="M 173.08426987136738 54.67131705675599 a86.0,86.0 0 0,1 12.851231095245387,41.99856678651699" fill="none" id="id3" stroke="none" /><text fill="#e1ed5e" style="font-size:6.75px; font-family:Arial;" text-anchor="middle"><textPath startOffset="22.20632615414155" xlink:href="#id3">March</textPath></text><path d="M 118.03404312379186 89.2402003453031 l 1.6650292321160372 -0.9934201018487677 a22.938867154437904,22.938867154437904 0 0,0 0.1993937275072863,0.340828514736364 l -1.6818826340936508 0.9646121747585084" fill="#ff0000" stroke="none" /><path d="M 118.21658344932153 89.55222093294921 l 10.359574715179741 -5.941539375586629 a32.94247371489834,32.94247371489834 0 0,0 0.27788130931043425,0.49431984243352745 l -10.460313665782609 5.7623360232183085" fill="#ff8e0d" stroke="none" /><path d="M 118.56541770881063 90.18545643968196 l 14.017820963155094 -7.410472342797554 a36.8560526266293,36.8560526266293 0 0,0 0.29167277511905265,0.5634189639502987 l -14.143303171434264 7.168080656586911" fill="#ffc212" stroke="none" /><path d="M 119.34039704204932 91.81776055985345 l 6.893883743539556 -2.916558917561782 a28.485449150789023,28.485449150789023 0 0,0 0.18716067724356525,0.4532244253970464 l -6.943066107669318 2.7974599217114324" fill="#ff5007" stroke="none" /><path d="M 119.61058180528143 92.48833698450437 l 6.889357062821797 -2.638908379322276 a28.37747098764271,28.37747098764271 0 0,0 0.1707991487031567,0.4576568025302829 l -6.933760800026579 2.51992843976266" fill="#ff4f07" stroke="none" /><path d="M 119.7369772167798 92.82701384747503 l 4.427288683007658 -1.6090042597528895 a25.710602911580494,25.710602911580494 0 0,0 0.1475873319768271,0.41724926182235367 l -4.454329095794295 1.5325573715039214" fill="#ff2903" stroke="none" /><path d="M 119.97218684219823 93.5106431181261 l 7.0397760729306755 -2.2873619031643178 a28.402058607783022,28.402058607783022 0 0,0 0.14707467253763906,0.4662669037228708 l -7.07810622923652 2.1658448330150275" fill="#ff4f07" stroke="none" /><path d="M 120.18372546131832 94.20196356495316 l 7.31079690414548 -2.1001210554859853 a28.606461714973573,28.606461714973573 0 0,0 0.13188018768077556,0.47444320307160953 l -7.345863862392619 1.973966548995424" fill="#ff5207" stroke="none" /><path d="M 120.37134235888165 94.90015583598534 l 7.193545257378235 -1.8008611878942293 a28.41553736340211,28.41553736340211 0 0,0 0.11470026339903118,0.47550664189683056 l -7.223478321038085 1.6767693143379925" fill="#ff4f07" stroke="none" /><path d="M 120.45610955862082 95.25157060432595 l 7.353620684876623 -1.7069789602289918 a28.54913997404405,28.54913997404405 0 0,0 0.10699893153436998,0.4796552296865009 l -7.381914003413031 1.580145560992527" fill="#ff5107" stroke="none" /><path d="M 120.53481517161879 95.60439243477599 l 7.37264442709466 -1.578161349328048 a28.539660409652605,28.539660409652605 0 0,0 0.0986938206331362,0.4812661198041563 l -7.398717543642793 1.4510195733604798" fill="#ff5107" stroke="none" /><path d="M 120.67395015179393 96.31383870115 l 7.459636155288917 -1.330051678427895 a28.577282430831154,28.577282430831154 0 0,0 0.08217756613374902,0.48501664712668296 l -7.481425582942889 1.2014492429853743" fill="#ff5207" stroke="none" /><path d="M 120.73433829027371 96.67025291283417 l 7.368817382718754 -1.1833653851145305 a28.46323142174657,28.46323142174657 0 0,0 0.07352202658586136,0.4844182940153239 l -7.388095302743916 1.0563479787071246" fill="#ff5007" stroke="none" /><path d="M 120.78858239683441 97.02765380044208 l 7.571672322987937 -1.082595774157168 a28.648675400154232,28.648675400154232 0 0,0 0.06559728261584577,0.48877594857231066 l -7.58918560466162 0.952101483520193" fill="#ff5307" stroke="none" /><path d="M 120.83666639777658 97.38593545837742 l 10.462521024726673 -1.3125758556866425 a31.544534203547315,31.544534203547315 0 0,0 0.06295334729223255,0.5393458346385485 l -10.483564725022495 1.1322862827232414" fill="#ff7b0b" stroke="none" /><path d="M 120.87857604477298 97.74499172005257 l 11.859284090960971 -1.2808720174219423 a32.92825436831117,32.92825436831117 0 0,0 0.05601389963346593,0.5640523251176242 l -11.879575116276666 1.0765441615998832" fill="#ff8e0d" stroke="none" /><path d="M 120.91429891909075 98.10471618934814 l 7.671451148884519 -0.6951979228629853 a28.702886659017814,28.702886659017814 0 0,0 0.04035559735609708,0.49244050472413914 l -7.682281230060111 0.5630435009310775" fill="#ff5307" stroke="none" /><path d="M 120.94382443527127 98.46500227214037 l 7.472663749712926 -0.5476803872339098 a28.492706942276225,28.492706942276225 0 0,0 0.031639670789441375,0.48945170306289354 l -7.480984011506783 0.41896961991798104" fill="#ff5007" stroke="none" /><path d="M 120.98425023603335 99.18683210126433 l 8.505820411260279 -0.32961197245782237 a29.512204468937497,29.512204468937497 0 0,0 0.01530180474025089,0.5077924042821176 l -8.510233910456174 0.1831494207507057" fill="#ff5f08" stroke="none" /><line stroke="#e1ed5e" stroke-width="0.3" x1="184.98032266829074" x2="189.97916517819016" y1="98.17113171792111" y2="98.06355123074" /><path d="M 185.9800911702706 98.14961562048488 a86.0,86.0 0 0,1 -9.607161424134198,41.387399972396054" fill="none" id="id4" stroke="none" /><text fill="#e1ed5e" style="font-size:6.75px; font-family:Arial;" text-anchor="middle"><textPath startOffset="21.466115282336823" xlink:href="#id4">April</textPath></text><path d="M 120.99513854157772 99.54816195383933 l 14.510149471018439 -0.31227408066398665 a35.51350931969078,35.51350931969078 0 0,0 0.00789244262952092,0.6112783794333363 l -14.513374920765676 0.06245944317018768" fill="#ffb010" stroke="none" /><path d="M 120.99824983174949 100.27111621757518 l 11.996573788992999 0.15489222842827788 a32.997573682923615,32.997573682923615 0 0,0 -0.01222157426917274,0.5678885325345087 l -11.992130152038818 -0.3613705767529014" fill="#ff8f0d" stroke="none" /><path d="M 120.9904718944345 100.63252640178507 l 31.2072239303433 0.9403977748396771 a52.221389677807664,52.221389677807664 0 0,0 -0.03480895595407145,0.8982644830558117 l -31.186412841538026 -1.477439504909495" fill="#85ff25" stroke="none" /><path d="M 120.95626037817324 101.35467743843564 l 8.791868007087027 0.5683335201976111 a29.81021827449358,29.81021827449358 0 0,0 -0.037508978751398574,0.5117802140404681 l -8.78078246967129 -0.7195868707348495" fill="#ff6309" stroke="none" /><path d="M 120.92983693683757 101.71520430193887 l 18.297171923864898 1.4994568802345443 a39.358509507777384,39.358509507777384 0 0,0 -0.06114701250589552,0.6747521877041857 l -18.268650315081928 -1.8141904564873004" fill="#ffe215" stroke="none" /><path d="M 120.89721153311464 102.0752229133903 l 14.436132299084822 1.4335976108736581 a35.50714023736528,35.50714023736528 0 0,0 -0.06563359353780544,0.6076855619362667 l -14.409316404045965 -1.6818794946947162" fill="#ffb010" stroke="none" /><path d="M 120.8583938346157 102.4346265915055 l 11.172542257803615 1.3040778063374232 a32.24839185961217,32.24839185961217 0 0,0 -0.06910137918565602,0.5508059815631327 l -11.148439369371111 -1.4962015421879507" fill="#ff840c" stroke="none" /><path d="M 120.76222939487914 103.15116336523771 l 38.13986237762122 5.78863352262212 a59.57664293640792,59.57664293640792 0 0,0 -0.1626108882932781,1.012578156626457 l -38.03456973496666 -6.444290908941781" fill="#38ff2e" stroke="none" /><path d="M 120.64145759157962 103.86396538481128 l 14.519767010545742 2.7180191551569624 a35.7719755675513,35.7719755675513 0 0,0 -0.11850755894416426,0.6042674899166516 l -14.470829518625914 -2.9675503721415586" fill="#ffb310" stroke="none" /><path d="M 120.5718875245553 104.21870165774334 l 27.662614786149486 5.672805605054314 a49.23828925837456,49.23828925837456 0 0,0 -0.17741249944280188,0.8288121337345092 l -27.560868247982242 -6.148131558204992" fill="#a6ff21" stroke="none" /><path d="M 120.49622156327973 104.57218783832717 l 13.226244504282239 2.9504401131944107 a34.55133353395904,34.55133353395904 0 0,0 -0.13448602140050114,0.579362260367169 l -13.173497916951185 -3.177671030910145" fill="#ffa30f" stroke="none" /><path d="M 120.41448212921028 104.9243191809786 l 20.413378218210582 4.924052898930616 a41.998864427182276,41.998864427182276 0 0,0 -0.1755726242458216,0.7013253586445647 l -20.325594279669698 -5.274706096972577" fill="#fbff18" stroke="none" /><path d="M 120.32669344350535 105.2749913415812 l 12.06179382485058 3.130162717653116 a33.461331747136384,33.461331747136384 0 0,0 -0.14947961425546782,0.5562692524260088 l -12.006126134253336 -3.3373229032546727" fill="#ff950d" stroke="none" /><path d="M 120.13307415673323 105.97154293290107 l 9.813297411988685 2.9106596614516183 a31.23585588805086,31.23585588805086 0 0,0 -0.15732939480059324,0.5141615652261997 l -9.761741244681959 -3.079148199229875" fill="#ff770a" stroke="none" /><path d="M 120.02730092923936 106.31721596034902 l 8.743274622765526 2.757893047485491 a30.16792371207704,30.16792371207704 0 0,0 -0.16047575473284345,0.4938935884570496 l -8.694506617016437 -2.9079855359203357" fill="#ff6809" stroke="none" /><path d="M 119.9155931802556 106.66101706037122 l 22.19616402645138 7.4237822552816946 a44.404748246092495,44.404748246092495 0 0,0 -0.2486859782570461,0.7227978601410442 l -22.065087217251104 -7.804752818512039" fill="#deff1b" stroke="none" /><path d="M 119.79798401119884 107.00284435728193 l 16.637556682234496 5.884953733937727 a38.647690296612566,38.647690296612566 0 0,0 -0.22724057713406498,0.6252684723285186 l -16.533791844095205 -6.170470003272376" fill="#ffd914" stroke="none" /><path d="M 119.67450827220406 107.3425965602758 l 11.113606729710208 4.147637613953257 a32.8623417721519,32.8623417721519 0 0,0 -0.20234708462345224,0.5282643867120581 l -11.040565365493249 -4.338325567498458" fill="#ff8d0d" stroke="none" /><path d="M 119.54520255179757 107.68017299344265 l 8.731044574751825 3.4308128846372994 a30.38091767449734,30.38091767449734 0 0,0 -0.19544678829933193,0.4850829000844951 l -8.670695172195101 -3.580595152564608" fill="#ff6b09" stroke="none" /><path d="M 119.41010516605496 108.01547362559984 l 34.019205681681065 14.04835489414259 a57.80574181353096,57.80574181353096 0 0,0 -0.38770866742316934,0.91642876249948 l -33.77234603306559 -14.631858182308235" fill="#4aff2c" stroke="none" /><path d="M 119.26925614724726 108.34839909993367 l 6.998456327163961 3.0320789788747096 a28.627050143886244,28.627050143886244 0 0,0 -0.19978806744911554,0.4504693495883073 l -6.945227174983573 -3.1520966649557045" fill="#ff5207" stroke="none" /><path d="M 119.12269723197855 108.67885076344098 l 14.5876341465898 6.62060891379963 a37.01972323057536,37.01972323057536 0 0,0 -0.26834959777417766,0.5780011601046362 l -14.47150993197579 -6.870730141183096" fill="#ffc412" stroke="none" /><path d="M 118.97047184881838 109.00673069616215 l 6.911616157701533 3.2814716420212915 a28.651045291252093,28.651045291252093 0 0,0 -0.2153559139908794,0.4436969691359177 l -6.85410698709594 -3.3999575671224846" fill="#ff5307" stroke="none" /><path d="M 118.81262510543309 109.33194174019688 l 12.204437099063465 6.053971486811051 a34.623467094250195,34.623467094250195 0 0,0 -0.2694387166263671,0.5316281495614918 l -12.09841971265083 -6.263153848075237" fill="#ffa40f" stroke="none" /><path d="M 118.64920377521936 109.65438752849418 l 5.561666311037567 2.8791836111671083 a27.26273346248613,27.26273346248613 0 0,0 -0.2193319255914432,0.4148933458247319 l -5.51128187722123 -2.9744919720779746" fill="#ff3f05" stroke="none" /><line stroke="#e1ed5e" stroke-width="0.3" x1="174.80103733775053" x2="179.2010983576182" y1="140.37084112569926" y2="142.7455964860345" /><path d="M 175.68104954172406 140.8457921977663 a86.0,86.0 0 0,1 -30.038265399797805,32.042727171017184" fill="none" id="id5" stroke="none" /><text fill="#e1ed5e" style="font-size:6.75px; font-family:Arial;" text-anchor="middle"><textPath startOffset="22.206326154141568" xlink:href="#id5">May</textPath></text><path d="M 118.48025628344425 109.97397251340804 l 7.53516139350745 4.06679926242504 a29.56256465476705,29.56256465476705 0 0,0 -0.24554327013839827,0.4457323581652506 l -7.464041713917542 -4.195902138988096" fill="#ff5f08" stroke="none" /><path d="M 118.30583269289576 110.29060199501025 l 24.38747708776245 13.70939113138457 a48.97671252844809,48.97671252844809 0 0,0 -0.4194459039647682,0.7313392887630353 l -24.1478791876453 -14.127150266005922" fill="#a9ff21" stroke="none" /><path d="M 117.94076556474637 110.91462005526583 l 7.757828031094751 4.719628329566615 a30.080682096037016,30.080682096037016 0 0,0 -0.27292540962866046,0.4400426616636907 l -7.675437981798127 -4.8524673225955794" fill="#ff6709" stroke="none" /><path d="M 117.75023020441432 111.22182372390056 l 18.052997710886928 11.413235528019882 a42.358199164895524,42.358199164895524 0 0,0 -0.39492997107584915,0.612940085354138 l -17.853862876434025 -11.722297213295473" fill="#f7ff18" stroke="none" /><path d="M 117.55443506779139 111.5257021239791 l 6.251582144524717 4.104596549141118 a28.478635713882674,28.478635713882674 0 0,0 -0.2725770162204643,0.4074656555143763 l -6.180002022893531 -4.211599118861301" fill="#ff5007" stroke="none" /><path d="M 117.35343817320211 111.8261652097733 l 9.500662237210962 6.4745902280630805 a32.497082306694004,32.497082306694004 0 0,0 -0.3189961460275855,0.4595377402095424 l -9.387805184021241 -6.637169230459643" fill="#ff880c" stroke="none" /><path d="M 117.14729908036423 112.12312394758627 l 3.6066752347006275 2.54991591993838 a25.417032651832905,25.417032651832905 0 0,0 -0.25564718637696326,0.355071582342814 l -3.5622482559480613 -2.6116211077323253" fill="#ff2403" stroke="none" /><path d="M 116.71984013943494 112.70617746262583 l 50.159520418304794 38.11853238787748 a84.0,84.0 0 0,0 -0.8847727311277263,1.1436880235469893 l -49.495940869959 -38.97629840553772" fill="#4dd2ff" stroke="none" /><path d="M 116.27256486870786 113.27417163493432 l 3.7243152996080844 3.0380705751357797 a25.80628726465665,25.80628726465665 0 0,0 -0.2837511884431204,0.3417965856358341 l -3.6714681112714205 -3.101728417885384" fill="#ff2a04" stroke="none" /><path d="M 116.0416608686014 113.55231037782055 l 4.92998886080675 4.164951481527994 a27.453805932251207,27.453805932251207 0 0,0 -0.30808071470119935,0.3583674724383406 l -4.857565636534772 -4.2491960531278625" fill="#ff4206" stroke="none" /><path d="M 115.56566222782051 114.09645910891815 l 11.163949884078637 10.11021315583058 a36.06154663607125,36.06154663607125 0 0,0 -0.4206383515112115,0.4565198534820327 l -10.988265124571704 -10.300884264113948" fill="#ffb711" stroke="none" /><path d="M 114.55890576462653 115.13401014063108 l 2.7137242272588176 2.8209214784532066 a24.914319502699044,24.914319502699044 0 0,0 -0.31162375923320346,0.29465971492933435 l -2.6647646336348063 -2.8672158301284623" fill="#ff1d02" stroke="none" /><path d="M 114.29624159901734 115.38237550388516 l 15.170312363736162 16.32285238564107 a43.28393787499765,43.28393787499765 0 0,0 -0.5501191676040544,0.5025208164067331 l -14.887093646665244 -16.581565968634386" fill="#ecff1a" stroke="none" /><path d="M 114.0293411484842 115.62618273729858 l 9.870800032807553 10.994309956790005 a35.77523416781086,35.77523416781086 0 0,0 -0.46176908560679336,0.40745752907703175 l -9.680088594294173 -11.162590627639325" fill="#ffb310" stroke="none" /><path d="M 113.75828350139079 115.86535959552629 l 12.854479921838722 14.82313882780712 a40.62047651738861,40.62047651738861 0 0,0 -0.5321950213249981,0.4535481428975792 l -12.597419423936676 -15.042211360927647" fill="#fff116" stroke="none" /><path d="M 113.48314897796784 116.09983520530334 l 20.032621498610293 23.92036944669676 a52.20080124889499,52.20080124889499 0 0,0 -0.6938477591651517,0.5709894688779751 l -19.61790361090045 -24.261654034431913" fill="#85ff25" stroke="none" /><path d="M 112.92097659922987 116.55440617244103 l 9.759721525956847 12.504193706243178 a36.86212547256757,36.86212547256757 0 0,0 -0.5035564192737063,0.3861055895518085 l -9.543036378189646 -12.670338637622358" fill="#ffc212" stroke="none" /><path d="M 112.63410532772338 116.77436683061366 l 8.982347012215202 11.92590847348233 a35.930165798333555,35.930165798333555 0 0,0 -0.497230771254695,0.367839437465349 l -8.775731270541943 -12.078757859687448" fill="#ffb610" stroke="none" /><path d="M 112.34349029814194 116.9893568818739 l 5.095894827601077 7.013897509332688 a29.66965410875167,29.66965410875167 0 0,0 -0.41576039982769875,0.2966340061537928 l -4.974407099924494 -7.1005757773306994" fill="#ff6108" stroke="none" /><path d="M 112.04921762599082 117.19931262002967 l 8.34028206050178 11.905098152461955 a35.53587516692686,35.53587516692686 0 0,0 -0.5040055127318959,0.3466595874246281 l -8.134119663147 -12.046898529251678" fill="#ffb010" stroke="none" /><path d="M 111.7513745106137 117.40417183066458 l 8.303703090710494 12.2980571584216 a35.83892499106589,35.83892499106589 0 0,0 -0.5142464223699408,0.34081448774646006 l -8.09078196960059 -12.439169667259378" fill="#ffb410" stroke="none" /><path d="M 111.1453310114006 117.79835938074945 l 8.574863449533387 13.693492024555766 a37.15673255967047,37.15673255967047 0 0,0 -0.545002213853854,0.3347848731077701 l -8.337882035747224 -13.839065364491915" fill="#ffc512" stroke="none" /><line stroke="#e1ed5e" stroke-width="0.3" x1="143.8653032363475" x2="146.44561519142675" y1="172.8068346515853" y2="177.08958963109032" /><path d="M 144.38136562736335 173.6633856474863 a86.0,86.0 0 0,1 -40.68145358897372,12.25698825130547" fill="none" id="id6" stroke="none" /><text fill="#e1ed5e" style="font-size:6.75px; font-family:Arial;" text-anchor="middle"><textPath startOffset="21.466115282336833" xlink:href="#id6">June</textPath></text><path d="M 110.8373102113329 117.98757091392108 l 10.459119332905466 17.359856553802647 a41.26716055071755,41.26716055071755 0 0,0 -0.6116031540387327,0.3613459237832858 l -10.158748307838351 -17.537321049879683" fill="#fffa17" stroke="none" /><path d="M 110.5260780823613 118.17145234162733 l 7.3813164817446095 12.742565618171962 a35.72605892753023,35.72605892753023 0 0,0 -0.534787175091192,0.3036661151046999 l -7.160880539732219 -12.86773489907129" fill="#ffb310" stroke="none" /><path d="M 110.21172684928248 118.3499491758327 l 7.290599068534565 13.100832439361854 a35.99281979423327,35.99281979423327 0 0,0 -0.5439666637720094,0.2966139969008591 l -7.064009592893907 -13.224387088022484" fill="#ffb610" stroke="none" /><path d="M 109.89434966115114 118.52300852407294 l 7.094157704412448 13.280826747602664 a36.05680685387552,36.05680685387552 0 0,0 -0.5499677743400636,0.2877171464524781 l -6.8644990275458895 -13.40097331299986" fill="#ffb711" stroke="none" /><path d="M 109.57404056367764 118.69057910512821 l 5.445126400202284 10.630053742044032 a32.943510542253655,32.943510542253655 0 0,0 -0.5069317475686216,0.2541861019613585 l -5.2613407449509015 -10.722207684914693" fill="#ff8e0d" stroke="none" /><path d="M 109.2508944713604 118.85261126421891 l 7.940915127947103 16.182974138643118 a39.02628039949593,39.02628039949593 0 0,0 -0.6056271617745972,0.2907378415538181 l -7.661175298172274 -16.3172662566965" fill="#ffdd14" stroke="none" /><path d="M 108.92500713936063 119.00905698771935 l 5.124215957392001 10.913886300647087 a33.056969078563775,33.056969078563775 0 0,0 -0.5171558240588094,0.23740087393400558 l -4.935592137565772 -11.000474244915168" fill="#ff8f0d" stroke="none" /><path d="M 108.59647513512805 119.15986991738527 l 13.08813218057115 29.170899246433063 a52.97249703763613,52.97249703763613 0 0,0 -0.8351475514721288,0.3661041438412144 l -12.584063954441268 -29.39186794356873" fill="#7dff26" stroke="none" /><path d="M 108.2653958097858 119.30500536409082 l 2.9005527614879716 6.774652770174457 a28.369472605187426,28.369472605187426 0 0,0 -0.4505727996588058,0.18833946679991687 l -2.7835085023317045 -6.823577279994347" fill="#ff4f07" stroke="none" /><path d="M 107.93186726928326 119.44442032107085 l 5.615130067171054 13.765100382652106 a35.86632685688491,35.86632685688491 0 0,0 -0.5736544414772008,0.22826894114219184 l -5.3773545496519874 -13.859716168200366" fill="#ffb510" stroke="none" /><path d="M 107.59598834532513 119.57807347666477 l 1.8105603344785115 4.666579469434114 a26.005506235070627,26.005506235070627 0 0,0 -0.41872552772770133,0.15832616566746194 l -1.7299645859905355 -4.697053885208207" fill="#ff2d04" stroke="none" /><path d="M 107.2578585660854 119.70592522655815 l 4.129001703758793 11.210717058445987 a32.94691726070683,32.94691726070683 0 0,0 -0.533866261017576,0.19142544714913437 l -3.935415882111482 -11.280130046635081" fill="#ff8e0d" stroke="none" /><path d="M 106.91757812671514 119.82793768551818 l 3.914435584691412 11.219993966890316 a32.8832264374518,32.8832264374518 0 0,0 -0.5360439851532626,0.18185522379039654 l -3.7207218666009223 -11.285712177578835" fill="#ff8d0d" stroke="none" /><path d="M 106.2309692047433 120.05430185196036 l 5.343969930266663 17.19950501244408 a39.0105798709726,39.0105798709726 0 0,0 -0.642977997854344,0.1937239963245709 l -5.047116957972073 -17.288944377874376" fill="#ffdd14" stroke="none" /><path d="M 105.88484417918355 120.15858648285463 l 4.133210076326055 14.158348163261739 a35.749313483928,35.749313483928 0 0,0 -0.5921939010817285,0.16735991171069112 l -3.8888850071397205 -14.227396868310949" fill="#ffb310" stroke="none" /><path d="M 105.53697534728816 120.25689768951611 l 3.8884554169182026 14.225825222309316 a35.74768418379823,35.74768418379823 0 0,0 -0.594959869980655,0.15713430916800125 l -3.64300510412605 -14.2906508807809" fill="#ffb310" stroke="none" /><path d="M 105.18746579009965 120.34920634021253 l 4.628515790193071 18.156577156292197 a39.73724772885437,39.73724772885437 0 0,0 -0.6642681089790295,0.16326093962424887 l -4.315294396470831 -18.233559354230476" fill="#ffe615" stroke="none" /><path d="M 104.83641907484287 120.43548508189849 l 2.737013216398452 11.564794507491436 a32.88426326480712,32.88426326480712 0 0,0 -0.5519542953764289,0.1256230006187708 l -2.537538771629161 -11.610194241687893" fill="#ff8d0d" stroke="none" /><path d="M 103.7750983002368 120.6578951692458 l 5.662567570249364 30.986405638137793 a52.49955564541915,52.49955564541915 0 0,0 -0.890370035256018,0.15480224345618518 l -5.128348563521296 -31.079286460114986" fill="#82ff25" stroke="none" /><path d="M 103.41894727170886 120.7198165907248 l 2.234683342500906 13.542832139620511 a34.7259648842327,34.7259648842327 0 0,0 -0.590612821820854,0.09224157620226031 l -2.0012346570715347 -13.579292023169877" fill="#ffa60f" stroke="none" /><path d="M 103.06178313531738 120.77559828337769 l 2.197105966135394 14.90836839876636 a36.06939690033291,36.06939690033291 0 0,0 -0.6150199887211226,0.08523616636184736 l -1.9401573862274406 -14.943979130620809" fill="#ffb711" stroke="none" /><path d="M 102.34483914955558 120.86867818915974 l 0.8230333814101152 7.3248601205071635 a28.37095378712359,28.37095378712359 0 0,0 -0.48577477071707015,0.050352541198028046 l -0.6968260140874424 -7.337942030160949" fill="#ff4f07" stroke="none" /><path d="M 101.98527174616119 120.90594882070398 l 1.129730785639717 11.896655473703593 a32.95017586096639,32.95017586096639 0 0,0 -0.5651044317972636,0.04875958821090791 l -0.9247820361009117 -11.914339314193164" fill="#ff8e0d" stroke="none" /><path d="M 101.62511606390274 120.93702456842531 l 1.155862921670996 14.89144740261823 a35.936238644271825,35.936238644271825 0 0,0 -0.6171402806028431,0.04256160699718516 l -0.8993598802892223 -14.909137354131701" fill="#ffb610" stroke="none" /><path d="M 101.26447882468166 120.96189622390904 l 0.9214157805664457 15.27476901494851 a36.30253493708503,36.30253493708503 0 0,0 -0.6240784885297241,0.03225772937847255 l -0.6583492236232419 -15.288366551089183" fill="#ffba11" stroke="none" /><path d="M 100.90346689309514 120.98055641714683 l 0.514582061367147 11.949766009442705 a32.960840370906766,32.960840370906766 0 0,0 -0.567051467509958,0.019530399084787552 l -0.3088102421825366 -11.956853206953587" fill="#ff8e0d" stroke="none" /><line stroke="#e1ed5e" stroke-width="0.3" x1="102.19456741930631" x2="102.32365962044197" y1="184.97166512339345" y2="189.96999836594603" /><path d="M 102.22038585953345 185.97133177190398 a86.0,86.0 0 0,1 -42.740103519485714,-10.115201625700543" fill="none" id="id7" stroke="none" /><text fill="#e1ed5e" style="font-size:6.75px; font-family:Arial;" text-anchor="middle"><textPath startOffset="22.20632615414155" xlink:href="#id7">July</textPath></text><path d="M 100.54218724476979 120.99299961872073 l 0.39796336750452826 15.4087815655541 a36.41391981868452,36.41391981868452 0 0,0 -0.6267361176899455,0.01078983063936299 l -0.1326675599219147 -15.413348873472623" fill="#ffbc11" stroke="none" /><path d="M 100.18074693466247 120.99922214144158 l 0.12960791312604109 15.057878376222503 a36.05843615400531,36.05843615400531 0 0,0 -0.6207096955769826,0.0 l 0.1296079131260307 -15.057878376222503" fill="#ffb711" stroke="none" /><path d="M 99.45781275523022 120.99299961872073 l -0.38686559503060125 14.979085855149664 a35.9840808208099,35.9840808208099 0 0,0 -0.6190626697263535,-0.02132177005262239 l 0.6446486164315978 -14.970207286670947" fill="#ffb610" stroke="none" /><path d="M 99.09653310690486 120.98055641714683 l -0.7044661046678443 16.35930543322631 a37.37446630428649,37.37446630428649 0 0,0 -0.6425061082154971,-0.03321022682845524 l 0.9859602812968303 -16.344755399635652" fill="#ffc812" stroke="none" /><path d="M 98.37488393609728 120.93702456842531 l -0.5812440786891511 7.488401490870364 a28.510925480091032,28.510925480091032 0 0,0 -0.4889700865762976,-0.04219039654862553 l 0.7100584830069903 -7.477286842043076" fill="#ff5107" stroke="none" /><path d="M 98.01472825383883 120.90594882070398 l -1.8140524666634839 19.102920343006616 a40.188860101190585,40.188860101190585 0 0,0 -0.6881240034269605,-0.07132686652449774 l 2.142609066696038 -19.068864108026357" fill="#ffec16" stroke="none" /><path d="M 97.65516085044442 120.86867818915974 l -1.8947761911146832 16.863192761153126 a37.96930896984972,37.96930896984972 0 0,0 -0.6488639883318079,-0.07856839266422375 l 2.1847676024978804 -16.828078839763553" fill="#ffd013" stroke="none" /><path d="M 95.86986931433489 120.58985236759428 l -1.3904729288480162 6.931895018597133 a28.069977617695187,28.069977617695187 0 0,0 -0.47292370279174084,-0.09910576007104521 l 1.5095880930691437 -6.906933277799546" fill="#ff4a06" stroke="none" /><path d="M 95.16358092515715 120.4354850818985 l -2.8445698023186075 12.019256987482974 a33.35127992927944,33.35127992927944 0 0,0 -0.5575170127992018,-0.13702411742451326 l 3.05104009986102 -11.96851161174443" fill="#ff930d" stroke="none" /><path d="M 94.81253420990036 120.34920634021253 l -3.0064753322490043 11.793694526035397 a33.17087196945474,33.17087196945474 0 0,0 -0.5520731796952814,-0.14580754447257202 l 3.209038954755775 -11.740195632259242" fill="#ff910d" stroke="none" /><path d="M 93.76903079525671 120.05430185196036 l -3.5643166657166834 11.471711697089047 a33.012681738672484,33.012681738672484 0 0,0 -0.5412172220919542,-0.17328066343728366 l 3.761255232899578 -11.408658186992058" fill="#ff8f0d" stroke="none" /><path d="M 93.42475214034765 119.94407469862007 l -8.010487674259727 24.29745128364763 a46.583863110576104,46.583863110576104 0 0,0 -0.7593841094980587,-0.25762432001947716 l 8.427541516695012 -24.15596397673003" fill="#c5ff1e" stroke="none" /><path d="M 92.7421414339146 119.70592522655815 l -5.271032240210906 14.311462016873811 a36.25128604209378,36.25128604209378 0 0,0 -0.5836971117413813,-0.22070430268412725 l 5.51659957271257 -14.21860946408305" fill="#ffba11" stroke="none" /><path d="M 92.40401165467489 119.57807347666478 l -5.439342426405001 14.019485134470575 a36.03769960689902,36.03769960689902 0 0,0 -0.5763954174234284,-0.22935963203849086 l 5.679858919870287 -13.923778658026018" fill="#ffb711" stroke="none" /><path d="M 91.40352486487194 119.15986991738527 l -6.1637755055653365 13.73785592701983 a36.05725120845638,36.05725120845638 0 0,0 -0.5640933812681815,-0.2589476043070259 l 6.399336882600938 -13.62972125237873" fill="#ffb711" stroke="none" /><path d="M 91.07499286063937 119.00905698771935 l -5.336358409897636 11.365721005788064 a33.55612739105084,33.55612739105084 0 0,0 -0.5207388965577885,-0.2499863155983715 l 5.531209974455667 -11.27218041369013" fill="#ff960d" stroke="none" /><path d="M 90.10565033884886 118.52300852407294 l -7.176087988955899 13.43420674840623 a36.23069761318111,36.23069761318111 0 0,0 -0.5475617586909036,-0.29857432929648237 l 7.406272559515443 -13.308691767349984" fill="#ffb911" stroke="none" /><line stroke="#e1ed5e" stroke-width="0.3" x1="58.666819895761336" x2="56.23545636021788" y1="174.27360380694188" y2="178.64263932499728" /><path d="M 58.180547188652646 175.14741091055294 a86.0,86.0 0 0,1 -31.652253787137756,-30.449443065178592" fill="none" id="id8" stroke="none" /><text fill="#e1ed5e" style="font-size:6.75px; font-family:Arial;" text-anchor="middle"><textPath startOffset="22.20632615414155" xlink:href="#id8">August</textPath></text><path d="M 89.7882731507175 118.34994917583269 l -6.225553046657693 11.186999386459872 a33.80259606522843,33.80259606522843 0 0,0 -0.5059946549699479,-0.28731697074124124 l 6.417196468548848 -11.078179249923997" fill="#ff990e" stroke="none" /><path d="M 89.4739219176387 118.17145234162733 l -5.910710504431995 10.203818876892454 a32.79213374837775,32.79213374837775 0 0,0 -0.4859983619061737,-0.28713639862790574 l 6.085476737366551 -10.100563905970798" fill="#ff8c0c" stroke="none" /><path d="M 89.1626897886671 117.98757091392108 l -16.535270606315642 27.44494222385057 a53.04122387947411,53.04122387947411 0 0,0 -0.777990486472626,-0.47790529959688277 l 17.005240292720575 -27.15624845742531" fill="#7cff26" stroke="none" /><path d="M 88.24862548938628 117.40417183066458 l -4.2687613325391744 6.322175815987036 a28.628383207628794,28.628383207628794 0 0,0 -0.40603651632237586,-0.27927561836515374 l 4.376954733484441 -6.247759408256781" fill="#ff5207" stroke="none" /><path d="M 87.95078237400918 117.19931262002967 l -10.028616158894106 14.315062588880522 a38.47839120130908,38.47839120130908 0 0,0 -0.5391970951850048,-0.38470281084370217 l 10.273540581927998 -14.1403155161926" fill="#ffd614" stroke="none" /><path d="M 87.65650970185807 116.9893568818739 l -8.943760331863439 12.310030021804105 a36.21603391201309,36.21603391201309 0 0,0 -0.501186846031522,-0.3707660470088591 l 9.154332148313525 -12.154254026055478" fill="#ffb911" stroke="none" /><path d="M 85.70375840098266 115.38237550388516 l -21.630402840084116 23.273737819969984 a52.77327806722215,52.77327806722215 0 0,0 -0.6600785261899194,-0.6241454465368397 l 22.027817200664852 -22.89795773668721" fill="#7fff26" stroke="none" /><path d="M 84.9287848128048 114.62390073753433 l -4.044009249392012 3.9239828447957747 a26.63486043974646,26.63486043974646 0 0,0 -0.3164391992691677,-0.331785235326475 l 4.1109550000401365 -3.8537904928867994" fill="#ff3605" stroke="none" /><path d="M 84.67929136418377 114.36230785411682 l -11.19628206264381 10.495888514536027 a36.346674158782704,36.346674158782704 0 0,0 -0.42396420917155425,-0.4601294151074663 l 11.375292679811094 -10.301607844627217" fill="#ffbb11" stroke="none" /><path d="M 84.43433777217949 114.09645910891817 l -14.50261711432499 13.133752109755497 a40.56582090394418,40.56582090394418 0 0,0 -0.46426838385778235,-0.5216104509395684 l 14.72654434783111 -12.882167489075066" fill="#fff116" stroke="none" /><path d="M 83.50135304334701 112.99209946851258 l -13.317505372317052 10.48706326792595 a37.950942313841296,37.950942313841296 0 0,0 -0.3997376057129542,-0.5167147405555114 l 13.496049795248075 -10.256270533257187" fill="#ffd013" stroke="none" /><path d="M 83.06392112726016 112.41649034213515 l -12.049957842418449 8.83428722184026 a35.941422781048395,35.941422781048395 0 0,0 -0.3615026086728149,-0.5020955055348807 l 12.200240243466872 -8.62555811085424" fill="#ffb610" stroke="none" /><line stroke="#e1ed5e" stroke-width="0.3" x1="26.63291911575756" x2="22.317208475507996" y1="142.92168965132927" y2="145.44649492493687" /><path d="M 25.769776987707644 143.4266507060508 a86.0,86.0 0 0,1 -11.730757126820373,-40.83630448921669" fill="none" id="id9" stroke="none" /><text fill="#e1ed5e" style="font-size:6.75px; font-family:Arial;" text-anchor="middle"><textPath startOffset="21.46611528233685" xlink:href="#id9">September</textPath></text><path d="M 81.87401531095188 110.60418214915194 l -12.920478854208787 7.558823069462216 a35.969120883254654,35.969120883254654 0 0,0 -0.30804640909558056,-0.5371048795672468 l 13.048677259456744 -7.335298344036661" fill="#ffb610" stroke="none" /><path d="M 81.69416730710424 110.29060199501025 l -16.848290114845444 9.471246174757514 a40.327943084996335,40.327943084996335 0 0,0 -0.33495926820571165,-0.6080483672897384 l 17.008825792502673 -9.179827289069953" fill="#ffee16" stroke="none" /><path d="M 81.51974371655577 109.97397251340807 l -6.7580396265145675 3.647379151325081 a28.67948398442643,28.67948398442643 0 0,0 -0.23072985164635218,-0.4364539265000289 l 6.819821986385806 -3.530510209738926" fill="#ff5307" stroke="none" /><path d="M 81.35079622478065 109.6543875284942 l -10.72595799633263 5.552652883151219 a33.07800186205729,33.07800186205729 0 0,0 -0.2574119554814166,-0.5078982088433865 l 10.819948621600313 -5.3672004626051475" fill="#ff900d" stroke="none" /><path d="M 81.18737489456691 109.33194174019688 l -6.759764327763344 3.353159196582866 a28.545733255590875,28.545733255590875 0 0,0 -0.21456433485428267,-0.44206608165653327 l 6.816481919232346 -3.236304158961048" fill="#ff5107" stroke="none" /><path d="M 80.87730276802145 108.67885076344099 l -13.534243894776505 6.142526942399559 a35.86292013843173,35.86292013843173 0 0,0 -0.25028717494558533,-0.5643315056178269 l 13.63797215445337 -5.908647100289037" fill="#ffb510" stroke="none" /><path d="M 80.45479744820244 107.68017299344265 l -10.030486046340709 3.941420808510594 a31.777079767524967,31.777079767524967 0 0,0 -0.19566467579782584,-0.510818725922824 l 10.096845001732044 -3.768178515754612" fill="#ff7e0b" stroke="none" /><path d="M 80.32549172779594 107.34259656027581 l -10.09282069572531 3.7666766304198567 a31.772784339910096,31.772784339910096 0 0,0 -0.18681752506152535,-0.5140415940349523 l 10.15616248179206 -3.5923872393787875" fill="#ff7e0b" stroke="none" /><path d="M 79.97269907076064 106.31721596034903 l -10.178450888878002 3.21059101443736 a31.672804559219067,31.672804559219067 0 0,0 -0.1595302267624357,-0.5213540114167885 l 10.232207888146569 -3.034910030468524" fill="#ff7d0b" stroke="none" /><path d="M 79.86692584326677 105.97154293290107 l -13.791100889322447 4.090490623113163 a35.3849427276318,35.3849427276318 0 0,0 -0.16817513464672182,-0.5854397062101753 l 13.859468660855272 -3.8524934413983916" fill="#ffae10" stroke="none" /><path d="M 79.29508885075956 103.50808413554451 l -10.454194586370726 1.771279959329255 a31.60318900821939,31.60318900821939 0 0,0 -0.08625901669236546,-0.5371349792840299 l 10.483135357424382 -1.5910657503520116" fill="#ff7c0b" stroke="none" /><path d="M 79.23777060512086 103.15116336523772 l -10.965512468414737 1.6642779787438684 a32.09109033799161,32.09109033799161 0 0,0 -0.07818909957406624,-0.5468543803112531 l 10.992535619005402 -1.4752781264522146" fill="#ff820c" stroke="none" /><path d="M 79.1416061653843 102.43462659150553 l -10.496822806247263 1.2252067025410136 a31.56808499633231,31.56808499633231 0 0,0 -0.05835240026556168,-0.5402707551778885 l 10.516357508013876 -1.044339625478343" fill="#ff7b0b" stroke="none" /><path d="M 79.07016306316243 101.71520430193888 l -15.056249640460724 1.2338626541772744 a36.10672268512423,36.10672268512423 0 0,0 -0.04543161279492821,-0.6198782610023381 l 15.075257811919988 -0.9745112566781755" fill="#ffb811" stroke="none" /><line stroke="#e1ed5e" stroke-width="0.3" x1="15.007084014347285" x2="10.007500721073583" y1="101.09737516637583" y2="101.16192664675087" /><path d="M 14.007167355692545 101.11028546245083 a86.0,86.0 0 0,1 10.666146001902534,-42.60595125391555" fill="none" id="id10" stroke="none" /><text fill="#e1ed5e" style="font-size:6.75px; font-family:Arial;" text-anchor="middle"><textPath startOffset="22.20632615414155" xlink:href="#id10">October</textPath></text><path d="M 79.01574976396665 99.18683210126434 l -3.3097349185926754 -0.12825667626201426 a24.312219045648618,24.312219045648618 0 0,0 0.019804492557517,-0.41804153670153626 l 3.3070368178016594 0.18520931958655962" fill="#ff1402" stroke="none" /><path d="M 81.10775173730289 90.83032412892265 l -5.350588735073022 -2.5969997714318054 a26.947537946470554,26.947537946470554 0 0,0 0.20613581650754512,-0.41555722750118446 l 5.305092905612065 2.6887165874319514" fill="#ff3a05" stroke="none" /><line stroke="#e1ed5e" stroke-width="0.3" x1="26.266209847984243" x2="21.928928074336255" y1="57.711370442889674" y2="55.22380399835377" /><path d="M 25.398753493254645 57.213857153982495 a86.0,86.0 0 0,1 29.58750427330803,-30.492523968695096" fill="none" id="id11" stroke="none" /><text fill="#e1ed5e" style="font-size:6.75px; font-family:Arial;" text-anchor="middle"><textPath startOffset="21.46611528233685" xlink:href="#id11">November</textPath></text><path d="M 81.96595687620814 89.24020034530311 l -5.252155998724466 -3.1336370836850587 a27.115948332612334,27.115948332612334 0 0,0 0.2426027764850026,-0.3987751764363135 l 5.197437423953246 3.223580033328447" fill="#ff3d05" stroke="none" /><path d="M 82.15384107792192 88.93136811851018 l -7.041608204470525 -4.3673806452849275 a29.286027987285344,29.286027987285344 0 0,0 0.2693929725100915,-0.4261149876486836 l 6.965387635714471 4.487943280647826" fill="#ff5c08" stroke="none" /><path d="M 85.05521093208273 85.24692304244772 l -4.244621425321814 -4.190171320509307 a26.96442342054282,26.96442342054282 0 0,0 0.3289199975939576,-0.3275075105938582 l 4.171865627560543 4.262614681753275" fill="#ff3b05" stroke="none" /><path d="M 85.31137513191541 84.99185889309783 l -6.274582046974687 -6.411070715846463 a29.970630278180074,29.970630278180074 0 0,0 0.37180244699822096,-0.3576736594335921 l 6.163296356364038 6.518127462042368" fill="#ff6509" stroke="none" /><path d="M 85.57189188830299 84.74124197986013 l -6.709978015871133 -7.0962824836078475 a30.76632121428706,30.76632121428706 0 0,0 0.38793710962753725,-0.3605452644852537 l 6.58683302244874 7.210732334167749" fill="#ff700a" stroke="none" /><path d="M 85.83668400450813 84.49514656593479 l -5.100559943887824 -5.583680713387781 a28.562618729663136,28.562618729663136 0 0,0 0.36585860017928085,-0.3284714635885148 l 5.003690356112573 5.670651185745575" fill="#ff5107" stroke="none" /><path d="M 86.10567301691215 84.25364557470407 l -5.473796953281911 -6.203420070896219 a29.273141704440725,29.273141704440725 0 0,0 0.3806988825035486,-0.3301383194379925 l 5.366204272131589 6.296723383753893" fill="#ff5b08" stroke="none" /><path d="M 86.37877921826538 84.01681056812374 l -6.762253225284289 -7.934852244005039 a31.425447175879775,31.425447175879775 0 0,0 0.41472980154689,-0.3473242818049325 l 6.624665886778289 8.050077683203783" fill="#ff790b" stroke="none" /><path d="M 86.65592168130627 83.78471172551755 l -4.728636928048592 -5.746085199923869 a28.44160616547859,28.44160616547859 0 0,0 0.38070661107061815,-0.30783826978228995 l 4.629026918413473 5.826629566970293" fill="#ff5007" stroke="none" /><path d="M 87.51073957382395 83.11751280151077 l -4.426778858572691 -5.983944193665804 a28.44338358380198,28.44338358380198 0 0,0 0.3961143213251832,-0.2877939003947273 l 4.323119220893727 6.0592573288772" fill="#ff5007" stroke="none" /><path d="M 87.80319425747018 82.90503203632743 l -6.937568432725481 -9.723653275027816 a32.9448436059962,32.9448436059962 0 0,0 0.46447344300103954,-0.32539332936452486 l 6.769163850140782 9.841631447156283" fill="#ff8e0d" stroke="none" /><line stroke="#e1ed5e" stroke-width="0.3" x1="56.762969772571076" x2="54.21961505331055" y1="26.818313649435495" y2="22.513508569990535" /><path d="M 56.25429882871897 25.957352633546506 a86.0,86.0 0 0,1 42.265352541879196,-11.944610805530505" fill="none" id="id12" stroke="none" /><text fill="#e1ed5e" style="font-size:6.75px; font-family:Arial;" text-anchor="middle"><textPath startOffset="22.20632615414155" xlink:href="#id12">December</textPath></text></svg>