<?xml version="1.0" encoding="utf-8" ?>
<svg baseProfile="full" height="200mm" version="1.1" viewBox="0,0,200,200" width="200mm" xmlns="http://www.w3.org/2000/svg" xmlns:ev="http://www.w3.org/2001/xml-events" xmlns:xlink="http://www.w3.org/1999/xlink"><defs /><rect fill="#1a1a1a" height="200" width="200" x="0" y="0" /><text alignment-baseline="middle" fill="#e1ed5e" style="dominant-baseline: central; font-size:9.0px; font-family:Arial;" text-anchor="middle" x="100.0" y="100.0">2016</text><line stroke="#e1ed5e" stroke-width="0.3" x1="100.0" x2="100.0" y1="15.0" y2="10.0" /><path d="M 100.0 14.0 a86.0,86.0 0 0,1 42.35913384403234,11.155469271406648" fill="none" id="id25" stroke="none" /><text fill="#e1ed5e" style="font-size:6.75px; font-family:Arial;" text-anchor="middle"><textPath startOffset="22.145653131862478" xlink:href="#id25">January</textPath></text><path d="M 100.0 79.0 l 0.0 -57.63018672199169 a78.63018672199169,78.63018672199169 0 0,0 1.3497917139439224,0.011586338467648142 l -0.9892987890950676 57.62169478171848" fill="#44ffeb" stroke="none" /><path d="M 102.87502721639298 79.19773525538626 l 5.043227202199719 -36.49027975429651 a57.837136929460584,57.837136929460584 0 0,0 0.9823359383937804,0.144369554347995 l -5.668888246201182 36.39832912664963" fill="#92ff23" stroke="none" /><path d="M 105.69591212413111 79.78721728523813 l 8.377245030698225 -29.727887274885244 a51.8856846473029,51.8856846473029 0 0,0 0.8552242972090192,0.2489433287450908 l -8.886329340288848 29.57970025183764" fill="#e9ff1a" stroke="none" /><line stroke="#e1ed5e" stroke-width="0.3" x1="143.13028292997686" x2="145.6673583964461" y1="26.7553504044142" y2="22.446841604673864" /><path d="M 143.63769802327073 25.89364864446614 a86.0,86.0 0 0,1 29.32050498858742,28.57503671076993" fill="none" id="id26" stroke="none" /><text fill="#e1ed5e" style="font-size:6.75px; font-family:Arial;" text-anchor="middle"><textPath startOffset="20.669276256404974" xlink:href="#id26">February</textPath></text><path d="M 112.16784306229584 82.88440491214696 l 13.081220182208058 -18.400374392360053 a43.576361514522816,43.576361514522816 0 0,0 0.6059583362404601,0.43866710526372177 l -13.395159528822488 18.173106515723255" fill="#ff8f0d" stroke="none" /><path d="M 114.39649973595853 84.71141617570332 l 24.632724664920527 -26.159099973434177 a56.931457468879664,56.931457468879664 0 0,0 0.7057535618541978,0.6760959474648746 l -25.07815071264004 25.732391895663724" fill="#9fff22" stroke="none" /><path d="M 117.62189284568427 88.57770195909679 l 13.849592158581038 -8.97713831116682 a37.50455134854772,37.50455134854772 0 0,0 0.3455460556882074,0.5432557932161804 l -14.001655905895134 8.738068843271968" fill="#ff2403" stroke="none" /><line stroke="#e1ed5e" stroke-width="0.3" x1="172.87174338648825" x2="177.1583165268699" y1="56.24261187166439" y2="53.66864786411523" /><path d="M 173.72905801456457 55.72781907015455 a86.0,86.0 0 0,1 12.242430191666344,42.057860355516425" fill="none" id="id27" stroke="none" /><text fill="#e1ed5e" style="font-size:6.75px; font-family:Arial;" text-anchor="middle"><textPath startOffset="22.145653131862474" xlink:href="#id27">March</textPath></text><path d="M 118.00360718960297 89.18935116829356 l 18.799202279102033 -11.288380823647001 a42.92800829875519,42.92800829875519 0 0,0 0.37393625188618235,0.6350255059758482 l -18.99021224111798 10.964004149377596" fill="#ff840c" stroke="none" /><path d="M 118.36410011445183 89.81374322990088 l 16.816296033228586 -9.327715937557052 a40.23003112033195,40.23003112033195 0 0,0 0.32979937821355654,0.6067937098348303 l -16.973940761057484 9.037667394247618" fill="#ff5507" stroke="none" /><path d="M 119.31412917781788 91.75594674310238 l 24.960857271337844 -10.654305704813462 a48.13961358921162,48.13961358921162 0 0,0 0.31789144089637894,0.7628237338356434 l -25.140074556770706 10.22424946153654" fill="#ffdb14" stroke="none" /><path d="M 119.4528033332814 92.08871423366111 l 25.110310153330257 -10.212144537775803 a48.10748184647303,48.10748184647303 0 0,0 0.3045463038434876,0.7676556300557136 l -25.281915132139872 9.779587890506523" fill="#ffda14" stroke="none" /><path d="M 120.77682067341334 96.94652285012252 l 24.388517482902184 -3.5842722052620495 a45.650492738589215,45.650492738589215 0 0,0 0.10729057802884906,0.7763011758751095 l -24.446452577486248 3.165082721186854" fill="#ffb210" stroke="none" /><path d="M 120.96210409425399 98.7389718711861 l 28.055841032166867 -1.687769727695984 a49.1065612033195,49.1065612033195 0 0,0 0.04339712967557829,0.8418927220698541 l -28.080679751299016 1.2059052122493992" fill="#ffea16" stroke="none" /><line stroke="#e1ed5e" stroke-width="0.3" x1="184.99686870605535" x2="189.99668451229388" y1="99.2704041080226" y2="99.22748670261217" /><path d="M 185.99683186730306 99.26182062694052 a86.0,86.0 0 0,1 -10.086455211305974,41.156179273409016" fill="none" id="id28" stroke="none" /><text fill="#e1ed5e" style="font-size:6.75px; font-family:Arial;" text-anchor="middle"><textPath startOffset="21.40746469413373" xlink:href="#id28">April</textPath></text><path d="M 120.9064616781168 101.97986365728391 l 24.21972379728101 2.2936330247544 a45.328086099585065,45.328086099585065 0 0,0 -0.08000970024269843,0.7740212708991011 l -24.176781704556646 -2.7090588179364326" fill="#ffad10" stroke="none" /><path d="M 120.82617615685814 102.69636545807757 l 27.565788168615246 3.5689431647326813 a48.79586358921162,48.79586358921162 0 0,0 -0.11468302083578834,0.8297892094848206 l -27.500460631224247 -4.041620682417587" fill="#ffe515" stroke="none" /><path d="M 120.51834098615036 104.47187691870673 l 26.746742989337353 5.829328146234273 a48.374610995850624,48.374610995850624 0 0,0 -0.1837985016115272,0.8098501111998657 l -26.64273362616816 -6.287612591373155" fill="#ffde14" stroke="none" /><path d="M 120.43855184770803 104.8234425847677 l 26.84388586751165 6.335083972621062 a48.58128890041493,48.58128890041493 0 0,0 -0.19851812217004888,0.8100216829291177 l -26.731180218825305 -6.794961480158279" fill="#ffe215" stroke="none" /><path d="M 120.16314734710363 105.8691983318838 l 26.18045590770517 7.62074915668029 a48.26705134854772,48.26705134854772 0 0,0 -0.23840172325929232,0.7935618007718661 l -26.045777864442247 -8.06904856104288" fill="#ffdd14" stroke="none" /><path d="M 119.83427380445688 106.89939002012753 l 25.900547355101658 9.009554859400716 a48.42280860995851,48.42280860995851 0 0,0 -0.2798373247094879,0.7827548017589455 l -25.742069860348227 -9.452844617540583" fill="#ffdf14" stroke="none" /><path d="M 119.71291397450082 107.23885506374661 l 19.25971121935573 7.0724327345450675 a41.517206950207466,41.517206950207466 0 0,0 -0.25141499132343986,0.666908134383262 l -19.135465544217848 -7.402009149122488" fill="#ff6c09" stroke="none" /><path d="M 119.0197475246899 108.90220220490707 l 24.677826462856864 11.550468841123077 a48.24717323651453,48.24717323651453 0 0,0 -0.35753623335252693,0.7471132165339839 l -24.475910971544423 -11.972394559722165" fill="#ffdc14" stroke="none" /><path d="M 118.8641267826498 109.22738970284198 l 24.591365689405038 12.028869247737482 a48.37570020746888,48.37570020746888 0 0,0 -0.37129521704205015,0.7428391548895994 l -24.381250559151255 -12.449240258790828" fill="#ffde14" stroke="none" /><line stroke="#e1ed5e" stroke-width="0.3" x1="174.33088141563837" x2="178.70328620479359" y1="141.23008692659167" y2="143.65538615756765" /><path d="M 175.20536237346943 141.71514677278685 a86.0,86.0 0 0,1 -30.301960400862466,31.631185727798858" fill="none" id="id29" stroke="none" /><text fill="#e1ed5e" style="font-size:6.75px; font-family:Arial;" text-anchor="middle"><textPath startOffset="22.145653131862474" xlink:href="#id29">May</textPath></text><path d="M 117.21940702142032 112.02048342749411 l 14.993298515150084 10.46648680181833 a39.285140041493776,39.285140041493776 0 0,0 -0.39076536222876784,0.549660418861772 l -14.811418054391355 -10.722324447389607" fill="#ff4406" stroke="none" /><path d="M 117.01052211995028 112.31430620078461 l 22.43681691602 16.242525169216947 a48.69892375518672,48.69892375518672 0 0,0 -0.4960286399845513,0.6729581151976751 l -22.15468625645162 -16.6252895936835" fill="#ffe415" stroke="none" /><path d="M 116.35404254752997 113.17365903436017 l 21.417179475237777 17.2521637426639 a48.501504149377595,48.501504149377595 0 0,0 -0.527865383097674,0.643909937668455 l -21.117867272901478 -17.617275962030845" fill="#ffe015" stroke="none" /><path d="M 113.31354834802062 116.24036423190432 l 9.222290797453448 11.249695249384871 a35.546693464730296,35.546693464730296 0 0,0 -0.4752241336495719,0.38280692271674416 l -9.027815893448624 -11.40635046589502" fill="#ff0000" stroke="none" /><path d="M 112.16784306229584 117.11559508785304 l 17.493641072770373 24.60699695754286 a51.19158454356847,51.19158454356847 0 0,0 -0.7205944610320187,0.5030308979864637 l -17.068651520564597 -24.903672671334448" fill="#f3ff19" stroke="none" /><line stroke="#e1ed5e" stroke-width="0.3" x1="143.1302829299769" x2="145.66735839644613" y1="173.24464959558577" y2="177.55315839532614" /><path d="M 143.63769802327073 174.10635135553383 a86.0,86.0 0 0,1 -40.68552437913181,11.842963189579606" fill="none" id="id30" stroke="none" /><text fill="#e1ed5e" style="font-size:6.75px; font-family:Arial;" text-anchor="middle"><textPath startOffset="21.407464694133747" xlink:href="#id30">June</textPath></text><path d="M 110.34350942703117 118.27599006163325 l 13.566467564110502 23.97064827196841 a48.5434387966805,48.5434387966805 0 0,0 -0.7287429146448786,0.40422141034405434 l -13.152980461309529 -24.20000259774561" fill="#ffe115" stroke="none" /><path d="M 109.06512990194946 118.94263497670748 l 7.624018742744321 15.931266916354348 a38.66156639004149,38.66156639004149 0 0,0 -0.6011160840835522,0.28135267948153064 l -7.349413944789262 -16.05979582740641" fill="#ff3905" stroke="none" /><path d="M 108.73861861582097 119.09545874513695 l 11.42195922060904 24.959042232476005 a48.44840508298755,48.44840508298755 0 0,0 -0.7592247983729771,0.3395915953626624 l -10.991821019380437 -25.151437578748517" fill="#ffe015" stroke="none" /><path d="M 108.4095320186766 119.2426549942271 l 8.917462518456102 20.4048993791222 a43.26838692946058,43.26838692946058 0 0,0 -0.6831561647506332,0.2915987437554466 l -8.565871278535036 -20.55497277253705" fill="#ff8a0c" stroke="none" /><path d="M 107.74402155503746 119.51999308798841 l 6.5656489804995415 16.549724430214233 a38.80452541493776,38.80452541493776 0 0,0 -0.6212932278703267,0.24032956743890724 l -6.280583490135686 -16.65999388579118" fill="#ff3c05" stroke="none" /><path d="M 107.407793817531 119.65005319985036 l 12.503917951287342 33.16812792060842 a56.446758298755185,56.446758298755185 0 0,0 -0.909628350583628,0.3340281299998185 l -11.932700449049586 -33.37788689961696" fill="#a6ff21" stroke="none" /><path d="M 105.69591212413111 120.21278271476187 l 7.420122037744189 26.331395428404452 a48.35691130705394,48.35691130705394 0 0,0 -0.8009253879021287,0.21829577602972683 l -6.967015248907366 -26.45489169857832" fill="#ffde14" stroke="none" /><path d="M 105.3480935250658 120.30758222061773 l 4.501982411225971 17.094760505449717 a38.677632261410785,38.677632261410785 0 0,0 -0.6435123801291206,0.1635783305932324 l -4.2078647378714535 -17.169524067878218" fill="#ff3a05" stroke="none" /><path d="M 104.9986988182912 120.39639698878246 l 7.340736997768848 29.952711983539675 a51.83912085062241,51.83912085062241 0 0,0 -0.8661276516607623,0.20440376744861488 l -6.825477192368206 -30.074311894634516" fill="#eaff1a" stroke="none" /><path d="M 104.29559338865022 120.5559693870025 l 3.6991007849280284 17.70153634543859 a39.08390819502075,39.08390819502075 0 0,0 -0.6579189955297714,0.1316022252020595 l -3.3946853038672984 -17.76242796730351" fill="#ff4106" stroke="none" /><path d="M 103.2317021107853 120.74984581791261 l 4.248607130526319 27.279105523090077 a48.607974585062244,48.607974585062244 0 0,0 -0.8255830572262564,0.12133227889829354 l -3.7796989676923776 -27.348018875287256" fill="#ffe215" stroke="none" /><path d="M 102.875027216393 120.80226474461374 l 2.48273064743418 17.963802193945032 a39.13455653526971,39.13455653526971 0 0,0 -0.6662605662775342,0.08626076930585938 l -2.1739922592658707 -18.003774559451287" fill="#ff4206" stroke="none" /><path d="M 102.51750503828377 120.84855314841334 l 5.297206659392938 43.86847013095605 a65.18713692946059,65.18713692946059 0 0,0 -1.1121052780599257,0.12461371603624526 l -4.543365479732213 -43.95293960749927" fill="#31ff2f" stroke="none" /><path d="M 101.80034050326958 120.92268563240118 l 1.5089524046983813 17.536314236347877 a38.60111514522822,38.60111514522822 0 0,0 -0.6606875056879166,0.05114139142006205 l -1.2076959042352289 -17.559633394762994" fill="#ff3805" stroke="none" /><line stroke="#e1ed5e" stroke-width="0.3" x1="101.45913802915013" x2="101.54496967792366" y1="184.9874750549273" y2="189.98673829345242" /><path d="M 101.47630435890484 185.9873277026323 a86.0,86.0 0 0,1 -42.54439059252881,-10.42667462771756" fill="none" id="id31" stroke="none" /><text fill="#e1ed5e" style="font-size:6.75px; font-family:Arial;" text-anchor="middle"><textPath startOffset="22.145653131862474" xlink:href="#id31">July</textPath></text><path d="M 100.0 121.0 l 3.809750424478209e-15 31.108973029045643 a52.10897302904564,52.10897302904564 0 0,0 -0.8945198141957436,-0.007678376764520776 l 0.5340268893468877 -31.104389050475557" fill="#e5ff1a" stroke="none" /><path d="M 98.91894614982273 120.97215588758144 l -1.6086002790876828 31.20641567328217 a52.24784751037345,52.24784751037345 0 0,0 -0.8953182388347899,-0.05386012197698518 l 2.144062870054919 -31.174203573480494" fill="#e3ff1b" stroke="none" /><path d="M 98.55909050195518 120.95050786540614 l -1.4984001428254732 21.786409223054665 a42.8378760373444,42.8378760373444 0 0,0 -0.733202897418882,-0.05675454135942875 l 1.8721720350195914 -21.757476914700185" fill="#ff830c" stroke="none" /><path d="M 98.19965949673042 120.92268563240118 l -1.8910812130233303 21.97723022593261 a43.058441390041494,43.058441390041494 0 0,0 -0.7358901626117439,-0.0696895635014499 l 2.2680709390200895 -21.941528906925978" fill="#ff870c" stroke="none" /><path d="M 97.84075906011543 120.88869738790638 l -2.267230985334968 21.933403116966982 a43.05027230290456,43.05027230290456 0 0,0 -0.7344460472590564,-0.08229621150323428 l 2.643412934194824 -21.89125114495678" fill="#ff860c" stroke="none" /><path d="M 97.12497278360702 120.80226474461374 l -8.574008162580661 62.03725192704504 a83.62694502074689,83.62694502074689 0 0,0 -1.4203634182679445,-0.20874450958480578 l 9.63769668645629 -61.88092634416135" fill="#4cd6ff" stroke="none" /><path d="M 89.97174638481275 118.45085714620012 l -9.638540491682114 17.733828893254554 a41.18390819502075,41.18390819502075 0 0,0 -0.6182603053774193,-0.3429385693872451 l 9.941544985215636 -17.56575740843416" fill="#ff6609" stroke="none" /><line stroke="#e1ed5e" stroke-width="0.3" x1="58.13341422392154" x2="55.67067388415222" y1="173.97424548756322" y2="178.32567169271397" /><path d="M 57.64086615596768 174.84453072859336 a86.0,86.0 0 0,1 -31.369924170532247,-30.572349798747897" fill="none" id="id32" stroke="none" /><text fill="#e1ed5e" style="font-size:6.75px; font-family:Arial;" text-anchor="middle"><textPath startOffset="22.145653131862474" xlink:href="#id32">August</textPath></text><path d="M 88.1277618465304 117.32195027204791 l -13.355806087662886 19.486520225000795 a44.62418309128631,44.62418309128631 0 0,0 -0.6281489321021376,-0.43849673911181114 l 13.688350110938789 -19.254378670083856" fill="#ffa10e" stroke="none" /><path d="M 86.13680546590413 115.77377054828092 l -41.58958360228758 47.321311644842766 a84.0,84.0 0 0,0 -1.0749398927065164,-0.9612178804664708 l 42.39578852181747 -46.600398234492914" fill="#4dd2ff" stroke="none" /><line stroke="#e1ed5e" stroke-width="0.3" x1="26.387840678322732" x2="22.057713659400548" y1="142.50000000000003" y2="145.00000000000006" /><path d="M 25.521815274538298 143.00000000000003 a86.0,86.0 0 0,1 -11.493303480769221,-40.785679425670985" fill="none" id="id33" stroke="none" /><text fill="#e1ed5e" style="font-size:6.75px; font-family:Arial;" text-anchor="middle"><textPath startOffset="21.40746469413373" xlink:href="#id33">September</textPath></text><path d="M 80.83023694016515 108.57439118712176 l -22.916467398539336 10.250244381669047 a46.10442168049792,46.10442168049792 0 0,0 -0.31694839904124866,-0.7252399634341495 l 23.08904967959755 -9.855342348459049" fill="#ffba11" stroke="none" /><path d="M 79.48165901384964 104.47187691870673 l -26.66399916093106 5.811294513950593 a48.28992479253112,48.28992479253112 0 0,0 -0.16957188563430517,-0.811462858473766 l 26.759828757389734 -5.352715204191418" fill="#ffdd14" stroke="none" /><path d="M 79.407916724674 104.11899336999214 l -16.531074528769558 3.30667788549771 a37.85854512448133,37.85854512448133 0 0,0 -0.12200133892271063,-0.6383625581023502 l 16.585402159974425 -3.022412762362045" fill="#ff2b04" stroke="none" /><line stroke="#e1ed5e" stroke-width="0.3" x1="15.003131293944662" x2="10.003315487706104" y1="100.72959589197737" y2="100.7725132973878" /><path d="M 14.003168132696942 100.73817937305945 a86.0,86.0 0 0,1 10.791469493833604,-42.45332614584628" fill="none" id="id34" stroke="none" /><text fill="#e1ed5e" style="font-size:6.75px; font-family:Arial;" text-anchor="middle"><textPath startOffset="22.145653131862435" xlink:href="#id34">October</textPath></text><line stroke="#e1ed5e" stroke-width="0.3" x1="26.387840678322718" x2="22.05771365940052" y1="57.49999999999999" y2="54.99999999999999" /><path d="M 25.521815274538284 56.99999999999999 a86.0,86.0 0 0,1 29.574782752854787,-30.34633250058573" fill="none" id="id35" stroke="none" /><text fill="#e1ed5e" style="font-size:6.75px; font-family:Arial;" text-anchor="middle"><textPath startOffset="21.40746469413373" xlink:href="#id35">November</textPath></text><path d="M 81.81346652052679 89.5 l -14.534841688373074 -8.391694761410792 a37.78338952282158,37.78338952282158 0 0,0 0.3291226316252913,-0.5589221815796851 l 14.388645346618004 8.63996811128405" fill="#ff2904" stroke="none" /><line stroke="#e1ed5e" stroke-width="0.3" x1="56.869717070023135" x2="54.33264160355391" y1="26.7553504044142" y2="22.446841604673864" /><path d="M 56.362301976729285 25.89364864446614 a86.0,86.0 0 0,1 42.16139366436587,-11.88097634709845" fill="none" id="id36" stroke="none" /><text fill="#e1ed5e" style="font-size:6.75px; font-family:Arial;" text-anchor="middle"><textPath startOffset="22.145653131862474" xlink:href="#id36">December</textPath></text></svg>