<?xml version="1.0" encoding="utf-8" ?>
<svg baseProfile="full" height="200mm" version="1.1" viewBox="0,0,200,200" width="200mm" xmlns="http://www.w3.org/2000/svg" xmlns:ev="http://www.w3.org/2001/xml-events" xmlns:xlink="http://www.w3.org/1999/xlink"><defs /><rect fill="#1a1a1a" height="200" width="200" x="0" y="0" /><text alignment-baseline="middle" fill="#e1ed5e" style="dominant-baseline: central; font-size:9.0px; font-family:Arial;" text-anchor="middle" x="100.0" y="100.0">2016</text><line stroke="#e1ed5e" stroke-width="0.3" x1="100.0" x2="100.0" y1="15.0" y2="10.0" /><path d="M 100.0 14.0 a86.0,86.0 0 0,1 42.35913384403234,11.155469271406648" fill="none" id="id25" stroke="none" /><text fill="#e1ed5e" style="font-size:6.75px; font-family:Arial;" text-anchor="middle"><textPath startOffset="22.145653131862478" xlink:href="#id25">January</textPath></text><path d="M 100.0 79.0 l 0.0 -57.549777566622026 a78.54977756662203,78.54977756662203 0 0,0 1.348411383867549,0.011574489994067575 l -0.9879184590186945 57.54129747482239" fill="#44ffea" stroke="none" /><path d="M 102.87502721639298 79.19773525538626 l 5.011584823841588 -36.26133126713022 a57.606012179847106,57.606012179847106 0 0,0 0.978410395743312,0.14379263476186155 l -5.633320325192582 36.16995755906947" fill="#95ff23" stroke="none" /><path d="M 105.69591212413111 79.78721728523813 l 8.3833454608049 -29.749535549213505 a51.908176046300696,51.908176046300696 0 0,0 0.8555950197123818,0.24905124066285203 l -8.892800492898887 29.601240614248137" fill="#e8ff1a" stroke="none" /><line stroke="#e1ed5e" stroke-width="0.3" x1="143.13028292997686" x2="145.6673583964461" y1="26.7553504044142" y2="22.446841604673864" /><path d="M 143.63769802327073 25.89364864446614 a86.0,86.0 0 0,1 29.32050498858742,28.57503671076993" fill="none" id="id26" stroke="none" /><text fill="#e1ed5e" style="font-size:6.75px; font-family:Arial;" text-anchor="middle"><textPath startOffset="20.669276256404974" xlink:href="#id26">February</textPath></text><path d="M 112.16784306229584 82.88440491214696 l 13.0418171914626 -18.344949151304846 a43.50835744827884,43.50835744827884 0 0,0 0.6050126943968874,0.4379825334947946 l -13.354810896233456 18.118365846436976" fill="#ff8f0d" stroke="none" /><path d="M 114.39649973595853 84.71141617570332 l 24.6791808629635 -26.208434845865987 a56.999222562950806,56.999222562950806 0 0,0 0.7065936151153713,0.6769006994863053 l -25.12544696394418 25.7809220160741" fill="#9dff22" stroke="none" /><path d="M 117.62189284568427 88.57770195909679 l 13.912261016985394 -9.017759508040857 a37.57923379259707,37.57923379259707 0 0,0 0.34623413814866877,0.5443375731314847 l -14.065012846759952 8.7776082602307" fill="#ff2703" stroke="none" /><line stroke="#e1ed5e" stroke-width="0.3" x1="172.87174338648825" x2="177.1583165268699" y1="56.24261187166439" y2="53.66864786411523" /><path d="M 173.72905801456457 55.72781907015455 a86.0,86.0 0 0,1 12.242430191666344,42.057860355516425" fill="none" id="id27" stroke="none" /><text fill="#e1ed5e" style="font-size:6.75px; font-family:Arial;" text-anchor="middle"><textPath startOffset="22.145653131862474" xlink:href="#id27">March</textPath></text><path d="M 118.00360718960297 89.18935116829356 l 18.937496199006215 -11.371422349042403 a43.08931887876301,43.08931887876301 0 0,0 0.375341392167975,0.6374117413673396 l -19.12991130130396 11.044659439381507" fill="#ff880c" stroke="none" /><path d="M 118.36410011445183 89.81374322990088 l 17.013343733209165 -9.437014975105864 a40.45536215609208,40.45536215609208 0 0,0 0.33164660610318025,0.6101924010941246 l -17.172835688927684 9.143567740537137" fill="#ff5a08" stroke="none" /><path d="M 119.31412917781788 91.75594674310238 l 25.055897032131377 -10.69487252728271 a48.24294907787328,48.24294907787328 0 0,0 0.31857382002112017,0.7644611953236243 l -25.23579669668898 10.263178822517808" fill="#ffdd14" stroke="none" /><path d="M 119.4528033332814 92.08871423366111 l 25.24839947170731 -10.268304261402408 a48.256554226234186,48.256554226234186 0 0,0 0.305490012400221,0.7700343920947381 l -25.420948159073653 9.833368852094104" fill="#ffdd14" stroke="none" /><path d="M 120.77682067341334 96.94652285012252 l 24.23977368074294 -3.5624119886187806 a45.50015116831512,45.50015116831512 0 0,0 0.10693723608205256,0.773744569565184 l -24.297355433380204 3.145779110853511" fill="#ffb010" stroke="none" /><path d="M 120.96210409425399 98.7389718711861 l 28.429621675967248 -1.7102554430477963 a49.4810175787155,49.4810175787155 0 0,0 0.04372804944439746,0.8483124771790195 l -28.454791314868217 1.2219711724920461" fill="#fff116" stroke="none" /><line stroke="#e1ed5e" stroke-width="0.3" x1="184.99686870605535" x2="189.99668451229388" y1="99.2704041080226" y2="99.22748670261217" /><path d="M 185.99683186730306 99.26182062694052 a86.0,86.0 0 0,1 -10.086455211305974,41.156179273409016" fill="none" id="id28" stroke="none" /><text fill="#e1ed5e" style="font-size:6.75px; font-family:Arial;" text-anchor="middle"><textPath startOffset="21.40746469413373" xlink:href="#id28">April</textPath></text><path d="M 120.9064616781168 101.97986365728391 l 24.534594664022443 2.3234516232048197 a45.6443657409407,45.6443657409407 0 0,0 -0.08056797308135606,0.7794220541888205 l -24.491094298459423 -2.7442781996765713" fill="#ffb310" stroke="none" /><path d="M 120.82617615685814 102.69636545807757 l 27.576041223202164 3.570270627922262 a48.80620222001468,48.80620222001468 0 0,0 -0.11470731931776179,0.8299650211961052 l -27.51068938732919 -4.0431239573184525" fill="#ffe615" stroke="none" /><path d="M 120.51834098615036 104.47187691870673 l 26.857376665065996 5.853440240933184 a48.48784174836954,48.48784174836954 0 0,0 -0.18422871990622539,0.8117457323869085 l -26.752937083602106 -6.313620307259109" fill="#ffe115" stroke="none" /><path d="M 120.43855184770803 104.8234425847677 l 26.86151661443043 6.339244780887859 a48.59940396492895,48.59940396492895 0 0,0 -0.1985921459078234,0.8103237250399001 l -26.74873694200631 -6.799424330535859" fill="#ffe315" stroke="none" /><path d="M 120.16314734710363 105.8691983318838 l 26.395060378497995 7.683217390449013 a48.49056277804172,48.49056277804172 0 0,0 -0.23950569602064314,0.7972365670467214 l -26.259278362473722 -8.135191561086458" fill="#ffe115" stroke="none" /><path d="M 119.83427380445688 106.89939002012753 l 26.02108006782611 9.051482393701624 a48.5504254308297,48.5504254308297 0 0,0 -0.28057482736093836,0.7848177279334011 l -25.861865070421228 -9.496835078015947" fill="#ffe215" stroke="none" /><path d="M 119.71291397450082 107.23885506374661 l 19.241227612393395 7.065645298043865 a41.497516520537296,41.497516520537296 0 0,0 -0.25129575234836576,0.6665918388354357 l -19.117101176230587 -7.394905417073459" fill="#ff6c0a" stroke="none" /><path d="M 119.0197475246899 108.90220220490707 l 24.68878728920789 11.555599061299926 a48.25927525590636,48.25927525590636 0 0,0 -0.3576259155067146,0.7473006177437929 l -24.486782115741264 -11.97771218110882" fill="#ffdd14" stroke="none" /><path d="M 118.8641267826498 109.22738970284198 l 24.85831244930013 12.1594462848749 a48.67287176607783,48.67287176607783 0 0,0 -0.3735760807376499,0.7474024101708163 l -24.645916455350747 -12.584380551209462" fill="#ffe415" stroke="none" /><line stroke="#e1ed5e" stroke-width="0.3" x1="174.33088141563837" x2="178.70328620479359" y1="141.23008692659167" y2="143.65538615756765" /><path d="M 175.20536237346943 141.71514677278685 a86.0,86.0 0 0,1 -30.301960400862466,31.631185727798858" fill="none" id="id29" stroke="none" /><text fill="#e1ed5e" style="font-size:6.75px; font-family:Arial;" text-anchor="middle"><textPath startOffset="22.145653131862474" xlink:href="#id29">May</textPath></text><path d="M 117.21940702142032 112.02048342749411 l 14.955515734191733 10.440111486350757 a39.239061892627305,39.239061892627305 0 0,0 -0.3903070274865824,0.5490157136480559 l -14.77409360817519 -10.695304426708317" fill="#ff4506" stroke="none" /><path d="M 117.01052211995028 112.31430620078461 l 22.309917276137444 16.15065961616315 a48.54226234181316,48.54226234181316 0 0,0 -0.49443294665456333,0.670793250733769 l -22.029382309899052 -16.531259176165797" fill="#ffe215" stroke="none" /><path d="M 116.35404254752997 113.17365903436017 l 21.224302270469515 17.09679551956353 a48.253833196562,48.253833196562 0 0,0 -0.5251698600477595,0.6406218378334765 l -20.927685591183128 -17.4586196390955" fill="#ffdd14" stroke="none" /><path d="M 113.31354834802062 116.24036423190432 l 9.184295521728734 11.203347190946134 a35.486761974690104,35.486761974690104 0 0,0 -0.4744229089038459,0.38216151277731114 l -8.990621842469634 -11.35935699751685" fill="#ff0000" stroke="none" /><path d="M 112.16784306229584 117.11559508785304 l 17.363338095935397 24.423709502335615 a50.96669977972617,50.96669977972617 0 0,0 -0.7174288876933514,0.5008210819452591 l -16.941514117068287 -24.718175400085997" fill="#f6ff19" stroke="none" /><line stroke="#e1ed5e" stroke-width="0.3" x1="143.1302829299769" x2="145.66735839644613" y1="173.24464959558577" y2="177.55315839532614" /><path d="M 143.63769802327073 174.10635135553383 a86.0,86.0 0 0,1 -40.68552437913181,11.842963189579606" fill="none" id="id30" stroke="none" /><text fill="#e1ed5e" style="font-size:6.75px; font-family:Arial;" text-anchor="middle"><textPath startOffset="21.407464694133747" xlink:href="#id30">June</textPath></text><path d="M 110.34350942703117 118.27599006163325 l 13.43186431275078 23.732817224250223 a48.27015937459508,48.27015937459508 0 0,0 -0.7246403943558419,0.40194581149585473 l -13.022479730238844 -23.95989595117922" fill="#ffdd14" stroke="none" /><path d="M 109.06512990194946 118.94263497670748 l 7.627817593822805 15.939205054041171 a38.67036669114154,38.67036669114154 0 0,0 -0.6012529125421472,0.28141672210902696 l -7.3530759674091515 -16.067798007720732" fill="#ff3a05" stroke="none" /><path d="M 108.73861861582097 119.09545874513695 l 11.33872847823148 24.777168039623557 a48.24839113721764,48.24839113721764 0 0,0 -0.756090421763699,0.33818962857299334 l -10.911724653612154 -24.9681614191064" fill="#ffdd14" stroke="none" /><path d="M 108.4095320186766 119.2426549942271 l 8.852291899934606 20.255776250131852 a43.10564505679609,43.10564505679609 0 0,0 -0.6805866649041272,0.29050197706288344 l -8.503270159860048 -20.40475287685414" fill="#ff880c" stroke="none" /><path d="M 107.74402155503746 119.51999308798841 l 6.532230854311825 16.465488921885434 a38.713903165896426,38.713903165896426 0 0,0 -0.6198422891197116,0.23976831316045497 l -6.248616302698584 -16.57519712318393" fill="#ff3b05" stroke="none" /><path d="M 107.407793817531 119.65005319985036 l 12.502031849869288 33.16312481251471 a56.44141148015376,56.44141148015376 0 0,0 -0.9095421876589204,0.33399648978038504 l -11.930900510556242 -33.37285215130381" fill="#a5ff21" stroke="none" /><path d="M 105.69591212413111 120.21278271476187 l 7.3906876876926 26.226943303972533 a48.24839113721764,48.24839113721764 0 0,0 -0.7991279910715196,0.21780588753087562 l -6.939378295686386 -26.34994968564755" fill="#ffdd14" stroke="none" /><path d="M 105.3480935250658 120.30758222061773 l 4.506368789379725 17.11141629775974 a38.69485595819116,38.69485595819116 0 0,0 -0.643798945295128,0.1636511743378271 l -4.2119645508592 -17.186252703932837" fill="#ff3b05" stroke="none" /><path d="M 104.9986988182912 120.39639698878246 l 7.114288578600254 29.028725157619295 a50.88778991923293,50.88778991923293 0 0,0 -0.8502328214237499,0.20065263079205883 l -6.614923603436625 -29.14657393205758" fill="#f7ff18" stroke="none" /><path d="M 104.29559338865022 120.5559693870025 l 3.677404939162783 17.597713869467313 a38.97784304409795,38.97784304409795 0 0,0 -0.6561335477386334,0.1312450856394502 l -3.3747749058931915 -17.658248351769625" fill="#ff4006" stroke="none" /><path d="M 103.2317021107853 120.74984581791261 l 4.242682043771007 27.241062215750524 a48.56947263853496,48.56947263853496 0 0,0 -0.8249291201923746,0.12123617267387143 l -3.7744278179709467 -27.309879461723277" fill="#ffe215" stroke="none" /><path d="M 102.875027216393 120.80226474461374 l 2.484744724226828 17.9783750503054 a39.14926791344534,39.14926791344534 0 0,0 -0.6665110255141218,0.08629319626840426 l -2.1757558768219307 -18.018379842774195" fill="#ff4306" stroke="none" /><path d="M 102.51750503828377 120.84855314841334 l 5.258674736168867 43.549370531538656 a64.86571934522524,64.86571934522524 0 0,0 -1.106621831344415,0.12399928439439695 l -4.510317003223653 -43.633225576440026" fill="#35ff2f" stroke="none" /><path d="M 101.80034050326958 120.92268563240118 l 1.5064914659156414 17.507714397362783 a38.57240962294303,38.57240962294303 0 0,0 -0.6601961887959895,0.0511033603853217 l -1.205726282344416 -17.530995524743158" fill="#ff3905" stroke="none" /><line stroke="#e1ed5e" stroke-width="0.3" x1="101.45913802915013" x2="101.54496967792366" y1="184.9874750549273" y2="189.98673829345242" /><path d="M 101.47630435890484 185.9873277026323 a86.0,86.0 0 0,1 -42.54439059252881,-10.42667462771756" fill="none" id="id31" stroke="none" /><text fill="#e1ed5e" style="font-size:6.75px; font-family:Arial;" text-anchor="middle"><textPath startOffset="22.145653131862474" xlink:href="#id31">July</textPath></text><path d="M 100.0 121.0 l 3.4009456641565536e-15 27.770828834276337 a48.77082883427634,48.77082883427634 0 0,0 -0.837216130179572,-0.007186493556470418 l 0.47672320533071644 -27.7667367389143" fill="#ffe515" stroke="none" /><path d="M 98.91894614982273 120.97215588758144 l -1.584670955002214 30.742193178794388 a51.78300868138038,51.78300868138038 0 0,0 -0.8873527684556806,-0.05338093905898583 l 2.1121680755903407 -30.71046026191071" fill="#eaff1a" stroke="none" /><path d="M 98.55909050195518 120.95050786540614 l -1.5070645015614983 21.912387097511115 a42.964151513842694,42.964151513842694 0 0,0 -0.7353641984404543,-0.05692183972752143 l 1.8829976947771887 -21.88328749078854" fill="#ff860c" stroke="none" /><path d="M 98.19965949673042 120.92268563240118 l -1.8899959518192253 21.964617845684934 a43.04578240400812,43.04578240400812 0 0,0 -0.7356738142491496,-0.06966907508657569 l 2.2667693294533904 -21.928937015093176" fill="#ff870c" stroke="none" /><path d="M 97.84075906011543 120.88869738790638 l -2.272364909136069 21.983069172622404 a43.10020299745173,43.10020299745173 0 0,0 -0.7352978746525987,-0.08239166053942261 l 2.649398685389467 -21.940821751576014" fill="#ff880c" stroke="none" /><path d="M 97.12497278360702 120.80226474461374 l -8.575908290318667 62.05100030480969 a83.64082408327215,83.64082408327215 0 0,0 -1.4205991474660618,-0.20877915365914826 l 9.639832543392414 -61.894640077851655" fill="#4cd6ff" stroke="none" /><path d="M 89.97174638481275 118.45085714620012 l -9.646666285900334 17.7487794393888 a41.2009242862696,41.2009242862696 0 0,0 -0.6185157540279485,-0.34308026244759793 l 9.949926228084385 -17.580566261508057" fill="#ff6709" stroke="none" /><line stroke="#e1ed5e" stroke-width="0.3" x1="58.13341422392154" x2="55.670673884152215" y1="173.97424548756322" y2="178.32567169271397" /><path d="M 57.64086615596767 174.84453072859336 a86.0,86.0 0 0,1 -31.369924170532244,-30.572349798747897" fill="none" id="id32" stroke="none" /><text fill="#e1ed5e" style="font-size:6.75px; font-family:Arial;" text-anchor="middle"><textPath startOffset="22.145653131862474" xlink:href="#id32">August</textPath></text><path d="M 88.1277618465304 117.32195027204791 l -13.355691052790958 19.486352385684796 a44.62397961387293,44.62397961387293 0 0,0 -0.6281460678677456,-0.43849473965375796 l 13.688232211832469 -19.254212830225907" fill="#ffa20f" stroke="none" /><path d="M 86.13680546590413 115.77377054828092 l -41.58958360228758 47.321311644842766 a84.0,84.0 0 0,0 -1.0749398927065164,-0.9612178804664708 l 42.39578852181747 -46.600398234492914" fill="#4dd2ff" stroke="none" /><line stroke="#e1ed5e" stroke-width="0.3" x1="26.387840678322732" x2="22.057713659400548" y1="142.50000000000003" y2="145.00000000000006" /><path d="M 25.521815274538298 143.00000000000003 a86.0,86.0 0 0,1 -11.493303480769221,-40.785679425670985" fill="none" id="id33" stroke="none" /><text fill="#e1ed5e" style="font-size:6.75px; font-family:Arial;" text-anchor="middle"><textPath startOffset="21.40746469413373" xlink:href="#id33">September</textPath></text><path d="M 80.83023694016515 108.57439118712176 l -22.618217391636858 10.116840947168505 a45.77769619487755,45.77769619487755 0 0,0 -0.31470229951719464,-0.7201004481640869 l 22.788553573171022 -9.727078429228568" fill="#ffb510" stroke="none" /><path d="M 79.48165901384964 104.47187691870673 l -26.663297423673225 5.811141573581367 a48.28920658230035,48.28920658230035 0 0,0 -0.16956936361208963,-0.8114507896844824 l 26.75912449810968 -5.352574332611477" fill="#ffde14" stroke="none" /><path d="M 79.407916724674 104.11899336999214 l -16.74813286216317 3.3500956312495993 a38.07990325227832,38.07990325227832 0 0,0 -0.12271467821992503,-0.6420950507338713 l 16.80317383266525 -3.0620980154824133" fill="#ff3004" stroke="none" /><line stroke="#e1ed5e" stroke-width="0.3" x1="15.003131293944662" x2="10.003315487706104" y1="100.72959589197737" y2="100.7725132973878" /><path d="M 14.003168132696942 100.73817937305945 a86.0,86.0 0 0,1 10.791469493833615,-42.45332614584628" fill="none" id="id34" stroke="none" /><text fill="#e1ed5e" style="font-size:6.75px; font-family:Arial;" text-anchor="middle"><textPath startOffset="22.145653131862435" xlink:href="#id34">October</textPath></text><line stroke="#e1ed5e" stroke-width="0.3" x1="26.387840678322718" x2="22.05771365940052" y1="57.49999999999999" y2="54.99999999999999" /><path d="M 25.521815274538284 56.99999999999999 a86.0,86.0 0 0,1 29.574782752854787,-30.34633250058573" fill="none" id="id35" stroke="none" /><text fill="#e1ed5e" style="font-size:6.75px; font-family:Arial;" text-anchor="middle"><textPath startOffset="21.40746469413373" xlink:href="#id35">November</textPath></text><path d="M 81.81346652052679 89.5 l -14.633745895675979 -8.44879713212111 a37.897594264242215,37.897594264242215 0 0,0 0.3301174435126129,-0.560611589651002 l 14.486554742033588 8.698759890065684" fill="#ff2c04" stroke="none" /><line stroke="#e1ed5e" stroke-width="0.3" x1="56.869717070023135" x2="54.33264160355391" y1="26.7553504044142" y2="22.446841604673864" /><path d="M 56.362301976729285 25.89364864446614 a86.0,86.0 0 0,1 42.16139366436587,-11.88097634709845" fill="none" id="id36" stroke="none" /><text fill="#e1ed5e" style="font-size:6.75px; font-family:Arial;" text-anchor="middle"><textPath startOffset="22.145653131862474" xlink:href="#id36">December</textPath></text></svg>