<?xml version="1.0" encoding="utf-8" ?>
<svg baseProfile="full" height="200mm" version="1.1" viewBox="0,0,200,200" width="200mm" xmlns="http://www.w3.org/2000/svg" xmlns:ev="http://www.w3.org/2001/xml-events" xmlns:xlink="http://www.w3.org/1999/xlink"><defs /><rect fill="#1a1a1a" height="200" width="200" x="0" y="0" /><text alignment-baseline="middle" fill="#e1ed5e" style="dominant-baseline: central; font-size:9.0px; font-family:Arial;" text-anchor="middle" x="100.0" y="100.0">2015</text><line stroke="#e1ed5e" stroke-width="0.3" x1="100.0" x2="100.0" y1="15.0" y2="10.0" /><path d="M 100.0 14.0 a86.0,86.0 0 0,1 42.46469731375804,11.215312516191453" fill="none" id="id13" stroke="none" /><text fill="#e1ed5e" style="font-size:6.75px; font-family:Arial;" text-anchor="middle"><textPath startOffset="22.20632615414155" xlink:href="#id13">January</textPath></text><line stroke="#e1ed5e" stroke-width="0.3" x1="143.23703022742887" x2="145.7803849466894" y1="26.81831364943548" y2="22.513508569990506" /><path d="M 143.74570117128098 25.957352633546492 a86.0,86.0 0 0,1 28.547481713284135,27.462654790039103" fill="none" id="id14" stroke="none" /><text fill="#e1ed5e" style="font-size:6.75px; font-family:Arial;" text-anchor="middle"><textPath startOffset="19.985693538727396" xlink:href="#id14">February</textPath></text><path d="M 111.2981086023043 82.29822771554956 l 6.909471507906176 -10.825696188998215 a33.842760392340026,33.842760392340026 0 0,0 0.48835582558860763,0.3176402134638825 l -7.094794359279064 10.705157051374805" fill="#ff800b" stroke="none" /><path d="M 111.90073688211348 82.69761687909136 l 6.870299292990308 -9.98867143271512 a33.12330686595049,33.12330686595049 0 0,0 0.4669895103344282,0.3271559953228349 l -7.041219942908387 9.86893059462835" fill="#ff760a" stroke="none" /><path d="M 113.34407831869373 83.78471172551755 l 7.563306417438036 -9.190683008446731 a32.90261560018683,32.90261560018683 0 0,0 0.4342243775201498,0.36365042854854407 l -7.720388331917303 9.059131422504366" fill="#ff730a" stroke="none" /><path d="M 114.16331599549186 84.49514656593476 l 6.745601737787503 -7.384539489358395 a31.001728164409155,31.001728164409155 0 0,0 0.3909053907938476,0.36330395833436885 l -6.871715012376198 7.267330944949385" fill="#ff5708" stroke="none" /><path d="M 114.94478906791727 85.2469230424477 l 8.692548260755428 -8.581040044483828 a33.21452592246614,33.21452592246614 0 0,0 0.39815633994496114,0.41033510724364314 l -8.8389688644035 8.430140741690067" fill="#ff770b" stroke="none" /><path d="M 116.82858285166822 87.43820079747576 l 11.325691280228266 -8.45413193410424 a35.1330686595049,35.1330686595049 0 0,0 0.3575833480791374,0.4877432849196995 l -11.469537240821031 8.257926205513046" fill="#ff920d" stroke="none" /><path d="M 117.2510076193507 88.02491185347247 l 11.62690518202852 -8.071019241214024 a35.15366651097618,35.15366651097618 0 0,0 0.3407822116035776,0.5000558452119866 l -11.76411185930083 7.869685372731632" fill="#ff920d" stroke="none" /><line stroke="#e1ed5e" stroke-width="0.3" x1="172.23445277983987" x2="176.4835382374775" y1="55.19839476539836" y2="52.563006222186495" /><path d="M 173.08426987136738 54.67131705675599 a86.0,86.0 0 0,1 12.851231095245387,41.99856678651699" fill="none" id="id15" stroke="none" /><text fill="#e1ed5e" style="font-size:6.75px; font-family:Arial;" text-anchor="middle"><textPath startOffset="22.20632615414155" xlink:href="#id15">March</textPath></text><path d="M 117.84615892207809 88.93136811851018 l 10.395116670585512 -6.447310051100398 a33.23218122372723,33.23218122372723 0 0,0 0.29732389716321567,0.48872231088140466 l -10.50455636603495 6.267419967011912" fill="#ff770b" stroke="none" /><path d="M 119.85752413597 93.16781622104841 l 8.423912329049392 -2.89833298329415 a29.908570761326484,29.908570761326484 0 0,0 0.16330465061486696,0.4882601195301887 l -8.47255427343603 2.7528997608416472" fill="#ff4706" stroke="none" /><path d="M 120.08093135843002 93.85539295169968 l 11.308537570695504 -3.4603235488723456 a32.826109294722094,32.826109294722094 0 0,0 0.16068240267924613,0.5417411823332035 l -11.366425870486454 3.2651529797926124" fill="#ff710a" stroke="none" /><path d="M 120.28053869075195 94.5502522615342 l 11.419525183856146 -3.0686330621706865 a32.824638019617,32.824638019617 0 0,0 0.14193321605765097,0.5469265796728139 l -11.470654731784103 2.8716100569490224" fill="#ff710a" stroke="none" /><path d="M 120.37134235888165 94.90015583598534 l 9.165676830598171 -2.294572575056193 a30.448528724894906,30.448528724894906 0 0,0 0.12290650077082926,0.5095267937224219 l -9.203816131629818 2.1364605496743647" fill="#ff4f07" stroke="none" /><path d="M 120.45610955862082 95.25157060432595 l 10.055118962864347 -2.334071506775981 a31.32246613731901,31.32246613731901 0 0,0 0.11739304275931489,0.5262499922275318 l -10.0938063926257 2.160643344998485" fill="#ff5c08" stroke="none" /><path d="M 120.67395015179393 96.31383870115 l 16.365831113857052 -2.918024510675343 a37.6239374124241,37.6239374124241 0 0,0 0.10819235917218706,0.6385574282525424 l -16.41363533454946 2.6358812941069623" fill="#ffb410" stroke="none" /><path d="M 120.78858239683441 97.02765380044208 l 7.666821420149676 -1.0962001677584905 a28.74479215319944,28.74479215319944 0 0,0 0.06581736252270214,0.49041579950737724 l -7.684554781730214 0.9640660261864489" fill="#ff3605" stroke="none" /><path d="M 120.87857604477298 97.74499172005257 l 21.978090033118697 -2.3737622190245307 a43.105908453993464,43.105908453993464 0 0,0 0.07332699762168404,0.7383928591483814 l -22.01569415642261 1.9950938291717142" fill="#fffd17" stroke="none" /><path d="M 120.94382443527127 98.46500227214037 l 9.483414572056855 -0.6950506993337325 a30.508851004203642,30.508851004203642 0 0,0 0.03387849402630349,0.5240853076105308 l -9.493973657087574 0.5317063274701664" fill="#ff5007" stroke="none" /><path d="M 120.98425023603335 99.18683210126433 l 9.507600159488161 -0.3684322840581667 a30.514736104624006,30.514736104624006 0 0,0 0.015821608110119303,0.5250421475261358 l -9.512533462053925 0.2047199891070319" fill="#ff5007" stroke="none" /><line stroke="#e1ed5e" stroke-width="0.3" x1="184.98032266829074" x2="189.97916517819016" y1="98.17113171792111" y2="98.06355123074" /><path d="M 185.9800911702706 98.14961562048488 a86.0,86.0 0 0,1 -9.607161424134198,41.387399972396054" fill="none" id="id16" stroke="none" /><text fill="#e1ed5e" style="font-size:6.75px; font-family:Arial;" text-anchor="middle"><textPath startOffset="21.466115282336823" xlink:href="#id16">April</textPath></text><path d="M 120.9764740272857 100.99374915477107 l 11.86429762883775 0.5620647075992621 a32.87760392340028,32.87760392340028 0 0,0 -0.03164649282697159,0.5650693883369816 l -11.85286478512325 -0.7662058122716671" fill="#ff720a" stroke="none" /><path d="M 120.92983693683757 101.71520430193887 l 9.484412795945733 0.777249515993037 a30.5162073797291,30.5162073797291 0 0,0 -0.0474096945645788,0.5231620289339969 l -9.46962850510408 -0.9403929334756045" fill="#ff5007" stroke="none" /><path d="M 120.32669344350535 105.2749913415812 l 9.203976160115019 2.3885288912171414 a30.508851004203642,30.508851004203642 0 0,0 -0.13629019053840216,0.507186500188751 l -9.16149789323484 -2.5466063245814405" fill="#ff5007" stroke="none" /><path d="M 119.79798401119884 107.00284435728193 l 9.329372288135685 3.299939127539342 a30.895796356842595,30.895796356842595 0 0,0 -0.1816610136663411,0.49985308930891525 l -9.271187013464116 -3.4600400138543885" fill="#ff5607" stroke="none" /><path d="M 118.97047184881838 109.00673069616215 l 11.042037374123057 5.242497801754918 a33.22335357309669,33.22335357309669 0 0,0 -0.24972372218339084,0.5145048334210272 l -10.950160395324952 -5.43179159114122" fill="#ff770b" stroke="none" /><path d="M 118.64920377521936 109.65438752849418 l 13.104963605706455 6.784225145548574 a35.75688930406352,35.75688930406352 0 0,0 -0.28766841721912767,0.544160234705043 l -12.986242680262434 -7.008800395339752" fill="#ff9b0e" stroke="none" /><line stroke="#e1ed5e" stroke-width="0.3" x1="174.80103733775053" x2="179.2010983576182" y1="140.37084112569926" y2="142.7455964860345" /><path d="M 175.68104954172406 140.8457921977663 a86.0,86.0 0 0,1 -30.038265399797805,32.042727171017184" fill="none" id="id17" stroke="none" /><text fill="#e1ed5e" style="font-size:6.75px; font-family:Arial;" text-anchor="middle"><textPath startOffset="22.206326154141568" xlink:href="#id17">May</textPath></text><path d="M 118.48025628344425 109.97397251340804 l 12.961642619352668 6.99552350525885 a35.728935077066794,35.728935077066794 0 0,0 -0.29676043536266566,0.538706390078578 l -12.839305774538495 -7.217600413735234" fill="#ff9a0e" stroke="none" /><path d="M 118.30583269289576 110.29060199501025 l 15.492839252464792 8.70928109059251 a38.77300326950024,38.77300326950024 0 0,0 -0.3320593924379423,0.5789735400850445 l -15.340627863874467 -8.97467447653587" fill="#ffc412" stroke="none" /><path d="M 118.12598468904814 110.60418214915192 l 16.883580086938 9.877342480591423 a40.560602522185896,40.560602522185896 0 0,0 -0.3577428228719785,0.5995975484621616 l -16.711056388367794 -10.166502122939688" fill="#ffdc14" stroke="none" /><line stroke="#e1ed5e" stroke-width="0.3" x1="143.8653032363475" x2="146.44561519142675" y1="172.8068346515853" y2="177.08958963109032" /><path d="M 144.38136562736335 173.6633856474863 a86.0,86.0 0 0,1 -40.68145358897372,12.25698825130547" fill="none" id="id18" stroke="none" /><text fill="#e1ed5e" style="font-size:6.75px; font-family:Arial;" text-anchor="middle"><textPath startOffset="21.466115282336833" xlink:href="#id18">June</textPath></text><path d="M 106.2309692047433 120.05430185196036 l 3.499790760001898 11.264035820679556 a32.79521251751518,32.79521251751518 0 0,0 -0.5405354176601196,0.16285888726135042 l -3.305380367901533 -11.322610077046633" fill="#ff710a" stroke="none" /><path d="M 105.88484417918355 120.15858648285463 l 3.537090953751682 12.116336765745668 a33.62206912657636,33.62206912657636 0 0,0 -0.5569557101413485,0.15740124696616417 l -3.328004075505728 -12.175426806050352" fill="#ff7d0b" stroke="none" /><path d="M 105.53697534728816 120.25689768951611 l 3.4967512223579256 12.792784383930284 a34.26207379729099,34.26207379729099 0 0,0 -0.5702343924405224,0.1506040858232839 l -3.276026387105906 -12.851079819057153" fill="#ff860c" stroke="none" /><path d="M 103.7750983002368 120.6578951692458 l 2.1351963039102126 11.684109367210745 a32.87760392340028,32.87760392340028 0 0,0 -0.5575901168025512,0.09694418903620426 l -1.9337572156356113 -11.719132134767955" fill="#ff720a" stroke="none" /><path d="M 101.98527174616119 120.90594882070398 l 1.3946510835187949 14.686404635114354 a35.75247547874825,35.75247547874825 0 0,0 -0.6131646284989227,0.05290642420908825 l -1.1416421372783303 -14.708235311602104" fill="#ff9b0e" stroke="none" /><path d="M 101.62511606390274 120.93702456842531 l 1.2591423552569116 16.222037928693293 a37.27083138720224,37.27083138720224 0 0,0 -0.6400595111883146,0.044142251326386654 l -0.9797200832896668 -16.241308524535963" fill="#ffb010" stroke="none" /><line stroke="#e1ed5e" stroke-width="0.3" x1="102.19456741930631" x2="102.32365962044197" y1="184.97166512339345" y2="189.96999836594603" /><path d="M 102.22038585953345 185.97133177190398 a86.0,86.0 0 0,1 -42.740103519485714,-10.115201625700543" fill="none" id="id19" stroke="none" /><text fill="#e1ed5e" style="font-size:6.75px; font-family:Arial;" text-anchor="middle"><textPath startOffset="22.20632615414155" xlink:href="#id19">July</textPath></text><path d="M 96.93821686468263 120.77559828337769 l -1.3128056600753568 8.90798655961734 a30.004203643157403,30.004203643157403 0 0,0 -0.5103059753486904,-0.0796992983770217 l 1.4659474990325645 -8.884068953893212" fill="#ff4806" stroke="none" /><path d="M 96.58105272829116 120.7198165907248 l -2.078196160393224 12.594474222872144 a33.7647828117702,33.7647828117702 0 0,0 -0.5726362917349909,-0.09956015941115756 l 2.294681423600265 -12.556835484939981" fill="#ff7f0b" stroke="none" /><path d="M 93.42475214034765 119.94407469862007 l -2.4360049520206655 7.388902405859616 a28.780102755721625,28.780102755721625 0 0,0 -0.4691571553552508,-0.15916357956260035 l 2.5628318403131423 -7.345875839398892" fill="#ff3605" stroke="none" /><path d="M 93.08242187328487 119.8279376855182 l -4.942950442389134 14.16803851853807 a36.005534796823916,36.005534796823916 0 0,0 -0.5834275809726147,-0.20919637317770712 l 5.186097583991476 -14.080854604320406" fill="#ff9e0e" stroke="none" /><path d="M 92.7421414339146 119.70592522655815 l -4.2809839748626555 11.623366498065836 a33.38666510976179,33.38666510976179 0 0,0 -0.5375726525292437,-0.2032639789231838 l 4.480426848152183 -11.54795426903602" fill="#ff790b" stroke="none" /><path d="M 92.40401165467489 119.57807347666478 l -4.531516167242645 11.679633044404527 a33.52790751985054,33.52790751985054 0 0,0 -0.5362532143016902,-0.21338622097569496 l 4.731890457586194 -11.599899979022766" fill="#ff7b0b" stroke="none" /><path d="M 92.06813273071674 119.44442032107085 l -12.651902530577201 31.015258111851 a54.49652031760859,54.49652031760859 0 0,0 -0.8655307087618518,-0.3617919064590743 l 13.183904698836516 -30.792881162371955" fill="#79ff26" stroke="none" /><path d="M 91.40352486487194 119.15986991738527 l -3.9918802332294776 8.89712408774612 a30.751611396543673,30.751611396543673 0 0,0 -0.48108992978514087,-0.2208447907933723 l 4.144438158782037 -8.827092226618673" fill="#ff5307" stroke="none" /><path d="M 91.07499286063937 119.00905698771935 l -8.151311985196532 17.361191048008596 a40.1795422699673,40.1795422699673 0 0,0 -0.6235239919681496,-0.29932940763530713 l 8.448948645164924 -17.218307363873727" fill="#ffd714" stroke="none" /><line stroke="#e1ed5e" stroke-width="0.3" x1="58.666819895761336" x2="56.23545636021788" y1="174.27360380694188" y2="178.64263932499728" /><path d="M 58.180547188652646 175.14741091055294 a86.0,86.0 0 0,1 -31.652253787137756,-30.449443065178592" fill="none" id="id20" stroke="none" /><text fill="#e1ed5e" style="font-size:6.75px; font-family:Arial;" text-anchor="middle"><textPath startOffset="22.20632615414155" xlink:href="#id20">August</textPath></text><path d="M 88.54995079064634 117.60387380957326 l -8.043646199592898 12.366700795557529 a35.75247547874825,35.75247547874825 0 0,0 -0.5130059735440926,-0.3399923859042963 l 8.255326871876953 -12.226410388561916" fill="#ff9b0e" stroke="none" /><path d="M 87.95078237400918 117.19931262002967 l -7.00582370934828 10.000263575452566 a33.21011209715086,33.21011209715086 0 0,0 -0.4653727823460318,-0.3320311237901719 l 7.176923819543196 -9.878188189818177" fill="#ff770a" stroke="none" /><path d="M 87.07902340077011 116.55440617244103 l -7.484631096854228 9.589338876721799 a33.16450256889304,33.16450256889304 0 0,0 -0.44699828380386214,-0.3551224707920842 l 7.648586873375448 -9.459082491924583" fill="#ff760a" stroke="none" /><path d="M 86.51685102203217 116.09983520530335 l -9.296193537518553 11.100313749793802 a35.47881830920131,35.47881830920131 0 0,0 -0.46483084605291913,-0.39613893129614713 l 9.485889860148529 -10.938650428274704" fill="#ff970d" stroke="none" /><path d="M 85.70375840098266 115.38237550388516 l -21.16491461201555 22.772884874306214 a52.08951424567959,52.08951424567959 0 0,0 -0.6515261331585336,-0.6160586251122069 l 21.553776579564897 -22.40519161244808" fill="#94ff23" stroke="none" /><path d="M 84.19399662182784 113.82643327865904 l -9.164676596759893 8.01687728730842 a33.17627276973377,33.17627276973377 0 0,0 -0.3722970087005128,-0.43306553003084536 l 9.301316115031184 -7.857934658116044" fill="#ff760a" stroke="none" /><path d="M 83.72743513129214 113.27417163493432 l -11.687973029004644 9.534339626437184 a36.083512377393745,36.083512377393745 0 0,0 -0.3884683723178784,-0.4846740242093875 l 11.850359313377384 -9.331737768649537" fill="#ff9f0e" stroke="none" /><path d="M 82.85270091963577 112.12312394758628 l -9.927973815982952 7.019067933408668 a33.15861746847268,33.15861746847268 0 0,0 -0.32548987260518364,-0.4688924376695905 l 10.047324595750268 -6.847134233552067" fill="#ff760a" stroke="none" /><line stroke="#e1ed5e" stroke-width="0.3" x1="26.63291911575756" x2="22.317208475507996" y1="142.92168965132927" y2="145.44649492493687" /><path d="M 25.769776987707644 143.4266507060508 a86.0,86.0 0 0,1 -11.730757126820373,-40.83630448921669" fill="none" id="id21" stroke="none" /><text fill="#e1ed5e" style="font-size:6.75px; font-family:Arial;" text-anchor="middle"><textPath startOffset="21.46611528233685" xlink:href="#id21">September</textPath></text><path d="M 81.87401531095188 110.60418214915194 l -12.71570420537872 7.439024464698158 a35.73187762727697,35.73187762727697 0 0,0 -0.3060146126187323,-0.5335622711492203 l 12.841870814149829 -7.219042347690631" fill="#ff9a0e" stroke="none" /><path d="M 81.69416730710424 110.29060199501025 l -19.271142599961586 10.833249806890985 a43.107379729098554,43.107379729098554 0 0,0 -0.35804495007077053,-0.6499555855644137 l 19.454763959483873 -10.499923702928749" fill="#fffd17" stroke="none" /><path d="M 81.18737489456691 109.33194174019688 l -13.20134888295314 6.54848634772153 a35.73629145259225,35.73629145259225 0 0,0 -0.2686122488789972,-0.5534207930107827 l 13.312114388446854 -6.3202765987454645" fill="#ff9a0e" stroke="none" /><path d="M 80.32549172779595 107.34259656027581 l -6.897564646948325 2.5741956927337806 a28.36226062587576,28.36226062587576 0 0,0 -0.16676433763535725,-0.4588638347394263 l 6.9408532455889045 -2.455084060988237" fill="#ff3004" stroke="none" /><path d="M 80.20201598880116 107.00284435728193 l -10.300314988357954 3.6433761464625594 a31.925688930406352,31.925688930406352 0 0,0 -0.17879779746047908,-0.5196700928139409 l 10.361503616761661 -3.4655333505593213" fill="#ff6409" stroke="none" /><path d="M 80.0844068197444 106.66101706037122 l -13.979518547850136 4.675623301811722 a35.74070527790752,35.74070527790752 0 0,0 -0.1901197016041289,-0.5851282757197016 l 14.057930500470514 -4.4342961261142175" fill="#ff9b0e" stroke="none" /><path d="M 79.76711848015287 105.62410040840567 l -21.298391744677932 5.920278512584907 a43.105908453993464,43.105908453993464 0 0,0 -0.19256419967164645,-0.7166030226187765 l 21.397144020691353 -5.552784556790591" fill="#fffd17" stroke="none" /><path d="M 79.67330655649465 105.27499134158121 l -10.002897810405063 2.5958574859831693 a31.33423633815974,31.33423633815974 0 0,0 -0.13099006789023754,-0.5232402075016778 l 10.046099192590361 -2.4232894390840998" fill="#ff5c08" stroke="none" /><path d="M 79.50377843672027 104.57218783832718 l -30.540423181305467 6.812794788337861 a52.29107893507707,52.29107893507707 0 0,0 -0.1884121311313692,-0.8801987510175374 l 30.653169351161274 -6.28608221790416" fill="#91ff23" stroke="none" /><path d="M 79.07016306316243 101.71520430193888 l -62.78951081051271 5.145612905816642 a84.0,84.0 0 0,0 -0.10569376534265862,-1.4421074540129575 l 62.86878113451971 -4.064032315306924" fill="#4dd2ff" stroke="none" /><line stroke="#e1ed5e" stroke-width="0.3" x1="15.007084014347285" x2="10.007500721073583" y1="101.09737516637583" y2="101.16192664675087" /><path d="M 14.007167355692545 101.11028546245083 a86.0,86.0 0 0,1 10.666146001902534,-42.60595125391555" fill="none" id="id22" stroke="none" /><text fill="#e1ed5e" style="font-size:6.75px; font-family:Arial;" text-anchor="middle"><textPath startOffset="22.20632615414155" xlink:href="#id22">October</textPath></text><path d="M 79.12142395522702 97.74499172005258 l -8.881927632685306 -0.9593001127398945 a29.93358243811303,29.93358243811303 0 0,0 0.05973837491996607,-0.5118019147034969 l 8.864098904761752 1.1120457657682532" fill="#ff4706" stroke="none" /><path d="M 80.95270993114464 91.15688171328213 l -16.977087173468796 -7.881981609782214 a39.71756188696871,39.71756188696871 0 0,0 0.29323250148369717,-0.617622431736008 l 16.838896478143347 8.173046457158753" fill="#ffd113" stroke="none" /><line stroke="#e1ed5e" stroke-width="0.3" x1="26.266209847984257" x2="21.92892807433627" y1="57.711370442889674" y2="55.22380399835377" /><path d="M 25.39875349325466 57.213857153982495 a86.0,86.0 0 0,1 29.58750427330802,-30.492523968695096" fill="none" id="id23" stroke="none" /><text fill="#e1ed5e" style="font-size:6.75px; font-family:Arial;" text-anchor="middle"><textPath startOffset="21.46611528233685" xlink:href="#id23">November</textPath></text><path d="M 82.95767976084542 87.72973835380427 l -9.609289580900239 -6.918570695603686 a32.840822045773,32.840822045773 0 0,0 0.33425292890325103,-0.45592061938303663 l 9.488774039483356 7.082953758658222" fill="#ff720a" stroke="none" /><path d="M 86.37877921826538 84.01681056812374 l -2.7207450104198085 -3.1925319759653825 a25.194605324614667,25.194605324614667 0 0,0 0.33249976071461057,-0.2784589874172741 l 2.665387712746088 3.2388921207764687" fill="#ff0000" stroke="none" /><path d="M 86.65592168130627 83.78471172551755 l -6.79762681844153 -8.260254160002 a31.697641289117236,31.697641289117236 0 0,0 0.4242904399948772,-0.3430800283869035 l 6.654432979882152 8.376040285653039" fill="#ff6109" stroke="none" /><path d="M 88.39885842347998 82.49532879139004 l -7.477615775617765 -11.282786673461814 a34.535730966837924,34.535730966837924 0 0,0 0.49835548912355204,-0.32414427278574365 l 7.282293260709926 11.409829870407092" fill="#ff8a0c" stroke="none" /><line stroke="#e1ed5e" stroke-width="0.3" x1="56.762969772571076" x2="54.21961505331055" y1="26.818313649435495" y2="22.513508569990535" /><path d="M 56.25429882871897 25.957352633546506 a86.0,86.0 0 0,1 42.265352541879196,-11.944610805530505" fill="none" id="id24" stroke="none" /><text fill="#e1ed5e" style="font-size:6.75px; font-family:Arial;" text-anchor="middle"><textPath startOffset="22.20632615414155" xlink:href="#id24">December</textPath></text><path d="M 90.58718382345135 81.22770947309562 l -8.368657446081428 -16.689890246596217 a39.67048108360579,39.67048108360579 0 0,0 0.6130576649118786,-0.30082473369205553 l 8.080128514159123 16.8314701404231" fill="#ffd013" stroke="none" /><path d="M 90.91171255644093 81.06846463323043 l -11.53121571248398 -24.020324999453297 a47.64479215319944,47.64479215319944 0 0,0 0.742400671934681,-0.348567069979525 l 11.11603682924969 24.21525705207283" fill="#c8ff1d" stroke="none" /><path d="M 95.33964822691252 79.52364482259891 l -1.685105710011992 -7.403909556555372 a28.593250817375058,28.593250817375058 0 0,0 0.4808530745837755,-0.10509585755526846 l 1.5574099112746955 7.431818912206508" fill="#ff3404" stroke="none" /></svg>