<?xml version="1.0" encoding="utf-8" ?>
<svg baseProfile="full" height="200mm" version="1.1" viewBox="0,0,200,200" width="200mm" xmlns="http://www.w3.org/2000/svg" xmlns:ev="http://www.w3.org/2001/xml-events" xmlns:xlink="http://www.w3.org/1999/xlink"><defs /><rect fill="#1a1a1a" height="200" width="200" x="0" y="0" /><text alignment-baseline="middle" fill="#e1ed5e" style="dominant-baseline: central; font-size:9.0px; font-family:Arial;" text-anchor="middle" x="100.0" y="100.0">2017</text><line stroke="#e1ed5e" stroke-width="0.3" x1="100.0" x2="100.0" y1="15.0" y2="10.0" /><path d="M 100.0 14.0 a86.0,86.0 0 0,1 42.46469731375804,11.215312516191453" fill="none" id="id37" stroke="none" /><text fill="#e1ed5e" style="font-size:6.75px; font-family:Arial;" text-anchor="middle"><textPath startOffset="22.20632615414155" xlink:href="#id37">January</textPath></text><line stroke="#e1ed5e" stroke-width="0.3" x1="143.23703022742887" x2="145.7803849466894" y1="26.81831364943548" y2="22.513508569990506" /><path d="M 143.74570117128098 25.957352633546492 a86.0,86.0 0 0,1 28.547481713284135,27.462654790039103" fill="none" id="id38" stroke="none" /><text fill="#e1ed5e" style="font-size:6.75px; font-family:Arial;" text-anchor="middle"><textPath startOffset="19.985693538727396" xlink:href="#id38">February</textPath></text><path d="M 113.89432698308785 84.25364557470407 l 12.148828056805943 -13.768191339335509 a39.361838576525734,39.361838576525734 0 0,0 0.5041858135764627,0.45266300156637485 l -12.384024857978396 13.557029328999837" fill="#ff4106" stroke="none" /><path d="M 115.19652480421416 85.50635884689758 l 12.80922344251298 -12.216759451095486 a38.701000443086684,38.701000443086684 0 0,0 0.45562628485555345,0.4860303530599005 l -13.017617049338996 11.994459681157531" fill="#ff3505" stroke="none" /><line stroke="#e1ed5e" stroke-width="0.3" x1="172.23445277983987" x2="176.4835382374775" y1="55.19839476539836" y2="52.563006222186495" /><path d="M 173.08426987136738 54.67131705675599 a86.0,86.0 0 0,1 12.851231095245387,41.99856678651699" fill="none" id="id39" stroke="none" /><text fill="#e1ed5e" style="font-size:6.75px; font-family:Arial;" text-anchor="middle"><textPath startOffset="22.20632615414155" xlink:href="#id39">March</textPath></text><path d="M 118.3937258080291 89.86733742301442 l 15.491033647330118 -8.533639054715549 a38.686014785102955,38.686014785102955 0 0,0 0.3162893053389,0.5860360467725197 l -15.635631051887483 8.26572202461057" fill="#ff3405" stroke="none" /><path d="M 119.04729006885535 91.15688171328212 l 21.45381995703531 -9.960402077995608 a44.65324502693501,44.65324502693501 0 0,0 0.31767101652819235,0.6999459760309341 l -21.622093290526852 9.589634093122612" fill="#ff9d0e" stroke="none" /><path d="M 119.196687751892 91.48605970444005 l 26.870080305239185 -11.917173546418713 a50.394221216855954,50.394221216855954 0 0,0 0.34486275043358505,0.7959907755010995 l -27.07123376551545 11.45288362633101" fill="#fffb17" stroke="none" /><line stroke="#e1ed5e" stroke-width="0.3" x1="184.98032266829074" x2="189.97916517819016" y1="98.17113171792111" y2="98.06355123074" /><path d="M 185.9800911702706 98.14961562048488 a86.0,86.0 0 0,1 -9.607161424134198,41.387399972396054" fill="none" id="id40" stroke="none" /><text fill="#e1ed5e" style="font-size:6.75px; font-family:Arial;" text-anchor="middle"><textPath startOffset="21.466115282336823" xlink:href="#id40">April</textPath></text><path d="M 118.64920377521936 109.65438752849418 l 15.809006714179556 8.184064000741001 a38.80178633893799,38.80178633893799 0 0,0 -0.3121649751598658,0.5904984905600255 l -15.665789230794799 -8.454977506387161" fill="#ff3605" stroke="none" /><line stroke="#e1ed5e" stroke-width="0.3" x1="174.80103733775053" x2="179.2010983576182" y1="140.37084112569926" y2="142.7455964860345" /><path d="M 175.68104954172406 140.8457921977663 a86.0,86.0 0 0,1 -30.038265399797805,32.042727171017184" fill="none" id="id41" stroke="none" /><text fill="#e1ed5e" style="font-size:6.75px; font-family:Arial;" text-anchor="middle"><textPath startOffset="22.206326154141568" xlink:href="#id41">May</textPath></text><path d="M 117.14729908036423 112.12312394758627 l 12.137749304025737 8.581377076809426 a35.86489121055945,35.86489121055945 0 0,0 -0.36073284609146594,0.5010263726347257 l -11.988236665558668 -8.789037054895283" fill="#ff0000" stroke="none" /><path d="M 116.93607887273984 112.41649034213515 l 14.232609739932673 10.43447321585742 a38.64781604906602,38.64781604906602 0 0,0 -0.3979597517833871,0.5331321211670295 l -14.050888721454195 -10.677918216533763" fill="#ff3404" stroke="none" /><line stroke="#e1ed5e" stroke-width="0.3" x1="143.8653032363475" x2="146.44561519142675" y1="172.8068346515853" y2="177.08958963109032" /><path d="M 144.38136562736335 173.6633856474863 a86.0,86.0 0 0,1 -40.68145358897372,12.25698825130547" fill="none" id="id42" stroke="none" /><text fill="#e1ed5e" style="font-size:6.75px; font-family:Arial;" text-anchor="middle"><textPath startOffset="21.466115282336833" xlink:href="#id42">June</textPath></text><path d="M 107.59598834532513 119.57807347666477 l 6.417468477284548 16.540529509867106 a38.7418437070031,38.7418437070031 0 0,0 -0.6237986219042331,0.23586726247789316 l -6.131799634620041 -16.648545022451632" fill="#ff3505" stroke="none" /><path d="M 107.2578585660854 119.70592522655815 l 6.258843048712617 16.9934825816283 a39.10943308225088,39.10943308225088 0 0,0 -0.6337226225119198,0.22723038566183626 l -5.965400865570962 -17.098700508330094" fill="#ff3c05" stroke="none" /><path d="M 106.91757812671514 119.82793768551818 l 5.920489278843097 16.969969885171857 a38.97309297824211,38.97309297824211 0 0,0 -0.6353175870239954,0.21553421951594157 l -5.627501958881875 -17.06936709158592" fill="#ff3905" stroke="none" /><path d="M 106.57524785965236 119.94407469862006 l 7.361284462766796 22.32828485510116 a44.51044052144306,44.51044052144306 0 0,0 -0.7297140281967676,0.23363138821910068 l -6.975849089479087 -22.45168908997997" fill="#ff9b0e" stroke="none" /><line stroke="#e1ed5e" stroke-width="0.3" x1="102.19456741930631" x2="102.32365962044197" y1="184.97166512339345" y2="189.96999836594603" /><path d="M 102.22038585953345 185.97133177190398 a86.0,86.0 0 0,1 -42.740103519485714,-10.115201625700543" fill="none" id="id43" stroke="none" /><text fill="#e1ed5e" style="font-size:6.75px; font-family:Arial;" text-anchor="middle"><textPath startOffset="22.20632615414155" xlink:href="#id43">July</textPath></text><path d="M 92.06813273071674 119.44442032107085 l -6.66172525320946 16.330755607639134 a38.63723793754809,38.63723793754809 0 0,0 -0.613648646588557,-0.25650518404239653 l 6.941845359295479 -16.213665380576767" fill="#ff3304" stroke="none" /><path d="M 90.42595943632237 118.69057910512821 l -7.138566827600852 13.936012397389131 a36.65795573797253,36.65795573797253 0 0,0 -0.5591369865549358,-0.2925140449195672 l 7.377394716682283 -13.811068933524847" fill="#ff0f01" stroke="none" /><line stroke="#e1ed5e" stroke-width="0.3" x1="58.666819895761336" x2="56.23545636021788" y1="174.27360380694188" y2="178.64263932499728" /><path d="M 58.180547188652646 175.14741091055294 a86.0,86.0 0 0,1 -31.652253787137756,-30.449443065178592" fill="none" id="id44" stroke="none" /><text fill="#e1ed5e" style="font-size:6.75px; font-family:Arial;" text-anchor="middle"><textPath startOffset="22.20632615414155" xlink:href="#id44">August</textPath></text><path d="M 87.36589467227662 116.77436683061367 l -10.648817472513237 14.138489901949663 a38.70011893379352,38.70011893379352 0 0,0 -0.5286643964757445,-0.40535731581125745 l 10.890610597482468 -13.953093244311038" fill="#ff3505" stroke="none" /><path d="M 83.95833913139862 113.55231037782056 l -13.617436369156167 11.504277876005013 a38.82646859914648,38.82646859914648 0 0,0 -0.42691366235956785,-0.5142450079466014 l 13.81344603140927 -11.26817161094465" fill="#ff3705" stroke="none" /><path d="M 83.72743513129214 113.27417163493432 l -18.237218744276852 14.876817128005428 a44.5354166180826,44.5354166180826 0 0,0 -0.4794599988820361,-0.5982000689503494 l 18.49059665521375 -14.56068922547682" fill="#ff9b0e" stroke="none" /><path d="M 83.50135304334701 112.99209946851258 l -12.156926107846882 9.573148249033485 a36.473720295702066,36.473720295702066 0 0,0 -0.38417801333829876,-0.4966018699571096 l 12.319910938403249 -9.362468384963124" fill="#ff0b01" stroke="none" /><path d="M 82.24976979558568 111.22182372390057 l -12.90827239682879 8.160703030278457 a36.271560831137336,36.271560831137336 0 0,0 -0.32909594822697186,-0.530607454973018 l 13.046832984723718 -7.937299243940174" fill="#ff0801" stroke="none" /><line stroke="#e1ed5e" stroke-width="0.3" x1="26.63291911575756" x2="22.317208475507996" y1="142.92168965132927" y2="145.44649492493687" /><path d="M 25.769776987707644 143.4266507060508 a86.0,86.0 0 0,1 -11.730757126820373,-40.83630448921669" fill="none" id="id45" stroke="none" /><text fill="#e1ed5e" style="font-size:6.75px; font-family:Arial;" text-anchor="middle"><textPath startOffset="21.46611528233685" xlink:href="#id45">September</textPath></text><path d="M 81.69416730710424 110.29060199501025 l -35.98369775697572 20.22819273714253 a62.279611016534126,62.279611016534126 0 0,0 -0.5172873034031794,-0.9390267119309743 l 36.326561469830416 -19.60579550681373" fill="#58ff2a" stroke="none" /><path d="M 79.18660465613746 102.79330883721812 l -62.440186031587636 8.379926511654372 a84.0,84.0 0 0,0 -0.1799939630126075,-1.4347289828503655 l 62.5751815038471 -7.303879774516597" fill="#4dd2ff" stroke="none" /><line stroke="#e1ed5e" stroke-width="0.3" x1="15.007084014347285" x2="10.007500721073583" y1="101.09737516637583" y2="101.16192664675087" /><path d="M 14.007167355692545 101.11028546245083 a86.0,86.0 0 0,1 10.666146001902534,-42.60595125391555" fill="none" id="id46" stroke="none" /><text fill="#e1ed5e" style="font-size:6.75px; font-family:Arial;" text-anchor="middle"><textPath startOffset="22.20632615414155" xlink:href="#id46">October</textPath></text><line stroke="#e1ed5e" stroke-width="0.3" x1="26.266209847984243" x2="21.928928074336255" y1="57.711370442889674" y2="55.22380399835377" /><path d="M 25.398753493254645 57.213857153982495 a86.0,86.0 0 0,1 29.58750427330803,-30.492523968695096" fill="none" id="id47" stroke="none" /><text fill="#e1ed5e" style="font-size:6.75px; font-family:Arial;" text-anchor="middle"><textPath startOffset="21.46611528233685" xlink:href="#id47">November</textPath></text><line stroke="#e1ed5e" stroke-width="0.3" x1="56.762969772571076" x2="54.21961505331055" y1="26.818313649435495" y2="22.513508569990535" /><path d="M 56.25429882871897 25.957352633546506 a86.0,86.0 0 0,1 42.265352541879196,-11.944610805530505" fill="none" id="id48" stroke="none" /><text fill="#e1ed5e" style="font-size:6.75px; font-family:Arial;" text-anchor="middle"><textPath startOffset="22.20632615414155" xlink:href="#id48">December</textPath></text></svg>