<?xml version="1.0" encoding="utf-8" ?>
<svg baseProfile="full" height="200mm" version="1.1" viewBox="0,0,200,200" width="200mm" xmlns="http://www.w3.org/2000/svg" xmlns:ev="http://www.w3.org/2001/xml-events" xmlns:xlink="http://www.w3.org/1999/xlink"><defs /><rect fill="#1a1a1a" height="200" width="200" x="0" y="0" /><text alignment-baseline="middle" fill="#e1ed5e" style="dominant-baseline: central; font-size:9.0px; font-family:Arial;" text-anchor="middle" x="100.0" y="100.0">2014</text><line stroke="#e1ed5e" stroke-width="0.3" x1="100.0" x2="100.0" y1="15.0" y2="10.0" /><path d="M 100.0 14.0 a86.0,86.0 0 0,1 42.46469731375804,11.215312516191453" fill="none" id="id1" stroke="none" /><text fill="#e1ed5e" style="font-size:6.75px; font-family:Arial;" text-anchor="middle"><textPath startOffset="22.20632615414155" xlink:href="#id1">January</textPath></text><path d="M 103.59715602781102 79.31037775812273 l 2.050985526052419 -11.796573579101832 a32.97354124038665,32.97354124038665 0 0,0 0.5583596256950571,0.10203665265086183 l -2.2537402728503766 11.759521445100232" fill="#ff930d" stroke="none" /><path d="M 103.95276090670814 79.375362276772 l 2.299478845396777 -11.998175264800324 a33.21653848867565,33.21653848867565 0 0,0 0.5606217619816541,0.11245545139780878 l -2.505667016845557 11.956815857325306" fill="#ff960d" stroke="none" /><path d="M 104.66035177308747 79.52364482259891 l 2.685464822606746 -11.799223363708084 a33.10096662668454,33.10096662668454 0 0,0 0.5544826665672201,0.13122813256000807 l -2.88817117613649 11.751249319007208" fill="#ff950d" stroke="none" /><path d="M 105.01212808612495 79.60689891045804 l 2.9521798675630504 -12.011684745325361 a33.369152614125454,33.369152614125454 0 0,0 0.5566151215638575,0.14189358803929494 l -3.158503877811933 11.959088161117197" fill="#ff980e" stroke="none" /><path d="M 108.09893153111575 80.62456947434976 l 4.364040083477809 -10.44028525537225 a32.315670641360335,32.315670641360335 0 0,0 0.5113820110487,0.21894708919293954 l -4.543105852316824 10.36361863821652" fill="#ff8a0c" stroke="none" /><path d="M 108.76106565485865 80.91482961587045 l 2.502278541654401 -5.450982129045118 a26.99788329923093,26.99788329923093 0 0,0 0.4206807459190027,0.19751525092192948 l -2.5957374988730013 5.407101895483185" fill="#ff4106" stroke="none" /><line stroke="#e1ed5e" stroke-width="0.3" x1="143.23703022742887" x2="145.7803849466894" y1="26.81831364943548" y2="22.513508569990506" /><path d="M 143.74570117128098 25.957352633546492 a86.0,86.0 0 0,1 28.547481713284135,27.462654790039103" fill="none" id="id2" stroke="none" /><text fill="#e1ed5e" style="font-size:6.75px; font-family:Arial;" text-anchor="middle"><textPath startOffset="19.985693538727396" xlink:href="#id2">February</textPath></text><path d="M 116.82858285166822 87.43820079747576 l 6.002151013559782 -4.48034255053694 a28.489945671346927,28.489945671346927 0 0,0 0.2899698360677307,0.3955185305217328 l -6.078383462141142 4.376361576343713" fill="#ff5607" stroke="none" /><path d="M 117.2510076193507 88.02491185347247 l 6.424244564660481 -4.45950153371709 a28.820362661398434,28.820362661398434 0 0,0 0.2793867013530987,0.4099655097274624 l -6.500055731682313 4.348258000719221" fill="#ff5a08" stroke="none" /><path d="M 117.45458315368197 88.32363383020206 l 6.7993193813221 -4.548452524056615 a29.18041346221689,29.18041346221689 0 0,0 0.2756901053595588,0.4198949444735545 l -6.8766061220395835 4.430739515605386" fill="#ff5f08" stroke="none" /><path d="M 117.65298651832404 88.62581576622439 l 4.99833732435154 -3.220532091310346 a26.946024130388768,26.946024130388768 0 0,0 0.24786801204198478,0.3920676694185738 l -5.05303293263948 3.1340167741775655" fill="#ff4006" stroke="none" /><line stroke="#e1ed5e" stroke-width="0.3" x1="172.23445277983987" x2="176.4835382374775" y1="55.19839476539836" y2="52.563006222186495" /><path d="M 173.08426987136738 54.67131705675599 a86.0,86.0 0 0,1 12.851231095245387,41.99856678651699" fill="none" id="id3" stroke="none" /><text fill="#e1ed5e" style="font-size:6.75px; font-family:Arial;" text-anchor="middle"><textPath startOffset="22.20632615414155" xlink:href="#id3">March</textPath></text><path d="M 118.03404312379186 89.2402003453031 l 1.311867527032345 -0.78271032554805 a22.527622945036338,22.527622945036338 0 0,0 0.1958190297998408,0.33471819759905286 l -1.325146231302513 0.7600127155951019" fill="#ff0000" stroke="none" /><path d="M 118.21658344932153 89.55222093294921 l 10.558754888603428 -6.055775420575903 a33.172087772525224,33.172087772525224 0 0,0 0.27981818434664574,0.4977653270006233 l -10.661430714242506 5.873126583640485" fill="#ff950d" stroke="none" /><path d="M 118.56541770881063 90.18545643968196 l 13.889023069676087 -7.342383783959097 a36.710364778099205,36.710364778099205 0 0,0 0.29051982530339077,0.5611918318829977 l -14.013352328139595 7.102219229815755" fill="#ffc412" stroke="none" /><path d="M 119.34039704204932 91.81776055985345 l 6.866639237676724 -2.9050327286260793 a28.455866788964933,28.455866788964933 0 0,0 0.18696630941583142,0.45275374828507114 l -6.915627233978753 2.786404409887705" fill="#ff5507" stroke="none" /><path d="M 119.61058180528143 92.48833698450437 l 7.005459372055307 -2.683380360365088 a28.501799195653707,28.501799195653707 0 0,0 0.1715474589418427,0.45966190193351764 l -7.050611419498774 2.5623953214022372" fill="#ff5607" stroke="none" /><path d="M 119.7369772167798 92.82701384747503 l 4.294703854974171 -1.5608191134119103 a25.569533620263883,25.569533620263883 0 0,0 0.14677754776441942,0.4149598928071624 l -4.3209344835484 1.4866615941781334" fill="#ff2c04" stroke="none" /><path d="M 119.97218684219823 93.5106431181261 l 7.082495665623954 -2.301242340245411 a28.44697664573485,28.44697664573485 0 0,0 0.1473072720760749,0.4670043078232681 l -7.121058421468235 2.178987865995724" fill="#ff5507" stroke="none" /><path d="M 120.18372546131832 94.20196356495316 l 7.2714388065682165 -2.088814932431327 a28.565511888802654,28.565511888802654 0 0,0 0.13169140268475876,0.47376404299626235 l -7.306316979819338 1.9633395860161127" fill="#ff5708" stroke="none" /><path d="M 120.37134235888165 94.90015583598534 l 7.211107360086732 -1.805257755652402 a28.433641430889722,28.433641430889722 0 0,0 0.11477334107069215,0.4758095960245535 l -7.2411135014182415 1.6808629279684424" fill="#ff5507" stroke="none" /><path d="M 120.45610955862082 95.25157060432595 l 7.27142312540265 -1.6878986308760238 a28.46475693219502,28.46475693219502 0 0,0 0.1066826734850671,0.4782375068634477 l -7.299400185889755 1.5624829544626122" fill="#ff5507" stroke="none" /><path d="M 120.53481517161879 95.60439243477599 l 7.3472128508628325 -1.5727175589678262 a28.51365271996049,28.51365271996049 0 0,0 0.09860388269327593,0.48082755046858844 l -7.373196029471105 1.446014352335826" fill="#ff5607" stroke="none" /><path d="M 120.67395015179393 96.31383870115 l 7.458259163629604 -1.3298061610823402 a28.575883722571085,28.575883722571085 0 0,0 0.08217354397241083,0.4849929081027835 l -7.480044569122239 1.2012274646637189" fill="#ff5708" stroke="none" /><path d="M 120.73433829027371 96.67025291283417 l 7.37324948726307 -1.1840771409945516 a28.467720313271712,28.467720313271712 0 0,0 0.07353362162920561,0.4844946908636792 l -7.392539002331576 1.0569833377387903" fill="#ff5507" stroke="none" /><path d="M 120.78858239683441 97.02765380044208 l 7.594953760728751 -1.0859245481768764 a28.672193607563678,28.672193607563678 0 0,0 0.06565113259238071,0.4891771934457546 l -7.612520892378969 0.9550290126664576" fill="#ff5808" stroke="none" /><path d="M 120.83666639777658 97.38593545837742 l 10.355851132853891 -1.2991935815416233 a31.437028152120227,31.437028152120227 0 0,0 0.06273879773674268,0.5375077050703168 l -10.376680283594222 1.120742138146454" fill="#ff7e0b" stroke="none" /><path d="M 120.87857604477298 97.74499172005257 l 11.836545439903405 -1.2784161101656386 a32.90538347562266,32.90538347562266 0 0,0 0.0559749942037018,0.5636605527493056 l -11.856797559789337 1.0744800267118981" fill="#ff920d" stroke="none" /><path d="M 120.91429891909075 98.10471618934814 l 7.617273055834794 -0.690288226246026 a28.64848655895012,28.64848655895012 0 0,0 0.04027911206872709,0.4915071904880965 l -7.628026651723015 0.5590671185501608" fill="#ff5808" stroke="none" /><path d="M 120.94382443527127 98.46500227214037 l 7.435922144802441 -0.5449875514421558 a28.455866788964933,28.455866788964933 0 0,0 0.031598761713130606,0.48881885775915174 l -7.4442014975199875 0.4169096294299688" fill="#ff5507" stroke="none" /><path d="M 120.98425023603335 99.18683210126433 l 8.491122211504358 -0.3290423974634204 a29.49749523742327,29.49749523742327 0 0,0 0.015294178139915196,0.5075393145461877 l -8.495528084099918 0.18283293549223362" fill="#ff6409" stroke="none" /><line stroke="#e1ed5e" stroke-width="0.3" x1="184.98032266829074" x2="189.97916517819016" y1="98.17113171792111" y2="98.06355123074" /><path d="M 185.9800911702706 98.14961562048488 a86.0,86.0 0 0,1 -9.607161424134198,41.387399972396054" fill="none" id="id4" stroke="none" /><text fill="#e1ed5e" style="font-size:6.75px; font-family:Arial;" text-anchor="middle"><textPath startOffset="21.466115282336823" xlink:href="#id4">April</textPath></text><path d="M 120.99513854157772 99.54816195383933 l 14.52905657347027 -0.31268098191941185 a35.53242080011289,35.53242080011289 0 0,0 0.007896645474498226,0.6116038944085262 l -14.532286226062483 0.06254082945042289" fill="#ffb510" stroke="none" /><path d="M 120.99824983174949 100.27111621757518 l 12.268856759805095 0.15840777518804128 a33.269879348056165,33.269879348056165 0 0,0 -0.012322430287930756,0.5725749154200778 l -12.264312266832155 -0.36957250639823386" fill="#ff970d" stroke="none" /><path d="M 120.9904718944345 100.63252640178507 l 47.39998962685219 1.4283502073753738 a68.42150567981372,68.42150567981372 0 0,0 -0.04560738793460374,1.1769240307194822 l -47.36838010606638 -2.244051485108862" fill="#39ff8e" stroke="none" /><path d="M 120.95626037817324 101.35467743843564 l 10.218635114199904 0.6605641555795325 a31.239963310520004,31.239963310520004 0 0,0 -0.03930796846970327,0.5363259994427501 l -10.205750587065863 -0.8363632915190529" fill="#ff7b0b" stroke="none" /><path d="M 120.92983693683757 101.71520430193887 l 19.262597403803667 1.5785736904318515 a40.327171382205606,40.327171382205606 0 0,0 -0.06265191654038246,0.6913586783231184 l -19.232570890986207 -1.9099137573035405" fill="#fff116" stroke="none" /><path d="M 120.89721153311464 102.0752229133903 l 14.757651184290165 1.4655264333679188 a35.83024059832075,35.83024059832075 0 0,0 -0.06623083222335167,0.6132152504185404 l -14.730238050565761 -1.7193380056712506" fill="#ffb811" stroke="none" /><path d="M 120.8583938346157 102.4346265915055 l 12.084122752841994 1.4104790053518477 a33.16616101037184,33.16616101037184 0 0,0 -0.07106796140679826,0.5664815768031435 l -12.058053282188347 -1.618278336442386" fill="#ff950d" stroke="none" /><path d="M 120.76222939487914 103.15116336523771 l 42.74180251565574 6.487087667222217 a64.23128483736681,64.23128483736681 0 0,0 -0.17531545533324958,1.0916895077118156 l -42.623805305961206 -7.221856404627237" fill="#34ff5e" stroke="none" /><path d="M 120.64145759157962 103.86396538481128 l 14.778019486471353 2.766362573885562 a36.034713892612714,36.034713892612714 0 0,0 -0.11937797431961114,0.6087057191637324 l -14.728211579176078 -3.0203320201172392" fill="#ffbb11" stroke="none" /><path d="M 120.5718875245553 104.21870165774334 l 28.335877249302786 5.81087234618397 a49.92556268962111,49.92556268962111 0 0,0 -0.17988884253015525,0.840380784221561 l -28.231654368048186 -6.2977669498217" fill="#9cff22" stroke="none" /><path d="M 120.49622156327973 104.57218783832717 l 14.117273329622297 3.149206073361308 a35.46426303534891,35.46426303534891 0 0,0 -0.13803946619997307,0.5946704075610033 l -14.060973297491772 -3.3917451382708763" fill="#ffb410" stroke="none" /><path d="M 120.41448212921028 104.9243191809786 l 21.690657333223573 5.232154275478499 a43.31277781697594,43.31277781697594 0 0,0 -0.1810653256563029,0.7232659704180711 l -21.597380693272207 -5.6047480852939655" fill="#e8ff1a" stroke="none" /><path d="M 120.32669344350535 105.2749913415812 l 11.88795328816876 3.085049264825134 a33.281732872362944,33.281732872362944 0 0,0 -0.1486773039731179,0.5532835573986337 l -11.833087907853866 -3.2892237553993158" fill="#ff970d" stroke="none" /><path d="M 120.13307415673323 105.97154293290107 l 12.16251893952938 3.6074473006067183 a33.68623438933183,33.68623438933183 0 0,0 -0.16967151111783485,0.5544963154610161 l -12.098620655905412 -3.816270588619792" fill="#ff9c0e" stroke="none" /><path d="M 120.02730092923936 106.31721596034902 l 10.075118579374632 3.177996881202887 a31.56445353841812,31.56445353841812 0 0,0 -0.16790447869899744,0.5167568499099011 l -10.018921849659387 -3.3509526310905833" fill="#ff800b" stroke="none" /><path d="M 119.9155931802556 106.66101706037122 l 22.869278135092074 7.6489136144458945 a45.114513511606575,45.114513511606575 0 0,0 -0.25266097364287793,0.7343510573863672 l -22.734226330505965 -8.041437374921562" fill="#d3ff1c" stroke="none" /><path d="M 119.79798401119884 107.00284435728193 l 18.19017482493694 6.4341380950063645 a40.294574190361956,40.294574190361956 0 0,0 -0.23692392026831716,0.6519128738035889 l -18.076726643663395 -6.746298765816085" fill="#fff116" stroke="none" /><path d="M 119.67450827220406 107.3425965602758 l 12.499066710147842 4.66469621313224 a34.34114160728145,34.34114160728145 0 0,0 -0.21145266929099654,0.5520361949839995 l -12.416919761263339 -4.879155974949383" fill="#ffa50f" stroke="none" /><path d="M 119.54520255179757 107.68017299344265 l 9.041017986988278 3.5526151234749173 a30.713963169406618,30.713963169406618 0 0,0 -0.19758933952293176,0.49040053651212295 l -8.978526033207954 -3.707715027829854" fill="#ff740a" stroke="none" /><path d="M 119.41010516605496 108.01547362559984 l 35.28412823666408 14.570709270440567 a59.174275029986596,59.174275029986596 0 0,0 -0.3968875512680984,0.9381249325104374 l -35.02808970420367 -15.175908728617168" fill="#3bff2e" stroke="none" /><path d="M 119.26925614724726 108.34839909993367 l 7.198949502552338 3.11894258337323 a28.84555140055034,28.84555140055034 0 0,0 -0.20131298683776047,0.45390764024274016 l -7.144195430983305 -3.242398560108658" fill="#ff5b08" stroke="none" /><path d="M 119.12269723197855 108.67885076344098 l 14.871260064267794 6.749332753449975 a37.33119311366683,37.33119311366683 0 0,0 -0.27060738931210393,0.5828642422147648 l -14.75287805811586 -7.004317062943571" fill="#ffcc13" stroke="none" /><path d="M 118.97047184881838 109.00673069616215 l 7.044492580281599 3.3445582201299238 a28.79813730332322,28.79813730332322 0 0,0 -0.2164615328043754,0.4459748713651948 l -6.985877790862509 -3.465322047460394" fill="#ff5a08" stroke="none" /><path d="M 118.81262510543309 109.33194174019688 l 13.361171545282543 6.627765861625751 a35.91469695900656,35.91469695900656 0 0,0 -0.27948702625066146,0.5514544177336056 l -13.245105849245611 -6.856774491062051" fill="#ffba11" stroke="none" /><path d="M 118.64920377521936 109.65438752849418 l 6.597552228106248 3.4154447941769446 a28.429196359274677,28.429196359274677 0 0,0 -0.22871625800387896,0.43264496617105347 l -6.537783461877476 -3.5285047754341323" fill="#ff5507" stroke="none" /><line stroke="#e1ed5e" stroke-width="0.3" x1="174.80103733775053" x2="179.2010983576182" y1="140.37084112569926" y2="142.7455964860345" /><path d="M 175.68104954172406 140.8457921977663 a86.0,86.0 0 0,1 -30.038265399797805,32.042727171017184" fill="none" id="id5" stroke="none" /><text fill="#e1ed5e" style="font-size:6.75px; font-family:Arial;" text-anchor="middle"><textPath startOffset="22.206326154141568" xlink:href="#id5">May</textPath></text><path d="M 118.48025628344425 109.97397251340804 l 8.509288965339529 4.5925453060397174 a30.66951245325619,30.66951245325619 0 0,0 -0.25473745154612654,0.462422468050789 l -8.428975104341896 -4.7383382924883115" fill="#ff740a" stroke="none" /><path d="M 118.30583269289576 110.29060199501025 l 25.855228875071422 14.53448604643442 a50.6604811966415,50.6604811966415 0 0,0 -0.43386601986551265,0.7564819763111795 l -25.601210859053527 -14.977387868603914" fill="#94ff23" stroke="none" /><path d="M 117.94076556474637 110.91462005526583 l 8.246954607656994 5.017198169763413 a30.653213857334368,30.653213857334368 0 0,0 -0.2781200546496284,0.44841808344847733 l -8.159369913339402 -5.158412584577161" fill="#ff730a" stroke="none" /><path d="M 117.75023020441432 111.22182372390056 l 18.83981605623402 11.910667768195585 a43.28907076836238,43.28907076836238 0 0,0 -0.40360902501772145,0.6264101698084218 l -18.63200216783925 -12.233199537925461" fill="#e8ff1a" stroke="none" /><path d="M 117.55443506779137 111.5257021239791 l 6.220163191310823 4.08396783084901 a28.441049883581456,28.441049883581456 0 0,0 -0.2722172716885038,0.40692788624987913 l -6.148942814211595 -4.190432631304696" fill="#ff5507" stroke="none" /><path d="M 117.35343817320211 111.8261652097733 l 10.116002694348111 6.893937554727082 a33.24172722782756,33.24172722782756 0 0,0 -0.3263056902432424,0.4700676838237646 l -9.995836096942732 -7.067046500737867" fill="#ff960d" stroke="none" /><path d="M 117.14729908036423 112.12312394758627 l 3.9513919986220007 2.7936303402819993 a25.83920129824314,25.83920129824314 0 0,0 -0.25989340300302427,0.3609692058518114 l -3.9027188032433733 -2.861233151584942" fill="#ff3004" stroke="none" /><path d="M 116.71984013943494 112.70617746262583 l 50.159520418304794 38.11853238787748 a84.0,84.0 0 0,0 -0.8847727311277263,1.1436880235469893 l -49.495940869959 -38.97629840553772" fill="#4dd2ff" stroke="none" /><path d="M 116.27256486870786 113.27417163493432 l 3.7486717206188636 3.057939066398121 a25.83771960770479,25.83771960770479 0 0,0 -0.28409680052609826,0.342212897653995 l -3.6954789201992218 -3.1220132211658864" fill="#ff3004" stroke="none" /><path d="M 116.0416608686014 113.55231037782055 l 5.671682961445115 4.7915492346898185 a28.424751287659635,28.424751287659635 0 0,0 -0.31897645497736404,0.3710416799326358 l -5.588363996896972 -4.888468013783982" fill="#ff5507" stroke="none" /><path d="M 115.56566222782051 114.09645910891815 l 11.156141742058901 10.103142004402079 a36.05101248853454,36.05101248853454 0 0,0 -0.42051547640274384,0.4563864968199198 l -10.980579857660436 -10.293679756023334" fill="#ffbb11" stroke="none" /><path d="M 114.55890576462653 115.13401014063108 l 2.7139369950005845 2.821142650924102 a24.91462640231426,24.91462640231426 0 0,0 -0.3116275978775538,0.29466334460716365 l -2.6649735627322233 -2.8674406322771873" fill="#ff2303" stroke="none" /><path d="M 114.29624159901734 115.38237550388516 l 15.163719745856746 16.315758904247904 a43.2742538629789,43.2742538629789 0 0,0 -0.5499960882149701,0.5024083863029887 l -14.880624108174912 -16.574360057137476" fill="#e9ff1a" stroke="none" /><path d="M 114.0293411484842 115.62618273729858 l 9.928334983369545 11.058393625563022 a35.86135609962605,35.86135609962605 0 0,0 -0.46288070504493456,0.4084384039854155 l -9.736511925418023 -11.227655171320727" fill="#ffb911" stroke="none" /><path d="M 113.75828350139079 115.86535959552629 l 12.88850137923979 14.862370658985572 a40.672405277640586,40.672405277640586 0 0,0 -0.5328753734537538,0.4541279537416291 l -12.630760529208988 -15.082023002950148" fill="#fff617" stroke="none" /><path d="M 113.48314897796784 116.09983520530334 l 20.259446880321956 24.19121502378748 a52.55408170464969,52.55408170464969 0 0,0 -0.6985435271747937,0.574853766263652 l -19.84003322460247 -24.53636390890831" fill="#7fff26" stroke="none" /><path d="M 112.92097659922987 116.55440617244103 l 9.764804935747637 12.510706590913422 a36.87038735624074,36.87038735624074 0 0,0 -0.5036692810391521,0.3861921271408798 l -9.548006926214992 -12.676938059881675" fill="#ffc612" stroke="none" /><path d="M 112.63410532772338 116.77436683061366 l 8.965909220788944 11.904083932993172 a35.90284343469978,35.90284343469978 0 0,0 -0.49685266223013963,0.367559721448293 l -8.75967158814024 -12.056653603181235" fill="#ffb911" stroke="none" /><path d="M 112.34349029814194 116.9893568818739 l 5.1732401305978355 7.120354186010791 a29.80124179778452,29.80124179778452 0 0,0 -0.41760433605978864,0.29794960569584544 l -5.049908466689162 -7.208348053550855" fill="#ff6809" stroke="none" /><path d="M 112.04921762599082 117.19931262002967 l 8.521082922832571 12.163177195410814 a35.85098426585762,35.85098426585762 0 0,0 -0.508474706813287,0.3497335398660923 l -8.3104513313964 -12.308051524642002" fill="#ffb911" stroke="none" /><path d="M 111.7513745106137 117.40417183066458 l 8.304647364588083 12.29945565906558 a35.84061243208919,35.84061243208919 0 0,0 -0.5142706351639743,0.34083053466606217 l -8.091702030684145 -12.44058421482296" fill="#ffb911" stroke="none" /><path d="M 111.1453310114006 117.79835938074945 l 8.94347347722141 14.282137955073983 a37.85126649262683,37.85126649262683 0 0,0 -0.5551893994587767,0.34104267455036 l -8.696304877830325 -14.43396909645272" fill="#ffd213" stroke="none" /><line stroke="#e1ed5e" stroke-width="0.3" x1="143.8653032363475" x2="146.44561519142675" y1="172.8068346515853" y2="177.08958963109032" /><path d="M 144.38136562736335 173.6633856474863 a86.0,86.0 0 0,1 -40.68145358897372,12.25698825130547" fill="none" id="id6" stroke="none" /><text fill="#e1ed5e" style="font-size:6.75px; font-family:Arial;" text-anchor="middle"><textPath startOffset="21.466115282336833" xlink:href="#id6">June</textPath></text><path d="M 110.8373102113329 117.98757091392108 l 10.365524393200376 17.2045093705718 a41.085796937839554,41.085796937839554 0 0,0 -0.6089152405456849,0.3597578571132872 l -10.067841281626308 -17.380385799978836" fill="#fffb17" stroke="none" /><path d="M 110.5260780823613 118.17145234162733 l 7.447647711135189 12.857075007538194 a35.858392718549354,35.858392718549354 0 0,0 -0.5367680936809469,0.3047909323787622 l -7.225230850533042 -12.983369105711583" fill="#ffb911" stroke="none" /><path d="M 110.21172684928248 118.3499491758327 l 7.270622707691357 13.064935943930553 a35.95173922246525,35.95173922246525 0 0,0 -0.5433458048979826,0.29627545514012055 l -7.044654090924726 -13.188152050830444" fill="#ffba11" stroke="none" /><path d="M 109.89434966115114 118.52300852407294 l 7.073974819476788 13.243042783774149 a36.01397022507585,36.01397022507585 0 0,0 -0.5493143952015098,0.28737532936779187 l -6.844969521748783 -13.362847532086658" fill="#ffbb11" stroke="none" /><path d="M 109.57404056367764 118.69057910512821 l 5.41896235107754 10.578975910628552 a32.88612149862414,32.88612149862414 0 0,0 -0.5060486501785881,0.25374329859719463 l -5.236059793216191 -10.670687050135049" fill="#ff920d" stroke="none" /><path d="M 109.2508944713604 118.85261126421891 l 7.959176404696864 16.22018921582483 a39.06773442461017,39.06773442461017 0 0,0 -0.6062704637576987,0.2910466655991039 l -7.6787932729389325 -16.354790157923496" fill="#ffe215" stroke="none" /><path d="M 108.92500713936063 119.00905698771935 l 5.065459495450286 10.78874299084276 a32.91871869046779,32.91871869046779 0 0,0 -0.5149929822927568,0.2364080193599005 l -4.87899851739011 -10.874338080536734" fill="#ff920d" stroke="none" /><path d="M 108.59647513512805 119.15986991738527 l 13.097599948349329 29.192001058069394 a52.995625485077255,52.995625485077255 0 0,0 -0.8355121872233203,0.36626398943887983 l -12.593167086468254 -29.41312960080273" fill="#7aff26" stroke="none" /><path d="M 108.2653958097858 119.30500536409082 l 2.9310575982490263 6.845901147246206 a28.44697664573485,28.44697664573485 0 0,0 -0.4518037429696073,0.18885400120366436 l -2.8127823957819578 -6.895340191469844" fill="#ff5507" stroke="none" /><path d="M 107.93186726928326 119.44442032107085 l 5.617729743107697 13.771473307197429 a35.87320962393283,35.87320962393283 0 0,0 -0.5737645260671965,0.22831274607243815 l -5.379844140998634 -13.866132897675936" fill="#ffb911" stroke="none" /><path d="M 107.59598834532513 119.57807347666477 l 1.8227585100155765 4.698019325064341 a26.03922952092006,26.03922952092006 0 0,0 -0.4192685204514874,0.15853147905355738 l -1.7416197688038142 -4.7286990542245295" fill="#ff3304" stroke="none" /><path d="M 107.2578585660854 119.70592522655815 l 4.108502030318435 11.155058074696676 a32.88760318916249,32.88760318916249 0 0,0 -0.5329051458591975,0.19108082544817928 l -3.9158773238295033 -11.224126441184815" fill="#ff920d" stroke="none" /><path d="M 106.91757812671514 119.82793768551818 l 3.951019186887676 11.324853987459937 a32.994284907923515,32.994284907923515 0 0,0 -0.5378543982892704,0.1824694142208845 l -3.755495055661179 -11.391186388578944" fill="#ff930d" stroke="none" /><path d="M 106.2309692047433 120.05430185196036 l 5.340705136472283 17.1889973116217 a38.999576659846184,38.999576659846184 0 0,0 -0.6427966413432786,0.19366935509547709 l -5.0440335206887585 -17.278382035822904" fill="#ffe115" stroke="none" /><path d="M 105.88484417918355 120.15858648285463 l 4.16253177847422 14.258789916786688 a35.853947646934316,35.853947646934316 0 0,0 -0.5939271850846505,0.1678497550832228 l -3.9164734252849636 -14.328328465208429" fill="#ffb911" stroke="none" /><path d="M 105.53697534728816 120.25689768951611 l 3.918426778614282 14.335474763694815 a35.86135609962605,35.86135609962605 0 0,0 -0.5968517471695003,0.1576339711285795 l -3.6710845886332844 -14.400800084126978" fill="#ffb911" stroke="none" /><path d="M 105.18746579009965 120.34920634021253 l 4.687495546024572 18.387940845205797 a39.976010724617225,39.976010724617225 0 0,0 -0.6682593930450972,0.16424190014022944 l -4.370282868236264 -18.465904003660057" fill="#ffed16" stroke="none" /><path d="M 104.83641907484287 120.43548508189849 l 2.7753190104915704 11.726649274753438 a33.05058914838072,33.05058914838072 0 0,0 -0.5547460345475776,0.12625839136500186 l -2.5730528265511303 -11.772684399696123" fill="#ff940d" stroke="none" /><path d="M 103.7750983002368 120.6578951692458 l 5.66890687391096 31.021095243565828 a52.53481972765117,52.53481972765117 0 0,0 -0.8909680990254002,0.15490622450851654 l -5.134089803413509 -31.114080046595348" fill="#7fff26" stroke="none" /><path d="M 103.41894727170886 120.7198165907248 l 2.514336231780248 15.237610126658055 a36.443660481196645,36.443660481196645 0 0,0 -0.6198270725100482,0.09680424133850185 l -2.251673295661683 -15.278632675343662" fill="#ffc011" stroke="none" /><path d="M 103.06178313531738 120.77559828337769 l 2.1959377386933707 14.900441441510917 a36.06138432230297,36.06138432230297 0 0,0 -0.6148833660971509,0.08521723171107307 l -1.9391257814093892 -14.936033238714593" fill="#ffbb11" stroke="none" /><path d="M 102.34483914955558 120.86867818915974 l 0.8298675773774664 7.38568332722961 a28.432159740351374,28.432159740351374 0 0,0 -0.48682275479680315,0.05046116903284075 l -0.7026122259750607 -7.398873864718209" fill="#ff5507" stroke="none" /><path d="M 101.98527174616119 120.90594882070398 l 1.1229749233736166 11.825512714004361 a32.87871304593241,32.87871304593241 0 0,0 -0.5638788251827552,0.04865383771512446 l -0.9192517804493197 -11.84309080399815" fill="#ff920d" stroke="none" /><path d="M 101.62511606390274 120.93702456842531 l 1.150756002069274 14.825652901200625 a35.87024624285613,35.87024624285613 0 0,0 -0.6160069797715991,0.04248344793658735 l -0.8953862615187446 -14.843264693653497" fill="#ffb911" stroke="none" /><path d="M 101.26447882468166 120.96189622390904 l 0.9010069604501595 14.936441823555866 a35.96359274677203,35.96359274677203 0 0,0 -0.6182517183001498,0.03195655191334478 l -0.6437671737365301 -14.949738182231412" fill="#ffba11" stroke="none" /><path d="M 100.90346689309514 120.98055641714683 l 0.5123236731676893 11.897321098187335 a32.90834685669936,32.90834685669936 0 0,0 -0.5661483799693765,0.019499294923901577 l -0.30745494152366054 -11.90437719153733" fill="#ff920d" stroke="none" /><line stroke="#e1ed5e" stroke-width="0.3" x1="102.19456741930631" x2="102.32365962044197" y1="184.97166512339345" y2="189.96999836594603" /><path d="M 102.22038585953345 185.97133177190398 a86.0,86.0 0 0,1 -42.740103519485714,-10.115201625700543" fill="none" id="id7" stroke="none" /><text fill="#e1ed5e" style="font-size:6.75px; font-family:Arial;" text-anchor="middle"><textPath startOffset="22.20632615414155" xlink:href="#id7">July</textPath></text><path d="M 100.54218724476979 120.99299961872073 l 0.38652789960869305 14.966010593914792 a35.97100119946377,35.97100119946377 0 0,0 -0.6191128489716856,0.01065858915500183 l -0.12885536074433943 -14.970446660348953" fill="#ffba11" stroke="none" /><path d="M 100.18074693466247 120.99922214144158 l 0.12798816314629755 14.869695435793949 a35.87024624285613,35.87024624285613 0 0,0 -0.6174701956174957,0.0 l 0.1279881631462873 -14.869695435793949" fill="#ffb911" stroke="none" /><path d="M 99.45781275523022 120.99299961872073 l -0.3855332712050972 14.927499481935195 a35.93247724546673,35.93247724546673 0 0,0 -0.6181748925095767,-0.021291193210244804 l 0.642428515389317 -14.918651490298856" fill="#ffba11" stroke="none" /><path d="M 99.09653310690486 120.98055641714683 l -0.7026043953781557 16.31607230860032 a37.33119311366683,37.33119311366683 0 0,0 -0.6417621968759011,-0.033171775109456236 l 0.9833546606675456 -16.30156072672866" fill="#ffcc13" stroke="none" /><path d="M 98.37488393609728 120.93702456842531 l -0.5746900241501743 7.403962967399115 a28.42623297819798,28.42623297819798 0 0,0 -0.4875175872524181,-0.0420650687951628 l 0.7020519291441342 -7.392973646325289" fill="#ff5507" stroke="none" /><path d="M 98.01472825383883 120.90594882070398 l -1.8342717502279409 19.31583996381279 a40.40273759966133,40.40273759966133 0 0,0 -0.6917860689874185,-0.07170645459312187 l 2.166490415820953 -19.281404140763904" fill="#fff216" stroke="none" /><path d="M 97.65516085044442 120.86867818915974 l -1.8202159262972213 16.19961881303432 a37.301559302899875,37.301559302899875 0 0,0 -0.6374527005349095,-0.07718664462988421 l 2.09879604988352 -16.165886639679087" fill="#ffcb13" stroke="none" /><path d="M 95.86986931433489 120.58985236759428 l -1.3879780184733563 6.919457195149337 a28.05729203414944,28.05729203414944 0 0,0 -0.4727099757548249,-0.09906097149243041 l 1.506879455657568 -6.894540242930366" fill="#ff5007" stroke="none" /><path d="M 95.16358092515715 120.4354850818985 l -2.7439247711007804 11.593998133320104 a32.91427361885275,32.91427361885275 0 0,0 -0.550211792331498,-0.1352286719686826 l 2.943089848175489 -11.54504820303739" fill="#ff920d" stroke="none" /><path d="M 94.81253420990036 120.34920634021253 l -2.9643184529751636 11.62832301907721 a33.00021167007691,33.00021167007691 0 0,0 -0.5492328270445573,-0.1450573815219523 l 3.16404172283121 -11.575574288251678" fill="#ff930d" stroke="none" /><path d="M 93.76903079525671 120.05430185196036 l -3.53116098585325 11.365000527407437 a32.90093840400762,32.90093840400762 0 0,0 -0.5393852770941698,-0.17269413249990936 l 3.72626760803836 -11.30253354824782" fill="#ff920d" stroke="none" /><path d="M 93.42475214034765 119.94407469862007 l -7.949865753404549 24.113572570066566 a46.390249065123825,46.390249065123825 0 0,0 -0.75622792150345,-0.2565535696893153 l 8.363763407845225 -23.97315601347913" fill="#c4ff1e" stroke="none" /><path d="M 92.7421414339146 119.70592522655815 l -5.231004392334886 14.202781781506486 a36.135468849220345,36.135468849220345 0 0,0 -0.5818322907005022,-0.21999918693286027 l 5.474706903795671 -14.110634344466993" fill="#ffbc11" stroke="none" /><path d="M 92.40401165467489 119.57807347666478 l -5.380916036623451 13.868895625888268 a35.87617300500953,35.87617300500953 0 0,0 -0.5738119230789875,-0.22833160632159108 l 5.618849035744296 -13.774217175160612" fill="#ffb911" stroke="none" /><path d="M 91.40352486487194 119.15986991738527 l -6.065995048784001 13.51992232017005 a35.81838707401397,35.81838707401397 0 0,0 -0.5603564997049603,-0.2572321852638175 l 6.297819544256381 -13.413503064572158" fill="#ffb811" stroke="none" /><path d="M 91.07499286063937 119.00905698771935 l -5.202738233641258 11.081128119137604 a33.24172722782756,33.24172722782756 0 0,0 -0.5158598951114493,-0.24764409840769902 l 5.39271079675295 -10.989929744230343" fill="#ff960d" stroke="none" /><path d="M 90.10565033884886 118.52300852407294 l -6.996484322589197 13.097974418137227 a35.84950257531927,35.84950257531927 0 0,0 -0.5418006820601314,-0.2954329309724452 l 7.220907816517968 -12.975600835405016" fill="#ffb911" stroke="none" /><line stroke="#e1ed5e" stroke-width="0.3" x1="58.666819895761336" x2="56.23545636021788" y1="174.27360380694188" y2="178.64263932499728" /><path d="M 58.180547188652646 175.14741091055294 a86.0,86.0 0 0,1 -31.652253787137756,-30.449443065178592" fill="none" id="id8" stroke="none" /><text fill="#e1ed5e" style="font-size:6.75px; font-family:Arial;" text-anchor="middle"><textPath startOffset="22.20632615414155" xlink:href="#id8">August</textPath></text><path d="M 89.7882731507175 118.34994917583269 l -5.843300977046571 10.50011203104517 a33.01651026599873,33.01651026599873 0 0,0 -0.4942276530512058,-0.28063535995189376 l 6.0231773970189835 -10.397973505298642" fill="#ff930d" stroke="none" /><path d="M 89.4739219176387 118.17145234162733 l -5.726845981308679 9.886408594248808 a32.425315741198055,32.425315741198055 0 0,0 -0.48056190717666597,-0.2839244453484503 l 5.896175759513727 -9.786365576606608" fill="#ff8b0c" stroke="none" /><path d="M 89.1626897886671 117.98757091392108 l -16.16229633365862 26.825886291367375 a52.318492909052424,52.318492909052424 0 0,0 -0.7673897163896267,-0.471393440788116 l 16.621665249980556 -26.54370438375088" fill="#82ff25" stroke="none" /><path d="M 88.24862548938628 117.40417183066458 l -4.208705074146277 6.233230523703758 a28.521061172652225,28.521061172652225 0 0,0 -0.4045143673106569,-0.2782286703951967 l 4.315376326079827 -6.159861063943459" fill="#ff5608" stroke="none" /><path d="M 87.95078237400918 117.19931262002967 l -9.7937618747911 13.979826528098634 a38.06907500176392,38.06907500176392 0 0,0 -0.5334613536709666,-0.38061051156681963 l 10.03295055631095 -13.809171754687597" fill="#ffd513" stroke="none" /><path d="M 87.65650970185807 116.9893568818739 l -8.832828519280005 12.157345480559169 a36.02730543992098,36.02730543992098 0 0,0 -0.4985750683886693,-0.3688339163474576 l 9.04078855808724 -12.003501615471942" fill="#ffbb11" stroke="none" /><path d="M 85.70375840098266 115.38237550388516 l -21.635510199486546 23.279233202768143 a52.780780357016866,52.780780357016866 0 0,0 -0.6601723634608341,-0.624234175533517 l 22.033018397338196 -22.903364390488697" fill="#7dff26" stroke="none" /><path d="M 84.9287848128048 114.62390073753433 l -3.99510022283866 3.876525440691205 a26.56671135257179,26.56671135257179 0 0,0 -0.31562954447013986,-0.33093631550665153 l 4.061236318687757 -3.8071820086020534" fill="#ff3a05" stroke="none" /><path d="M 84.67929136418377 114.36230785411682 l -11.087596731642357 10.394002092688654 a36.19769985183095,36.19769985183095 0 0,0 -0.42222650480945045,-0.45824348022318634 l 11.264869644447536 -10.201607357664125" fill="#ffbd11" stroke="none" /><path d="M 84.43433777217949 114.09645910891817 l -14.310349172969815 12.959631848529154 a40.306427714668736,40.306427714668736 0 0,0 -0.46129967635759916,-0.518275076592056 l 14.531307698975752 -12.711382602196233" fill="#fff116" stroke="none" /><path d="M 83.50135304334701 112.99209946851258 l -13.335814544233163 10.501481091602352 a37.97424680730967,37.97424680730967 0 0,0 -0.3999830721454966,-0.5170320390087805 l 13.514604433596729 -10.270371058480318" fill="#ffd413" stroke="none" /><path d="M 83.06392112726016 112.41649034213515 l -11.97104622501289 8.77643408223452 a35.84357581316588,35.84357581316588 0 0,0 -0.3605184535836929,-0.5007286001927228 l 12.12034447097219 -8.569071876590657" fill="#ffb911" stroke="none" /><line stroke="#e1ed5e" stroke-width="0.3" x1="26.63291911575756" x2="22.317208475507996" y1="142.92168965132927" y2="145.44649492493687" /><path d="M 25.769776987707644 143.4266507060508 a86.0,86.0 0 0,1 -11.730757126820373,-40.83630448921669" fill="none" id="id9" stroke="none" /><text fill="#e1ed5e" style="font-size:6.75px; font-family:Arial;" text-anchor="middle"><textPath startOffset="21.46611528233685" xlink:href="#id9">September</textPath></text><path d="M 81.87401531095188 110.60418214915194 l -12.821067981916855 7.500665070574207 a35.853947646934316,35.853947646934316 0 0,0 -0.30706004354087585,-0.5353850680816121 l 12.948280021610104 -7.278860156634288" fill="#ffb911" stroke="none" /><path d="M 81.69416730710424 110.29060199501025 l -17.052981658385853 9.586313281600248 a40.562760177802865,40.562760177802865 0 0,0 -0.3369096320366344,-0.6115888441643413 l 17.215467699874008 -9.291353919038082" fill="#fff417" stroke="none" /><path d="M 81.51974371655577 109.97397251340807 l -6.634272487840563 3.580580833148964 a28.538841459112398,28.538841459112398 0 0,0 -0.22959836584212723,-0.4343135817699939 l 6.694923361907576 -3.465852236292844" fill="#ff5608" stroke="none" /><path d="M 81.35079622478065 109.6543875284942 l -10.64371758539119 5.510078368587424 a32.98539476469343,32.98539476469343 0 0,0 -0.2566912900033959,-0.5064762674856982 l 10.736987545180854 -5.326047889399039" fill="#ff930d" stroke="none" /><path d="M 81.18737489456691 109.33194174019688 l -6.676603702838382 3.311907637987039 a28.452903407888236,28.452903407888236 0 0,0 -0.2138665782281487,-0.44062849633801304 l 6.73262353768125 -3.1964901856837424" fill="#ff5507" stroke="none" /><path d="M 80.87730276802145 108.67885076344099 l -13.605678324086051 6.174947512773511 a35.94136738869682,35.94136738869682 0 0,0 -0.2508346579886646,-0.5655659353486684 l 13.709954066805997 -5.939833240932147" fill="#ffba11" stroke="none" /><path d="M 80.45479744820244 107.68017299344265 l -10.075301618812741 3.959030825519792 a31.825231073167288,31.825231073167288 0 0,0 -0.19596116338185057,-0.5115927614471603 l 10.141957061788103 -3.785014497239474" fill="#ff830c" stroke="none" /><path d="M 80.32549172779595 107.34259656027581 l -10.030903603679285 3.7435689511432306 a31.706695830099484,31.706695830099484 0 0,0 -0.18642893803353228,-0.5129723694253933 l 10.093856802718038 -3.57034878471172" fill="#ff820b" stroke="none" /><path d="M 79.97269907076064 106.31721596034903 l -10.076531639483937 3.178442603065612 a31.565935228956466,31.565935228956466 0 0,0 -0.158991945144246,-0.5195948759437785 l 10.129750357134313 -3.0045207545697856" fill="#ff800b" stroke="none" /><path d="M 79.86692584326677 105.97154293290107 l -12.798913296561512 3.796204178751054 a34.35003175051153,34.35003175051153 0 0,0 -0.1632564805665314,-0.5683172260902385 l 12.862362414014148 -3.5753294771562194" fill="#ffa50f" stroke="none" /><path d="M 79.29508885075956 103.50808413554451 l -10.35318600964277 1.7541658271787157 a31.500740845269174,31.500740845269174 0 0,0 -0.08597939055097428,-0.5353937470346629 l 10.381847154555034 -1.5756928504508392" fill="#ff7f0b" stroke="none" /><path d="M 79.23777060512086 103.15116336523772 l -10.661645772661428 1.6181589622662915 a31.78374373809356,31.78374373809356 0 0,0 -0.07744025764784694,-0.5416169816233986 l 10.687920081325874 -1.4343965086624924" fill="#ff830c" stroke="none" /><path d="M 79.1416061653843 102.43462659150553 l -10.356347803160281 1.2088102253880217 a31.426656318351796,31.426656318351796 0 0,0 -0.05809097475218299,-0.5378502796037375 l 10.375621079413516 -1.030363623899502" fill="#ff7e0b" stroke="none" /><path d="M 79.07016306316243 101.71520430193888 l -15.033213858534285 1.2319748672643618 a36.08360968037818,36.08360968037818 0 0,0 -0.045402530646118766,-0.6194814581877082 l 15.05219294784474 -0.9730202725798931" fill="#ffbc11" stroke="none" /><line stroke="#e1ed5e" stroke-width="0.3" x1="15.007084014347285" x2="10.007500721073583" y1="101.09737516637583" y2="101.16192664675087" /><path d="M 14.007167355692545 101.11028546245083 a86.0,86.0 0 0,1 10.666146001902534,-42.60595125391555" fill="none" id="id10" stroke="none" /><text fill="#e1ed5e" style="font-size:6.75px; font-family:Arial;" text-anchor="middle"><textPath startOffset="22.20632615414155" xlink:href="#id10">October</textPath></text><path d="M 79.01574976396665 99.18683210126434 l -3.3623955609985 -0.13029734692927888 a24.364919212587314,24.364919212587314 0 0,0 0.019847421590936686,-0.41894770074728277 l 3.3596545311740647 0.18815615429957072" fill="#ff1b02" stroke="none" /><path d="M 81.10775173730289 90.83032412892265 l -5.358557681227854 -2.6008676357673677 a26.9563959641572,26.9563959641572 0 0,0 0.2062035761192804,-0.41569382674369526 l 5.312994092155161 2.6927210510100243" fill="#ff4006" stroke="none" /><line stroke="#e1ed5e" stroke-width="0.3" x1="26.266209847984257" x2="21.92892807433627" y1="57.711370442889674" y2="55.22380399835377" /><path d="M 25.39875349325466 57.213857153982495 a86.0,86.0 0 0,1 29.58750427330802,-30.492523968695096" fill="none" id="id11" stroke="none" /><text fill="#e1ed5e" style="font-size:6.75px; font-family:Arial;" text-anchor="middle"><textPath startOffset="21.46611528233685" xlink:href="#id11">November</textPath></text><path d="M 81.96595687620814 89.24020034530311 l -5.270373711899095 -3.1445064679146633 a27.1371622098356,27.1371622098356 0 0,0 0.24279257421773046,-0.39908715400496936 l 5.215465339395146 3.234761395126707" fill="#ff4306" stroke="none" /><path d="M 82.15384107792192 88.93136811851018 l -7.045033455798128 -4.369505071398825 a29.29005856205461,29.29005856205461 0 0,0 0.26943004850136243,-0.42617363296305566 l 6.968775811050803 4.4901263520760955" fill="#ff6108" stroke="none" /><path d="M 85.05521093208273 85.24692304244772 l -4.2937402867818495 -4.2386600840438104 a27.033443872151274,27.033443872151274 0 0,0 0.3297619294395943,-0.3283458269165817 l 4.220142557174942 4.311941761610504" fill="#ff4106" stroke="none" /><path d="M 85.31137513191541 84.99185889309783 l -6.280467558074694 -6.41708425229854 a29.97904466238623,29.97904466238623 0 0,0 0.37190683214490605,-0.35777407786200216 l 6.16907748231736 6.524241416922854" fill="#ff6a09" stroke="none" /><path d="M 85.57189188830299 84.74124197986013 l -6.751373244674706 -7.140060903800719 a30.826571650321032,30.826571650321032 0 0,0 0.38869681631609526,-0.3612513290564424 l 6.6274685445637544 7.2552168189318085" fill="#ff760a" stroke="none" /><path d="M 85.83668400450813 84.49514656593479 l -5.092518049321003 -5.5748770972974215 a28.550694983419177,28.550694983419177 0 0,0 0.365705868906599,-0.328334339943891 l 4.995801192818433 5.661710446010591" fill="#ff5608" stroke="none" /><path d="M 86.10567301691215 84.25364557470407 l -5.4232284534284885 -6.146111104264245 a29.196712058138715,29.196712058138715 0 0,0 0.37970491058105754,-0.3292763567815702 l 5.316629744200657 6.238552454465496" fill="#ff5f08" stroke="none" /><path d="M 86.37877921826538 84.01681056812374 l -6.79090849105601 -7.96847643587368 a31.469625343963877,31.469625343963877 0 0,0 0.41531283232381677,-0.3478125533135412 l 6.6527381217730825 8.084190146581033" fill="#ff7f0b" stroke="none" /><path d="M 86.65592168130627 83.78471172551755 l -4.73487404675868 -5.753664342931788 a28.45142171734989,28.45142171734989 0 0,0 0.38083799765501036,-0.30794450859621064 l 4.635132650539169 5.834314948792133" fill="#ff5507" stroke="none" /><path d="M 87.51073957382395 83.11751280151077 l -4.4271533465821244 -5.984450411713111 a28.444013264658153,28.444013264658153 0 0,0 0.3961230905211605,-0.2878002715885435 l 4.32348493970718 6.059769918118323" fill="#ff5507" stroke="none" /><path d="M 87.80319425747017 82.90503203632743 l -6.887972423848778 -9.654139813817485 a32.859451068933886,32.859451068933886 0 0,0 0.4632695348517052,-0.32454991476921224 l 6.720771749413415 9.77127457135064" fill="#ff910d" stroke="none" /><line stroke="#e1ed5e" stroke-width="0.3" x1="56.762969772571076" x2="54.21961505331055" y1="26.818313649435495" y2="22.513508569990535" /><path d="M 56.25429882871897 25.957352633546506 a86.0,86.0 0 0,1 42.265352541879196,-11.944610805530505" fill="none" id="id12" stroke="none" /><text fill="#e1ed5e" style="font-size:6.75px; font-family:Arial;" text-anchor="middle"><textPath startOffset="22.20632615414155" xlink:href="#id12">December</textPath></text></svg>