<?xml version="1.0" encoding="utf-8" ?>
<svg baseProfile="full" height="200mm" version="1.1" viewBox="0,0,200,200" width="200mm" xmlns="http://www.w3.org/2000/svg" xmlns:ev="http://www.w3.org/2001/xml-events" xmlns:xlink="http://www.w3.org/1999/xlink"><defs /><rect fill="#1a1a1a" height="200" width="200" x="0" y="0" /><text alignment-baseline="middle" fill="#e1ed5e" style="dominant-baseline: central; font-size:9.0px; font-family:Arial;" text-anchor="middle" x="100.0" y="100.0">2018</text><line stroke="#e1ed5e" stroke-width="0.3" x1="100.0" x2="100.0" y1="15.0" y2="10.0" /><path d="M 100.0 14.0 a86.0,86.0 0 0,1 42.46469731375804,11.215312516191453" fill="none" id="id49" stroke="none" /><text fill="#e1ed5e" style="font-size:6.75px; font-family:Arial;" text-anchor="middle"><textPath startOffset="22.20632615414155" xlink:href="#id49">January</textPath></text><path d="M 101.80526077348638 79.07773832637324 l 1.6480807752149742 -19.100607371936324 a40.171577196947084,40.171577196947084 0 0,0 0.6884162494445607,0.06537341793676905 l -1.9766221517497793 19.069408409484378" fill="#ff7d0b" stroke="none" /><line stroke="#e1ed5e" stroke-width="0.3" x1="143.23703022742887" x2="145.7803849466894" y1="26.81831364943548" y2="22.513508569990506" /><path d="M 143.74570117128098 25.957352633546492 a86.0,86.0 0 0,1 28.547481713284135,27.462654790039103" fill="none" id="id50" stroke="none" /><text fill="#e1ed5e" style="font-size:6.75px; font-family:Arial;" text-anchor="middle"><textPath startOffset="19.985693538727396" xlink:href="#id50">February</textPath></text><line stroke="#e1ed5e" stroke-width="0.3" x1="172.23445277983987" x2="176.4835382374775" y1="55.19839476539836" y2="52.563006222186495" /><path d="M 173.08426987136738 54.67131705675599 a86.0,86.0 0 0,1 12.851231095245387,41.99856678651699" fill="none" id="id51" stroke="none" /><text fill="#e1ed5e" style="font-size:6.75px; font-family:Arial;" text-anchor="middle"><textPath startOffset="22.20632615414155" xlink:href="#id51">March</textPath></text><path d="M 120.83666639777658 97.38593545837742 l 17.81358917114597 -2.2348043070984476 a38.95322560013645,38.95322560013645 0 0,0 0.07773885401301343,0.6660190268654114 l -17.84941837816257 1.9278415419081834" fill="#ff6909" stroke="none" /><path d="M 120.87857604477298 97.74499172005257 l 20.93614428412667 -2.2612259863717643 a42.057903040122795,42.057903040122795 0 0,0 0.07154424687482472,0.7204408024186907 l -20.971965656683725 1.9005096532486387" fill="#ff9c0e" stroke="none" /><path d="M 120.96714384426684 98.82574320788733 l 23.801741724376946 -1.3330073514807053 a44.83903978169104,44.83903978169104 0 0,0 0.03652543718759256,0.7709942502313385 l -23.821160769798034 0.9231019946263671" fill="#ffc712" stroke="none" /><line stroke="#e1ed5e" stroke-width="0.3" x1="184.98032266829074" x2="189.97916517819016" y1="98.17113171792111" y2="98.06355123074" /><path d="M 185.9800911702706 98.14961562048488 a86.0,86.0 0 0,1 -9.607161424134198,41.387399972396054" fill="none" id="id52" stroke="none" /><text fill="#e1ed5e" style="font-size:6.75px; font-family:Arial;" text-anchor="middle"><textPath startOffset="21.466115282336823" xlink:href="#id52">April</textPath></text><path d="M 120.99980553446 99.90962569577887 l 26.969135836044718 -0.1160637836682882 a47.969385579669975,47.969385579669975 0 0,0 -0.0035536239603413166,0.8257370582592163 l -26.967137914794872 -0.34818275279461275" fill="#fff717" stroke="none" /><path d="M 119.41010516605496 108.01547362559984 l 13.02890101880987 5.380332130783965 a35.09610710783269,35.09610710783269 0 0,0 -0.23539296429085077,0.5563994336260156 l -12.93435707332671 -5.603806090076144" fill="#ff2803" stroke="none" /><line stroke="#e1ed5e" stroke-width="0.3" x1="174.80103733775053" x2="179.2010983576182" y1="140.37084112569926" y2="142.7455964860345" /><path d="M 175.68104954172406 140.8457921977663 a86.0,86.0 0 0,1 -30.038265399797805,32.042727171017184" fill="none" id="id53" stroke="none" /><text fill="#e1ed5e" style="font-size:6.75px; font-family:Arial;" text-anchor="middle"><textPath startOffset="22.206326154141568" xlink:href="#id53">May</textPath></text><path d="M 118.30583269289576 110.29060199501025 l 21.017403186014754 11.814908110674148 a45.11064682556602,45.11064682556602 0 0,0 -0.3863361801834783,0.6736096945234333 l -20.810915009678897 -12.174937651055897" fill="#ffcc13" stroke="none" /><path d="M 117.94076556474637 110.91462005526583 l 17.959634744976206 10.92609949477022 a42.02208672664478,42.02208672664478 0 0,0 -0.3812711160173989,0.6147304383862819 l -17.768898989290843 -11.233626264521774" fill="#ff9b0e" stroke="none" /><path d="M 117.75023020441432 111.22182372390056 l 31.062839787505894 19.638151643377917 a57.749925382680246,57.749925382680246 0 0,0 -0.5384359300127156,0.8356645204735403 l -30.720198994116128 -20.169937763772907" fill="#80ff26" stroke="none" /><path d="M 117.35343817320211 111.8261652097733 l 20.006312446443076 13.634068008225821 a45.210335564746515,45.210335564746515 0 0,0 -0.4437913123910599,0.6393144850194488 l -19.76866022688988 -13.97642375543229" fill="#ffcd13" stroke="none" /><path d="M 116.93607887273984 112.41649034213515 l 19.466657721062212 14.271754955999274 a45.13780752995352,45.13780752995352 0 0,0 -0.4647877297351374,0.622659118505476 l -19.218108724631982 -14.604726954014065" fill="#ffcc13" stroke="none" /><path d="M 116.27256486870786 113.27417163493432 l 28.272942550918298 23.063352032919475 a57.48667547861681,57.48667547861681 0 0,0 -0.6320906343254463,0.7613938881110056 l -27.871755916699307 -23.54660717814425" fill="#83ff25" stroke="none" /><path d="M 115.80600337817218 113.82643327865902 l 22.54072353158856 19.717685901080017 a50.94781051464631,50.94781051464631 0 0,0 -0.5830883517613609,0.6551059444810657 l -22.19797633017886 -20.10276601530195" fill="#dcff1b" stroke="none" /><path d="M 115.07121518719521 114.62390073753431 l 23.495235990032448 22.797896165340457 a53.737901334584066,53.737901334584066 0 0,0 -0.649868753988489,0.6583136167548037 l -23.099326610988424 -23.198950276075927" fill="#b5ff1f" stroke="none" /><path d="M 113.20401910651253 116.32954008644616 l 7.4177014909821635 9.17354427233006 a32.79729672110177,32.79729672110177 0 0,0 -0.44204900457303076,0.3511904640422224 l -7.2586949936917815 -9.299868650377409" fill="#ff0000" stroke="none" /><path d="M 112.92097659922987 116.55440617244103 l 18.400900158703713 23.5753058467633 a50.906323284867604,50.906323284867604 0 0,0 -0.6954076994500589,0.5332089702327659 l -17.99236373076016 -23.88855415882344" fill="#ddff1b" stroke="none" /><line stroke="#e1ed5e" stroke-width="0.3" x1="143.8653032363475" x2="146.44561519142675" y1="172.8068346515853" y2="177.08958963109032" /><path d="M 144.38136562736335 173.6633856474863 a86.0,86.0 0 0,1 -40.68145358897372,12.25698825130547" fill="none" id="id54" stroke="none" /><text fill="#e1ed5e" style="font-size:6.75px; font-family:Arial;" text-anchor="middle"><textPath startOffset="21.466115282336833" xlink:href="#id54">June</textPath></text><line stroke="#e1ed5e" stroke-width="0.3" x1="102.19456741930631" x2="102.32365962044197" y1="184.97166512339345" y2="189.96999836594603" /><path d="M 102.22038585953345 185.97133177190398 a86.0,86.0 0 0,1 -42.740103519485714,-10.115201625700543" fill="none" id="id55" stroke="none" /><text fill="#e1ed5e" style="font-size:6.75px; font-family:Arial;" text-anchor="middle"><textPath startOffset="22.20632615414155" xlink:href="#id55">July</textPath></text><path d="M 99.09653310690486 120.98055641714683 l -0.5265504543592033 12.227699319795942 a33.239031253997354,33.239031253997354 0 0,0 -0.5714136608128569,-0.029535559344609587 l 0.7369521835855491 -12.216823953689131" fill="#ff0801" stroke="none" /><path d="M 98.73552117531835 120.96189622390904 l -1.2745250684173044 21.128437817580988 a42.166844326951775,42.166844326951775 0 0,0 -0.7241397297493583,-0.049940915473113336 l 1.6380275589455928 -21.103368557591587" fill="#ff9d0e" stroke="none" /><path d="M 98.01472825383883 120.90594882070398 l -2.486139563584776 26.180348648960724 a47.29812817123609,47.29812817123609 0 0,0 -0.809850720568914,-0.08394433846677826 l 2.936422880759283 -26.133674942038184" fill="#ffed16" stroke="none" /><path d="M 97.65516085044442 120.86867818915974 l -2.4891441214508014 22.15296842294734 a43.29237197799855,43.29237197799855 0 0,0 -0.7398307187601029,-0.0895831968823553 l 2.870102263262294 -22.106839697339634" fill="#ffaf10" stroke="none" /><path d="M 96.93821686468263 120.77559828337769 l -5.198751887375092 35.27590819258375 a56.65693088304268,56.65693088304268 0 0,0 -0.9636106566397084,-0.15049616691305517 l 5.805198407623317 -35.181193718323584" fill="#8eff24" stroke="none" /><path d="M 95.86986931433489 120.58985236759428 l -11.5846059610854 57.75248887483805 a79.90291220739351,79.90291220739351 0 0,0 -1.3462063140778053,-0.282110622033832 l 12.577003736592593 -57.54452227207768" fill="#47fffe" stroke="none" /><path d="M 93.08242187328487 119.8279376855182 l -10.193937561821574 29.219006282743955 a51.94619025284611,51.94619025284611 0 0,0 -0.8417272591833469,-0.30181344792171094 l 10.695384381634648 -29.039205293782285" fill="#ceff1d" stroke="none" /><path d="M 92.40401165467489 119.57807347666478 l -10.892776191957289 28.075289607606276 a51.11435637231911,51.11435637231911 0 0,0 -0.8175350008165493,-0.3253140488244442 l 11.374432268815697 -27.883628714375764" fill="#daff1c" stroke="none" /><path d="M 91.7346041902142 119.30500536409082 l -11.796095095777808 27.551454805068513 a50.970494179849055,50.970494179849055 0 0,0 -0.8035846107345641,-0.3522678781711865 l 12.268600381170115 -27.344322373602875" fill="#dcff1b" stroke="none" /><path d="M 91.07499286063937 119.00905698771935 l -19.07157539744158 40.619873789986045 a65.87425915661109,65.87425915661109 0 0,0 -1.022266026857553,-0.49074981589577854 l 19.767954092299377 -40.2855696975907" fill="#32ff47" stroke="none" /><line stroke="#e1ed5e" stroke-width="0.3" x1="58.666819895761336" x2="56.23545636021788" y1="174.27360380694188" y2="178.64263932499728" /><path d="M 58.180547188652646 175.14741091055294 a86.0,86.0 0 0,1 -31.652253787137756,-30.449443065178592" fill="none" id="id56" stroke="none" /><text fill="#e1ed5e" style="font-size:6.75px; font-family:Arial;" text-anchor="middle"><textPath startOffset="22.20632615414155" xlink:href="#id56">August</textPath></text><path d="M 87.36589467227662 116.77436683061367 l -14.454907613473805 19.191855420025433 a45.02647848889268,45.02647848889268 0 0,0 -0.6150858635985386,-0.4716216116006069 l 14.783122205565832 -18.940194466597458" fill="#ffca12" stroke="none" /><path d="M 85.70375840098266 115.38237550388516 l -22.45005104950649 24.155657480539283 a53.97727369632882,53.97727369632882 0 0,0 -0.6751378836811769,-0.6383850090025249 l 22.862524767578485 -23.765637834790827" fill="#b2ff20" stroke="none" /><path d="M 85.18274418774928 114.88116024355367 l -25.32026181182975 25.429464011753204 a56.88555835074404,56.88555835074404 0 0,0 -0.6879343258153309,-0.6968738400450709 l 25.75423676270061 -24.98984967772747" fill="#8bff24" stroke="none" /><path d="M 82.24976979558568 111.22182372390057 l -25.45665414526403 16.093880593583062 a51.117341065108945,51.117341065108945 0 0,0 -0.4637933809074537,-0.7477826050502143 l 25.729912165839437 -15.653301657167582" fill="#daff1c" stroke="none" /><line stroke="#e1ed5e" stroke-width="0.3" x1="26.63291911575756" x2="22.317208475507996" y1="142.92168965132927" y2="145.44649492493687" /><path d="M 25.769776987707644 143.4266507060508 a86.0,86.0 0 0,1 -11.730757126820373,-40.83630448921669" fill="none" id="id57" stroke="none" /><text fill="#e1ed5e" style="font-size:6.75px; font-family:Arial;" text-anchor="middle"><textPath startOffset="21.46611528233685" xlink:href="#id57">September</textPath></text><path d="M 80.58989483394504 108.01547362559985 l -58.23031549816486 24.046420876799544 a84.0,84.0 0 0,0 -0.5403895429704488,-1.3412025286287785 l 58.6356076553927 -23.04051898032796" fill="#4dd2ff" stroke="none" /><line stroke="#e1ed5e" stroke-width="0.3" x1="15.007084014347285" x2="10.007500721073583" y1="101.09737516637583" y2="101.16192664675087" /><path d="M 14.007167355692545 101.11028546245083 a86.0,86.0 0 0,1 10.666146001902534,-42.60595125391555" fill="none" id="id58" stroke="none" /><text fill="#e1ed5e" style="font-size:6.75px; font-family:Arial;" text-anchor="middle"><textPath startOffset="22.20632615414155" xlink:href="#id58">October</textPath></text><line stroke="#e1ed5e" stroke-width="0.3" x1="26.266209847984243" x2="21.928928074336255" y1="57.711370442889674" y2="55.22380399835377" /><path d="M 25.398753493254645 57.213857153982495 a86.0,86.0 0 0,1 29.58750427330803,-30.492523968695096" fill="none" id="id59" stroke="none" /><text fill="#e1ed5e" style="font-size:6.75px; font-family:Arial;" text-anchor="middle"><textPath startOffset="21.46611528233685" xlink:href="#id59">November</textPath></text><line stroke="#e1ed5e" stroke-width="0.3" x1="56.762969772571076" x2="54.21961505331055" y1="26.818313649435495" y2="22.513508569990535" /><path d="M 56.25429882871897 25.957352633546506 a86.0,86.0 0 0,1 42.265352541879196,-11.944610805530505" fill="none" id="id60" stroke="none" /><text fill="#e1ed5e" style="font-size:6.75px; font-family:Arial;" text-anchor="middle"><textPath startOffset="22.20632615414155" xlink:href="#id60">December</textPath></text></svg>