<?xml version="1.0" encoding="utf-8" ?>
<svg baseProfile="full" height="200mm" version="1.1" viewBox="0,0,200,200" width="200mm" xmlns="http://www.w3.org/2000/svg" xmlns:ev="http://www.w3.org/2001/xml-events" xmlns:xlink="http://www.w3.org/1999/xlink"><defs /><rect fill="#1a1a1a" height="200" width="200" x="0" y="0" /><text alignment-baseline="middle" fill="#e1ed5e" style="dominant-baseline: central; font-size:9.0px; font-family:Arial;" text-anchor="middle" x="100.0" y="100.0">2019</text><line stroke="#e1ed5e" stroke-width="0.3" x1="100.0" x2="100.0" y1="15.0" y2="10.0" /><path d="M 100.0 14.0 a86.0,86.0 0 0,1 42.46469731375804,11.215312516191453" fill="none" id="id61" stroke="none" /><text fill="#e1ed5e" style="font-size:6.75px; font-family:Arial;" text-anchor="middle"><textPath startOffset="22.20632615414155" xlink:href="#id61">January</textPath></text><line stroke="#e1ed5e" stroke-width="0.3" x1="143.23703022742887" x2="145.7803849466894" y1="26.81831364943548" y2="22.513508569990506" /><path d="M 143.74570117128098 25.957352633546492 a86.0,86.0 0 0,1 28.547481713284135,27.462654790039103" fill="none" id="id62" stroke="none" /><text fill="#e1ed5e" style="font-size:6.75px; font-family:Arial;" text-anchor="middle"><textPath startOffset="19.985693538727396" xlink:href="#id62">February</textPath></text><line stroke="#e1ed5e" stroke-width="0.3" x1="172.23445277983987" x2="176.4835382374775" y1="55.19839476539836" y2="52.563006222186495" /><path d="M 173.08426987136738 54.67131705675599 a86.0,86.0 0 0,1 12.851231095245387,41.99856678651699" fill="none" id="id63" stroke="none" /><text fill="#e1ed5e" style="font-size:6.75px; font-family:Arial;" text-anchor="middle"><textPath startOffset="22.20632615414155" xlink:href="#id63">March</textPath></text><path d="M 120.83666639777658 97.38593545837742 l 17.765688143934252 -2.2287948824452406 a38.904949088325836,38.904949088325836 0 0,0 0.07764250870024196,0.6651935990626764 l -17.801421005638083 1.9226575450577115" fill="#ffb210" stroke="none" /><path d="M 120.87857604477298 97.74499172005257 l 17.985338369802314 -1.942521695664873 a39.08993606440919,39.08993606440919 0 0,0 0.06649547014850506,0.6696003097889125 l -18.01611096563305 1.6326458551715255" fill="#ffb510" stroke="none" /><path d="M 120.91429891909075 98.10471618934814 l 23.807534398260266 -2.157472965798163 a44.90509116741653,44.90509116741653 0 0,0 0.0631355236119343,0.7704133044826916 l -23.841144405691697 1.747345744107703" fill="#faff18" stroke="none" /><path d="M 120.98425023603335 99.18683210126433 l 36.149756208179646 -1.4008516370594333 a57.176888467913805,57.176888467913805 0 0,0 0.02964568722448332,0.9837960324194556 l -36.16851358985978 0.7783854572149786" fill="#65ff29" stroke="none" /><line stroke="#e1ed5e" stroke-width="0.3" x1="184.98032266829074" x2="189.97916517819016" y1="98.17113171792111" y2="98.06355123074" /><path d="M 185.9800911702706 98.14961562048488 a86.0,86.0 0 0,1 -9.607161424134198,41.387399972396054" fill="none" id="id64" stroke="none" /><text fill="#e1ed5e" style="font-size:6.75px; font-family:Arial;" text-anchor="middle"><textPath startOffset="21.466115282336823" xlink:href="#id64">April</textPath></text><path d="M 120.99980553446 99.90962569577887 l 20.900351091957223 -0.08994629425560256 a41.900544636514326,41.900544636514326 0 0,0 -0.003104037660110729,0.7212690354382554 l -20.89880275700761 -0.26983221938633756" fill="#ffdb14" stroke="none" /><path d="M 120.89721153311464 102.0752229133903 l 29.815268512745053 2.96084136816463 a50.96192280369405,50.96192280369405 0 0,0 -0.09420116925335545,0.8721858333081411 l -29.759885041990646 -3.473623523357563" fill="#adff20" stroke="none" /><path d="M 120.8583938346157 102.4346265915055 l 5.99820825781608 0.7001208933753941 a27.038929670850106,27.038929670850106 0 0,0 -0.05793862032232726,0.46182781028598596 l -5.985268128246904 -0.803266457948775" fill="#ff0000" stroke="none" /><path d="M 120.76222939487914 103.15116336523771 l 31.98848433219079 4.855015230779682 a53.354818849159365,53.354818849159365 0 0,0 -0.14562879108595594,0.9068306211057843 l -31.900173786743544 -5.404925081578671" fill="#91ff24" stroke="none" /><line stroke="#e1ed5e" stroke-width="0.3" x1="174.80103733775053" x2="179.2010983576182" y1="140.37084112569926" y2="142.7455964860345" /><path d="M 175.68104954172406 140.8457921977663 a86.0,86.0 0 0,1 -30.038265399797805,32.042727171017184" fill="none" id="id65" stroke="none" /><text fill="#e1ed5e" style="font-size:6.75px; font-family:Arial;" text-anchor="middle"><textPath startOffset="22.206326154141568" xlink:href="#id65">May</textPath></text><path d="M 111.45004920935366 117.60387380957326 l 16.325064240946826 25.09896381895349 a50.94103717736206,50.94103717736206 0 0,0 -0.7391743357402899,0.4717760338927127 l -15.890608103159606 -25.37625428167001" fill="#aeff20" stroke="none" /><line stroke="#e1ed5e" stroke-width="0.3" x1="143.8653032363475" x2="146.44561519142675" y1="172.8068346515853" y2="177.08958963109032" /><path d="M 144.38136562736335 173.6633856474863 a86.0,86.0 0 0,1 -40.68145358897372,12.25698825130547" fill="none" id="id66" stroke="none" /><text fill="#e1ed5e" style="font-size:6.75px; font-family:Arial;" text-anchor="middle"><textPath startOffset="21.466115282336833" xlink:href="#id66">June</textPath></text><path d="M 110.8373102113329 117.98757091392108 l 15.420648131636147 25.59491205819364 a50.88136395927066,50.88136395927066 0 0,0 -0.7540912014296931,0.44553037373676413 l -14.977789059178072 -25.85656100422415" fill="#aeff20" stroke="none" /><path d="M 110.5260780823613 118.17145234162733 l 18.164775428135485 31.3583414835054 a57.23954534690978,57.23954534690978 0 0,0 -0.8568248409843348,0.48652750646562865 l -17.62230182022995 -31.666372155765654" fill="#64ff29" stroke="none" /><line stroke="#e1ed5e" stroke-width="0.3" x1="102.19456741930631" x2="102.32365962044197" y1="184.97166512339345" y2="189.96999836594603" /><path d="M 102.22038585953345 185.97133177190398 a86.0,86.0 0 0,1 -42.740103519485714,-10.115201625700543" fill="none" id="id67" stroke="none" /><text fill="#e1ed5e" style="font-size:6.75px; font-family:Arial;" text-anchor="middle"><textPath startOffset="22.20632615414155" xlink:href="#id67">July</textPath></text><line stroke="#e1ed5e" stroke-width="0.3" x1="58.666819895761336" x2="56.23545636021788" y1="174.27360380694188" y2="178.64263932499728" /><path d="M 58.180547188652646 175.14741091055294 a86.0,86.0 0 0,1 -31.652253787137756,-30.449443065178592" fill="none" id="id68" stroke="none" /><text fill="#e1ed5e" style="font-size:6.75px; font-family:Arial;" text-anchor="middle"><textPath startOffset="22.20632615414155" xlink:href="#id68">August</textPath></text><line stroke="#e1ed5e" stroke-width="0.3" x1="26.63291911575756" x2="22.317208475507996" y1="142.92168965132927" y2="145.44649492493687" /><path d="M 25.769776987707644 143.4266507060508 a86.0,86.0 0 0,1 -11.730757126820373,-40.83630448921669" fill="none" id="id69" stroke="none" /><text fill="#e1ed5e" style="font-size:6.75px; font-family:Arial;" text-anchor="middle"><textPath startOffset="21.46611528233685" xlink:href="#id69">September</textPath></text><path d="M 80.87730276802145 108.67885076344099 l -18.217052087200965 8.267823021861973 a41.005446365143264,41.005446365143264 0 0,0 -0.2861768447326228,-0.6452532363914824 l 18.356670016664868 -7.953021448977796" fill="#ffcf13" stroke="none" /><path d="M 79.97269907076064 106.31721596034903 l -28.585498243211735 9.016730031399433 a50.97385744731234,50.97385744731234 0 0,0 -0.25674616285784047,-0.8390613154529906 l 28.736471178575705 -8.523341743394395" fill="#adff20" stroke="none" /><path d="M 79.76711848015287 105.62410040840567 l -23.848257412548197 6.629060429287254 a45.75245086431447,45.75245086431447 0 0,0 -0.2043869251266605,-0.7605997821987063 l 23.958832414016626 -6.217569713913009" fill="#efff19" stroke="none" /><path d="M 79.67330655649465 105.27499134158121 l -31.00265983178261 8.045517222620077 a53.029599810561216,53.029599810561216 0 0,0 -0.22168566051562186,-0.8855240162600553 l 31.13655680659329 -7.5106653669626295" fill="#95ff23" stroke="none" /><path d="M 79.58551787078972 104.9243191809786 l -30.640576255691805 7.391026449612782 a52.51939379587971,52.51939379587971 0 0,0 -0.2044240726926438,-0.8806535548848611 l 30.763260894315003 -6.862504237379347" fill="#9bff22" stroke="none" /><path d="M 79.50377843672027 104.57218783832718 l -23.47722541934566 5.23717428642108 a45.05427421264504,45.05427421264504 0 0,0 -0.16233690323202035,-0.7583839671621295 l 23.56389636130212 -4.832276499842787" fill="#f8ff18" stroke="none" /><path d="M 79.35854240842038 103.8639653848113 l -61.92437277473888 11.591896154433886 a84.0,84.0 0 0,0 -0.25381423064324515,-1.4235249970671453 l 62.11473344772131 -10.524252406633527" fill="#4dd2ff" stroke="none" /><line stroke="#e1ed5e" stroke-width="0.3" x1="15.007084014347285" x2="10.007500721073583" y1="101.09737516637583" y2="101.16192664675087" /><path d="M 14.007167355692545 101.11028546245083 a86.0,86.0 0 0,1 10.666146001902534,-42.60595125391555" fill="none" id="id70" stroke="none" /><text fill="#e1ed5e" style="font-size:6.75px; font-family:Arial;" text-anchor="middle"><textPath startOffset="22.20632615414155" xlink:href="#id70">October</textPath></text><line stroke="#e1ed5e" stroke-width="0.3" x1="26.266209847984257" x2="21.92892807433627" y1="57.711370442889674" y2="55.22380399835377" /><path d="M 25.39875349325466 57.213857153982495 a86.0,86.0 0 0,1 29.58750427330802,-30.492523968695096" fill="none" id="id71" stroke="none" /><text fill="#e1ed5e" style="font-size:6.75px; font-family:Arial;" text-anchor="middle"><textPath startOffset="21.46611528233685" xlink:href="#id71">November</textPath></text><line stroke="#e1ed5e" stroke-width="0.3" x1="56.762969772571076" x2="54.21961505331055" y1="26.818313649435495" y2="22.513508569990535" /><path d="M 56.25429882871897 25.957352633546506 a86.0,86.0 0 0,1 42.265352541879196,-11.944610805530505" fill="none" id="id72" stroke="none" /><text fill="#e1ed5e" style="font-size:6.75px; font-family:Arial;" text-anchor="middle"><textPath startOffset="22.20632615414155" xlink:href="#id72">December</textPath></text></svg>